<mxfile modified="2023-11-28T15:34:09.374Z" host="app.diagrams.net" agent="Mozilla/5.0 (Windows NT 10.0; Win64; x64) AppleWebKit/537.36 (KHTML, like Gecko) Chrome/119.0.0.0 Safari/537.36" etag="UZw-2iHxI4DBHNN2GBN-" version="22.1.4" type="github">
  <diagram id="1JJ-UvxjRfw-XplDersZ" name="Page-1">
    <mxGraphModel dx="2074" dy="1098" grid="1" gridSize="10" guides="1" tooltips="1" connect="1" arrows="1" fold="1" page="1" pageScale="1" pageWidth="1169" pageHeight="827" math="0" shadow="0">
      <root>
        <mxCell id="0" />
        <mxCell id="1" parent="0" />
        <mxCell id="_3xDCkGt-uZ2KmA9hD5z-21" style="edgeStyle=orthogonalEdgeStyle;rounded=0;orthogonalLoop=1;jettySize=auto;html=1;strokeWidth=3;fillColor=#d5e8d4;strokeColor=#82B366;entryX=0.253;entryY=0.992;entryDx=0;entryDy=0;entryPerimeter=0;" parent="1" source="GdHHIwHBryNfU4gJc2sP-4" target="_3xDCkGt-uZ2KmA9hD5z-5" edge="1">
          <mxGeometry relative="1" as="geometry">
            <mxPoint x="230" y="340" as="targetPoint" />
          </mxGeometry>
        </mxCell>
        <mxCell id="_3xDCkGt-uZ2KmA9hD5z-22" value="&lt;font style=&quot;font-size: 20px;&quot;&gt;&lt;b&gt;USB C&lt;/b&gt;&lt;/font&gt;" style="edgeLabel;html=1;align=center;verticalAlign=middle;resizable=0;points=[];" parent="_3xDCkGt-uZ2KmA9hD5z-21" vertex="1" connectable="0">
          <mxGeometry x="-0.0755" y="1" relative="1" as="geometry">
            <mxPoint x="-9" y="-28" as="offset" />
          </mxGeometry>
        </mxCell>
        <mxCell id="GdHHIwHBryNfU4gJc2sP-4" value="MacBook Pro" style="shape=image;verticalLabelPosition=bottom;labelBackgroundColor=#ffffff;verticalAlign=top;aspect=fixed;imageAspect=0;image=data:image/png,iVBORw0KGgoAAAANSUhEUgAAA64AAAPdCAMAAAC9bsUvAAAA+VBMVEUAAACFi5GFi5GFi5GFi5GFi5GFi5GFi5GFi5GFi5GFi5GFi5GFi5GFi5GFi5GEi5GFi5GFi5GFi5GEi5HCxcjr7O3W2NqusraFi5GtsbWZnqPFyMurr7OprbGDiY/q6+zU1tixtLjt7u+XnKHv8PHx8vPBxMfY2tza3N7Hys2mq6+kqa3d3uCztrqBh43KzM/09fV/hYvf4eK1ubyboKSUmZ/Mz9GipqudoqeSl5zi4+T39/e9wcTP0dTS1NafpKm5vMC7vsJ8g4m/w8aLkZaPlZro6eqNk5jk5ee3u77m5+iJjpT5+fqGjJJ6gYd4f4X8/Px1fINwd36Bg1jxAAAAFHRSTlMA+/fz7efh26vO1bPIwZWFjLqinOouPZIAAc/SSURBVHja7J3pbuJYEIXZE8iesYjBYGFZwjaLkQEbjMxm7HFoy6D0+z/M1L1ee5JO0hk6HWnq+9EdgpR/R3Vv1Tl1c8j/m5ub25ubHIIgX53r87tLwt3F/W0OQZCvy+1FrVxgCYVipXp3j0UWQb4ot/dXtXIxzxLyhVL57PLu/DqHIMiX4+auXCoU8mxMPp8vFIul6jmWWAT5YlzfnYFWn1OqXWCFRZCvxF939Bj8AoVi+ax6n0MQ5ItwTztMFJ7nVVXlCalkaxd4IkaQL8FfV7VSchDmVU2zNU1TM3LNl86uznMIgvxxzmuxUgmqFslV5SPCAlu6wgKLIH+Y67taKVNYNZX1HcfxffopLbL5QuUKW04I8ie5rpYKbAyv2YeD6ptiU9Rdh9UOh6MNemVjKuhzQpA/x/1V3A8mDSaQZuDo63bjodHqzeai6wRQY9NLbOkK9Yogf4abi2q5WMgnB2Hb5n193tp3GY7pWttJoz/XvUAl5+OQfLHyVw5BkM8HfBElNqmsAFTWeU/YdBUCx+y2+2GjPzX9TMcpf4n3VwT5bG6oPbiQVNaDpjrirLGxGC6Douz2bdEJVB6IPE7omECQz+X2qlLM2iI0jfWavYmljIwRxxBAq8ZyuVKsxtRjs1PYKtZXBPlEbi8uK6WsLUILvGlP2NLKStTa7XY5UK7B7YY9otZsg7hcxfsrgnwa9zU2raysqoEW3fWDxY0MhSNKZQAi1xG3ac1Nh1UPx4Ot8WxMNYcgyKdwC/1gNoIeg9XAnLYnFsOR/lIoV45TOM4atqee55kiGcLyalpfsT2MIJ8CXFpTezCprEebNWeTnUErKxPKFSrrUukO54793fbFXqPVnjr8wVbj8esl6hVBfj/Xd5ViPtth4gN32hvuODj5glzD0gp0LaEveiwbiO3JDr6ZtJu+qkb1FeyIOQRBfi/3mdIKarVhegP94KHFKVGHCWBAuQo3aYs8+BH19taoy4PBoGNMmr52UGP7MLr9EeT3cl4rp8kblXgOfZOYmKCplLSYOIDZCDPT1zRfbDDLwXjx+Pg4HisPzeCgRePXEp6GEeR3cn95ViqkldW2Qazr1mQXKpTKlVRWg9s+zD3W5r1pwzIkSaaMF3VF0GlAhwWKFzkEQX4bF5XM9IYOb3yxD5dWY5ROb8jwhvgi/OPx6Mz2I3n8OJbrnU6nLi/GA27mq9E8p4BeRAQ5PekqpmLWFsEHnjh72OzoxCZqB5NBTnffWOuO7+trgTHqcGmV61SukjwYLwXRP0Zyrd3lEAQ5PXQTUz4Taj0cDqw7b2w4w6CX1tDFNIJP3U3fZA8HvylwncXjYiARqQLw3+Cb1G17T3bo9C/XcgiCnJ7r88s41EozrSrr6fP2cAvGJVJaE1vEbgKV1XVcKLtbZSUNxgOpHsu13hksZGWoH8NmU75YxuQrgpwayLRWSsV8Pl0XYbMutIMZZaSksxviP2QmM1d9stnmUOmMx0SrQFpd5YVsbKd25PXP57E3jCAn5vbiLGuLUDUoraR6kuEN3FQJYWd4N2nPXai+7nqo1AfQWIIWE1BPkMfy0ppryW4JzNEhyEm5gUlrXFn5JNQqbLuJLQLgSJ3dtKa+pqlgR+TgGCzLkkRKaj0jV/jtcrdWE2sT7jFFkFNyfVXJZ0OtNCcHpkKFHH0jxyETZtB7om/bvNmzDJmeg58jDaRVd8YncsXJK4Kcjmu4tRbTdjDUTt+dtodJqJXKlZRWZtMTHY13xPZG6cDERpbqP5ErM4M/FMkVJzkIcjLu4weqeIJq2xokbwSwRcSh1tgXwWzapn38zs6Hijz+tpBJO/glucpSh+sHiVzR5Y8gpwu1llIvv6ZF9mCLy4Za4UfOmvREL+DdacsadcALQUvrT+RaH7UdVoty6uhrQpCTcH0J/eDMcpcDjEvN/oQxRqNsqBUKLSPMneN32+kxq/EivrSm1TWLJElGww3itRL4KB2CnOaFqh9DrSpP90VAqBXKaVRZCd3tw0x0WN6fNnYr0mIK/cE/QZLk1VD37Silfoa9JgQ5QfImE2qlvgjeaxKxKmmmlYE766g77JuafeT1trWSQKtSUlhfRhrU91MnXiqBEXUEOUGotZQZ3gC8Y64bkYupm5bWHZj5zcDm/eYDs6IuJmqLeAVpLG1n3iHKqJcv0YaIIP+J8ysItWajN6yjryGB/sPwZkTawa2px6qBNxd2ZF+EHNoi3pCrvOuZiVxrKFcE+S9clNNjMB9uYmrCJiblx1CrEu5egq/1/saQFo/j0Mv/BjJEXhv64RDaEEtn2BpGkA9zDaW1mHmgCiqruG4L2VBrqFXSYfIcj5RdDkprEmp9A7jfjoZN2w7liq9bIciH+euyVIjqaryR1Gm2NwyJsXLdKNRKhzdWo8na31W9De3gR5jeJP2lt+VqbOdaJNdCGSc5CPJBM/9lpVjIHINV1tFhXUTohcju+t635qbPO3p/zy0lUlmld8t1MFjuZnwcoSuiyR9BPsDNHU3epHvTwBYBodYNF4VaQ7nSUOtw5tpPB3U6USSakqMepnfLdcX1gsjkn8+jaxhBPrTrO+M4pHLyxL6wZZSM4xBgLPJAVaCy5noyqlMXUxpqfRtJljtGy+FVdA0jyMcT6OVi6ji0bRJq7YfJm6S0Ui//viWy2gHsiPvRisxupPfXVoos15eCG5CMO+EyhyDIr5ZWFsjcWgN33p6Eu76ZONPKKZw17Ov+QeP1lkV2fYMt4t2VNXUNdya6r6FcEeS/hlrp+mCSvKHPyQFxZaWh1gmIVeOdaWsz6tB9EbSu/qJcZWkzdbTIhljFlzcQ5Bc4z3j5qVptX58NrTjUyiShVthI6mpPT/58Qm0RMt1I+stAJ9lae/FTOTX0SSDIL5yDa2Dmfx5qTWwRoYdJYbZwDvYCiOU87EJbxDtcTJL0Um94zEAs4KCFmRwcvCLIu30RFZjdZEKtEL3RexPiCOYYQjS8MZRdYxp8f7LdFrdaLIiX/x0dJgl4Qa4LrqVrx1CuFYzQIci7c3LF9M5Kpjfk1roPQ61p8oaB5A2EWgMVzPxMJw611n8G/U6SZYnyb2+iNF6MBFGN5Fq+QpM/gryD82o5DbXSjaSBOwWxKmmoNXqgSpi5vGb7YotZydAOfivUStUKfeOwsfRMro/GZM7Hcq2iaxhB3jFqTR6oSjKtzX4DLIc/hlq7G6E3NZ3AMWdDpkOmN697+eE7olK5vlKsHTNaSc9cw4vldhY/81o8Qxsigrz5mlyVupgotMNEMq3D7Y5Jl31DZTWgsq49n/f1dWPLLWmo9Y1LK3wH3aSxpGzazflM4J41nAaLFdPzbZXKtVBCXxOCvPHoTS3pBkehVkjeDC0mfkaDiUOtVmPu2Zrq9vfRMxpvVNZoVCPXR5OZHvjOfLOsw6csg3FHaXjRyxv5QjWHIMhPubmHdRGZZzRsjfeafSGsrEn0RoHe8KaxdtnAF/sTUllpaX1drlSrcFxW9r2mqzdNh+xwgs9Z5HHHEExVjUI5+Gokgry267sUSzXaSKo6zYbFLelDrSFErUtu29L543defFDqi28LWiRfvbLCP2RO87dsTJqBqoqtuePMBePb+Ee5Duqrvciq0W7wM/Q1IchPuD2vZmwR1B4MZv6HLRNtJE3eQLf27akb8I7e2yodeRBtOXztykrjcQNpBbfWuW42Z0K3oZvTtvI4eLbKfzv1VTuUawUnOQjyIrd3tWIhfaIKbBEab64bFj36JqFWsi6iK8y849ORne9HyUOtb1bXAXgT67u2yLMuTGiNurXWxT73b7kCu7XDx3JFGyKCvMQ1XFp/HN4EbhNyclwYao0fQaeh1qYTqIE52xv1qMP0ulijDtOS2/dEkyyhsJRlZ9dviuvuYvDMNcz1Xf6gUbni/hcEeYHbKwi1JhtJNdu2eU/sgVgJDCHeSLpv64F2DPT+RumED7W+LVfwRSzqymRmOgGIdcuR26/VnupTi76Zk0UeK+RWHMkVB68I8kJppZU1vbXyATHzMwq0mLIbSZmdMNPJMzZiY7eU32OLoBWTdJAYYW0Gjgt5HsVQQK9WC07DGyr3LIOFITTZSK6lO+w1/cPeufc2akRRfPPeZJ/ZRX4BFgiJl7GRzdvCGAyUuAhH6ff/ML0zwEJIu6Sr7HaTzK9qlapt/jsdZu455xIID0KtZ+2u790CibUbatV1hYLkzQgsTi4T2RyoUJZ6bRED7IsIQJxe5sHHdSjiX0rrPj+zLOMfjBIbwy3uKrl+IJdXAuEe79CltR1qXebWDB2CjS2ijKDHeydb3B2S7X4jQfTmEbaIata6idm0WOQTNrLRL8UndWyoljeHkW1HrjdB6OSVXE8uydcwgdDiKwq1fjtZgWnubYeQvKHbjaQg3HDoWAn6h7xo142kgx4zP5rxcHY83AqZ5ap8JOKIAJarGDJCOtQDWe7IlfPVpPoYPr4gbYgEQivUetaEWlHX92GZC+Aq1BtfBEjL3thKxAqLv+4O3pAerNfVpbXndJU05KCw4UzejTJnT+vNYnUQrT8UMpbedGa22pqjmPRQyfWM9DURCBWfvoVap2WodZSnwpYxYjy8qcQKxBHPulaWgJt/TgfyStOk7y2owirGB3BgU+FwZgqWyxpxs1gdgJ/mk0z1bfS7WsjwhMxbuzKTc3Ry8YZAIODP4PMzMEY0i1qX09RU+VCsQ62I6oVJAONgIaiGEmirKtQKqvyei0mD2+2AGjqC51nOOPw2EWpuw4aZOQYYLe7LdSXZe2FZu4ZPydMwgYDrIs5awxtglMFQdO93N7XGBuOmyTRPXdTEBO+8ct/0BkfPZZlTIsa0PMtEDeJ6ORGivkEroZu6DN2VqyYFvjutXcMn5GmYQHjz9j1e1NqEWqeJ5fAhRSOarm+b9nkzWRxGKQTQN0iE9dHa88S0HuiRKqQ5+gz2xfqXtuWqR1vPnInaSuq6hiknn1ZyPSaFEoRXz+frs6P28AbEkZmsIbYWtVYPwtHYzQ+7nTcLbRk9HH13QRXXhFolZGIa5YkL38E2KmPrQtv+zBJc/6FcJUXNprvqsYlMcgivHHhhgkWt7a5vdGmdRyJ9P9SqUCEk0ItRLqgo1KppVaj1+9EbVK8GYoWj1ROccWO2eCDXWBWESShrUrcb3Ga8on4bJm2IhNfN226o9TBNXB7ZItCi1mZ6o9MRa43u7orJ3JZublZ4jcZjQq1raTMX8uXUUkO8/ZX6J2hdZEzBMiSt6xrWNrxQ3O5KuZLBK+E1A47D01YjKQq1or4In6psEUDZ9e0b6iQdFYnARvqgb1FrfbKiUOuGNlTXsybOMCwnQv8mV3BPpDz30OQfGGZeyfWIlJcSXi+woKoTat2NwKcU09WCKgwKteo+v83v4Gjd7u0VePnxV3Bvy6F2s14HPmtBrt2di4pdDlr/Ra5oPpQNN5IkdeQ6iLbJ3W6B5UrKSwmvlq8fLtqNpPDClONbKz5OxXp4A0T8TEhGixyemPTBqqc2rdIqDrXalDET0kRweL/6X8C/yVWBLN4kYXROkgcdo4SvZrVcr8hbE+F18hUKSU+O7odaTXbuN7Obquxb3KveaHcoLDXS4YWpDLX2vDFJKNTKKXPXS3LL4WP4RfBLvyvXcGjmLB1IcsfXJFGMV38ME9cw4XXy8XJUMa2O1sLaMiEOtbYXtVI+71ij5bIwh3GA33n7ozeShNJ0GzDzp0kCeZ5YrydC/wrqpXBzldo8kKtM8xbIFdsQz8jaSMIr5OO7q8bFhBtJcxDrvpyzNItadRqCqB5IJXPH/oaT+0KtAIfXaKwGdsS4aeqZar1ZvU+usbFNZrEtaR0boqwbwmFZ2hBPSb0a4dXx6fri9F7X926aCKoR661Qa/UgzG/Txd0ic0JbvoFQ6+NsEau1ZIczL19kJuPruq30aLU0+YdONov+Qa525C4ruR6fkrcmwusCl30fN8Mb9MI0mQ33YssWgfMyEa+aVpZ4gjoX4SO18kX0DW9WsmSLBuuYgrll4WhVmujNd6F91Zvtdanja9LkgHKQixmb/I9JvRrhNQEdh/X7UtX1vSwsmLTSnVArXtSaHO6WuePb8upmrT1yePOnFkSOleeeyXxbrC4+Qq6KyFozg5ZW8j25onAAm0+xXAHiayK8HvDJeq/re5SgTKtPtfKn6IUp3jMuaA51SaBLq6Zp3720cgAOtUqBHo0dy5rAyRqKzS/thVYoRnB4qiNXVAdjj7NiuSzlSp6GCa8GKOYHX0Rji9gtR57LRDglVw9acCNpPHfS3QEch2MxkNd1oSjXH2rlxOGkKAqL3VPV73ysXHV6LDhMPFjL3W7wYG7lS5i8IsgaOsJr4d3VaWt4AxSZMONDUKveNDEBvoHWaCyLDNVFaNjF1PvGJMlAoESs6eWeoBrNRKiiX65D01H9rlzhFw/2QrKr5PqeTHIIr4FPb9+ffwu11s/BKCtOK51QazyeJMtD4TkGHXwLtfYYhGUcat2DkTCxXCZsTYQeL1fe3c5C7oFcNSlys92hlOslSagTXgGfr2sP0xTAD8Kp+4+h1nBsFsvDAm1wlNdrTX5U17cG/x4NX9B5nm15X++erP3QCvznztYIVg/kqsVOWsv1ijwNE148n+FobS6ti90ONzGhZofmFMSTVnHPmEkxTSZqqMPRWmda+0OtA9qYeZ4nwESoXKz+3+VqqI4732hdua40irVquV6Qp2HCSwdfWtvTm90icdEhaJcLqiq12mC0V63pX4fCNHQJbBFaz5UVgc4/eIzSeSE/FChfZ7dtEY+HpvfMzOVtTerKdaUMhWUl1/MP5PJKeNEgx2H70rqcFqk542OqruX+FmpFIbZpkU/Gvg1HZk+olSu9/JqmDTaUoZqehd6txI4t4tHg4I851iVJ6spVN8xarmfk8kp4yXz9cHrclH3jUGthOfOYrvOn6C/IF2H7vFvc3t0lThho63pBVc/pKkHy5mbjq9l0lGwNsfLy/5hcUQSepbnBA7na0XZRvQyfXpDLK+Hl8vX9ea3V0hcxzT2XNdBe5bYtol6jMU0s1rdlHGod9IhVwndbzqbmjpBlgsOL3w219ss1VAVVDMAZ0ZHrJnZGu8o1fEYur4SXypd7jaS7HdRF4JJDHI1rhjcbXTScbHq7KwTGt7EKsSR7Qq2r9Y0WUEMzLRJ8XuNv6x+XaxyxlhPZA63jGl4FtJpXJv8j0tdEeKl8uTw5bmwRABye2zHyRTT7aRBUNNx6cK1N3CHFlS4mUGp/17fE6f7QzbJEaEKt1I9CUzHruYbOaR0bosbpTIZN/sARWZRDeJF8/XB1enT0LdN6WEDyBjXzt4Y3ONMaG8zWy5MEfc7aeAl6KcnvhlpRSg5emNitgHbezBtfxI/LlabY1OQprusalrkN70FbeWWUeEMgvDigien4fqg1h5N1L+poz40IVLYIBb0HJ9MFWqOxkctNrUB/qBWulGPTS1MBUgB07/SmH5A7kwqMH6y1rguR2wt5LdcrMskhvDS+Xl+eN9EbvEbD2+JabkRji6BCfuslBZysc0oP4MOz7ovotUXY8dAVrInD8B3L4Q9DK2OwWYSbrlwlSfbdpH4bviCFEoSXxVtsi2g3ki4LVL5v40OwHWr1GWH61193CUsP/vjzz3XvgioA3mqhFnyz32aHabqFXxrY7Uvrj6PoQ8/azjc3Wtfkr4mzdHFYlnIlhRKEl8Tnt5dnJ/eGN6NMcMZhTCv3Qq1UbLCuVxQjD16YAhiYwBNT/4IqHGpVQsb1PKuaCMEvfRK52rxgmWN73ZWrtqJZa3FbyvWclJcSXg6f3p3XoVYAhVp3BYTMo/v5U0XXbX++TXa3d7nJ04FcLWrtO13RFo2bIGaEfDQSmJCufukTyXVuChNWx3Jto93oQ2FayfXsmlxeCS+FT++ujruh1onKR9UhWIdaFewhyqaLInX2NNcsau0NtUobZa9O0sSbsCHVbiR9Arka24kwo1fyA7mCkGu5nn4gNkTCywBCrWcnR/caSRMQa/0W1Jre+AxY8uHcVfcKJ9XDm57iNOTl53TDsRI8vo3LX/qEcg1V09pS2kO5bsJtUcv1ktgQCS+Cjx/QpbUdai08lwlFXBchtkKt1J4RRstb+J6Nv4VaB48ItWoBBV/QeeE5fKzrOn5hejIUPWK2lutLktSVa+DP8sMSd4OfkAwd4SXw+d3l+cm9UOsoNdm667uOyemKEqN9NMUim7CRHsiPC7VKGjxFcbTheF4GNadhaTl8UrnSus873iTkkGu4jbYOKDap5Hp8RnxNhOfPu6uT+mCFP3GoFTU74OGNCDShVmNmLe52UzfUZVgS12uLwEgrMFAoQzMHtwXrK40t4umglRgi7oKx4R7IlaPH6W5Rbt44uXpDIDxvvl5XoVYs1SrUqs79spZbRGAPkxgNHSEpisSEUGu9qRX++J4tQtIAzo7nqmBZEwi14prTnyHXkPUsHrmGu3JVht6ykuvRxRsC4Tnz9fL4+KjVSHp7gENwZsQKdjBUYJdExAiLu79uEyeCK+G6XFDVd7pq65sbzQ4dsComzp7a9IVaf9w0HDOeN6YDTe4uedXnFjL5T/Eoh0xyCM+ZL+/PmkWtwLTIPJcx/E7XN+WDmV/IijybML6taSutxxZRLWqVuI0S8zMz9SB5Iza59qcGfu3Q8lh/s9K6crUNoZErsSESni/VzhsMemHaIRMTs0dfrO2ub5sKGZi0LnP0rNsfasVwyB+8DmhDNa0UvoMNvwm1Uk8PTc8Fb7a34dTvyHWzF6a1XMleK8KzpWlimpZ7NEaJ5TDzqG1hoAEq5tGlNU9cJlQC3MT0GFuEJnO2D2eyJYCb3yibmH4atGJMvC2vr7t7rQZBZKIIXSlXYkMkPE++XF9B2XcTat0tcsGBMUup0HaodT6zRtMidebxhsPupEfZItZyEKlmmiJ7cCSWv/XnQet71zNZuitXWeL8bT6t5HpCBq+E58jn6/O2LQK5mBJBhUyrbTelSTTIlY74bQY2vtQJN9LNDciBe1yoVd7EapZPE5MNFb35pT8JxQ63kMmjHsp1QDnJdFfJ9QO5vBKeHWiNBip3aYdaLThakUDvd32HYzfNl7nlGHS9qJXrD7VqGqf7jGtlaEddhPudfrpco5kguD68gXUirzLNpqPDspTre2JDJDw33l6etEOtu9vDMhfYPT4ExQqKhr9TIlZYQKg1HdPyn2hRa8+a1jrUul7ZBmR2ilSNGlvET4W2fRZCOZHW7QaXNX1sjW5LuR5fka9hwvPi47vLs+N2qHU6yvCttbFFlKcsCrWmxajw3DInVw9v+kOtdMiYlocaY3psEU9pQxxvBWEvyV25rjb8pLjdlXK9IG2IhOfEp2ucaa1AvWk7ZLuP6vypiEBPTIo/d/Pd3W3uznVuVX5k9p6uEvgiVoHIevkinzAhfmIGfoVcYbwreHOu6/KX18Heze9KuR6dE9cw4Rnx+d3F6L4vIq8ch3h404RayzUaU5yTG4At4rGh1sGGNmaTLEN5Hsout79SPx9aEQ1WSIcb7oFcuchJarmekTZEwrMBkjdnJ+0FVctpBmItF78BdRMTvrQWcOGz1FAfIFvEo0KtK+hKUuZbr8isLR+J5ezml8k1ZISMQTkh6b5reBCz2W0tV2LyJzwXPsJ7cHt4s1zm+BDUdb1Z1AqgnJyQL29zgaEg1IqO1v5FrZIMbCjezfLCcngR/9JfB035/CRRqY3c8TWtB/TYu12WJv/T8zcEwnPg4zUcrU0jKVgOixTbg9uLWnV0aTVmaOdNCskbnatDrf2LWlcaEquVpqbKRzH+pb8QmhINM5n59gO5SsrcOlRyPSEmf8Jz4FN9aZ0i8BPTIt3ycb1UFasVPzFRcyeFYE7uRDZ6OHpUqFXCi+dERoDkjcDEv2h6093y6iaOocurjmtYsveTKkI3Oj4hPgnC78+X64vTli0CkjeJZ6o4edOs0UD24P3YEbIczt1xHAy0R4Va8aLWQI8NdSJYcBWO8Bjo18s12mbukJa7rmFp47uLRb3XirSrEX53vly1CklRI+kSJdCN+N5SVfTCBP5gb7G7nXpqHGh/rvGCqr7TFdsighh3+kNSlrbxL6V+uVwV38lMNZbXckeuAeUU2DWMILYmwu8NlH2fNkVMKJ2SWK7K72OqFWpFP6KTNU0Sb6LOxY1Uh1r/Fa4OtQ50n5+55sQFy2FM13GeXwytxzNvso2kldx1DStsMkJuEATJ5BB+Z76+v2g1ktYvTPu4/gyuHYc2tXeyxWGXC4xoS1rt5utZ1CprcLLSQyHLE2HGx1S5/fX/kSvFQlZvP1h1XcOSPfSKXSVX4kIk/MbgRa2tUOtihHQVUUoTaq36IvCi1mm25SmubCR9VKhV4vSQNbMkFcBsgX5p/Wz1qwG5juHuPOdWUnfzRjAX8kO11+rDGwLh9+QTqouom5jKisMciVWkO5taFfiaRQ1knjOn4IUJhVrRtbW/61vbRKqQl4UxZab1f5Tr3+yde4+bRhTF2+yrSTdtHsjGHrCwkMzD2AjztsCADWVdxK6S7/9hemeANWa3sZMmWe92TlWpUiWk/HEynrm/c+44Ev3+SntgV2FrpY1dr+nTMNVp6t1bwCLaR+saxix8tagVTUBNqJVJ+l4+/zTy1SCUb/Ci1i9IwKpDrVIYTP2CbHjV9Z89vOnaldCPnNOlhqWFlLj53W29k5n2v1Cdot79fk0WtRLVoVaRhFpB7UbSTcxZGTtPfTVGK6lGDr+MRQjYqxr+HezZ/tDltgAdw0ef1K4K2vJWyiu9LjW8kDdqdlvb9Q19a6I6Qf3+ht1pNAcsYp0O+RjHWBlmL9S65W0DGkntsaJBXYR8VKhVXsC2dN30ynnp8xsldJ7iObhr16TvFVNmJckdrklDnA12JZPXSxqhozo54do0di/UWmZwa40nVf60gZgQCmZwJBUj3BehrHDy5thQawiH2dDO8PpXtAu1PqEQCkyvcINQ6rYhaspMXK8ru168ppdXqtPSn28vzvdDraR0NFB0ZRe9QUh3lGAModbPt4Vn6sLy+FDr31oYqH5hpEMuqEOtT29XZhNHhbfVewu5Y1dnaxm1Xc+vKNdEdVKC3rRf71n+OtTq8bOARNB3i1oVJoBIN8D8rIhzchUWcXh4AxJCBsdhM98bxGRZM/7mCShwC2uGOnaVwK5BNDcqu56dU66J6oRU1wcTjcjJCuEa3gQuot1ISi6tqj2/NViRT5weCd4cs05uCaFWpu9lRQ5TnwT7/ul/B1dCaDMthoNJr4shaiEzZY2GGqagBNXp6OP15a97odZ54Uf9JtQKYpq+CHBrgd+f+miFJ6hHNJJKpO3bYfrDDCgmmNEq5KMnYVayKUdNRTUQltq+XeWVwhfzeU0N07cmqlPRh7dvWqHWNeaDfUzy7odaFTSJx66dl6nv9fEaDRBgEYeiN9piIQt4leowA+i46Ys4HbsqiMtEd7tadhblyIIzyOEKP6JcE9UJCS6tbKU61Gqw+RB2SSmdUCsuObRSeHyx+SrUShCmQ1iEpC3hnIKYXJ4DFxEoIW5iOg2nEiFdGdiiNw6Xcoca7q1mdmkAgIlF29WoTkEff7++OtvDIgofDsE4aOVPESKLWiPM5APpH6OQbGrFpjyARZBFrUF/aolepPbNoMrHnphdx0NRHDiLrl3lXjxMjXXNNdFCCaon14fXsKd1N7xZ3+JwzdSEk7UVaiVPTMkAL2r9lEbxSrv5e1EvqPry6QpYxM0SL2qdzwtvtnHwR+GbJ2ZX3YyGtqpju3Yem4IoNxquiU5yqJ5Y4NaL/UZSNse13AFS9kOtky3nZQVekM4FugS3UXxpPRBqJWDiSgkGnpj51nQcMLr+5BTTI1KU7dTyp6hLUcIfk4EEAzyCY13RSQ7V0+oD2XnTbiQtyXMwybRiNcQhY8Ix82ldDPtMqGnHLWoF0OBGWzGcmM5TfF6j08AiHrNrzHlZNHkI+S8RZxt3lV0v6SSH6kn125vzTqg1H7YPQTK8wUoGUQYnb+aaSJAJxXQAD25CrUrMD/M8t3hzoivKSb0w7YSUZBxlXgBIs9Sxqz4W57VdL+gaOqonE1knd/6qHWo1UhGbtanlboVa3RzcbE8BD5Y0+VguYrFwYtVOczivt5sTwiIeo4a308yKw57WtatjeqP6x/A5zdBRPZn+eHv5aj/UOoLkzZbRW80O9YMw5+XGuvT5SahBnkYWQIeQQ0nGLYex65esH41x/drJmpVgTYmaiXinj9yxa5i47G3VXnp2RTN0VE8jWCe3C7XODVBV7tJudiBblSf41yzAw0AcKoIkH1rU2tuFWoFVtHx/iHfUIdApXlp3WNOGz0SgtDp21ZYr4BPXlV1fXVCuiepJ9HsbiwCKCWJiucUlqFXLPSHV/MxW9defPhviWF9UXd9ffg6usyxL3IFvjUaszQEW4ZzqpbVlWM63+aDLNWmLFeJTY15X+VNQguoJ9Mf7N+dtLALw4AxKR5PWUtUqiprg5E05T+3pVhEWh7q+QWR4A6Z2GICYbLz+NTk9LOIRIaXvwx8yvOnaVdD7+I2N2PVXuoaO6qfrHX5hajWS3t4ZhT2dBfjS2h7ehCjgRPbu87qItrpUb2o9dLrCqPLmbzmM3Yw1yBoNsqDqtLCIR0mJse1HM6djV1nrhTN7NK+7wekaOqqfLOCDdyx/xUUAcsibONTaIAwIaxKQo5UtRD52SKj1yEWtK2cDodYss2GAiz96slfWlhR9Jtoep3fsKsGfJh6WjV2vKIZI9VP1x/uri9bwZm3gZn5+2wm1Ojpeq2yPRmUOEBPMN44MtS5uFj094SLbz/C7FTrl6c2eFMf0xKGKunYFbiLw0vm6suslxRCpfqJg1Hqxh0VUMH+CWvlThBWYvOenoxxgJLRaLJZfDLUKzewGtGJM1RJ90VIJdXzyl9Z7u8auKLpM56kJ/1xgphlMXiu7UgyR6qfp4/vXsEejsSus0QDi0MPdod2ub3yyFuwI8IaNvupJh0Kt5P9gjHixYmaRbdsRP46rr578pfXeronqid4Gk9Cd9lKFt0d3lV0v6OCV6ifp3furFhZB+GAW16bpTn0INnuV0QaIPOCDR1HiyJCnOebSWj8IT7hhyuYinyD46Amy/F+wa8BFopU8qErWls5YZGu7nr+nl1eqn6E/f8NrNPZDrTZ+YWKq5E0zvUGTZOD5JVxavUFAMq3g1uOwCCcYRLYvwkeridBzsivCu/DArhJo3643oemVjV2v6eWV6ifowxULaodaYczCx4xODsFWqFVJOBuwiLt8GvTuF7UeOl0Bi/gb+OCINdapa6JVhUU8izem3ZLXmTq04l7vgV2BpCxqu569pr+GqX68YFEry7aXoJeYYNhO2rXc+L83Ju9lBUAT3ngSygcXtWIrN6FWAIvtHG94xYtan8sLU8uumy1nWdvVI3YN1PTOqKlhiiFS/WhB8gYmrS0uwih9wI3qAHoTQccH7SzK15/WpTdDAg61VpY8QDGRUOuGFwsItaoxg5TngEU8EIJmG8/ahkLXrkuB4bJbo6aGKddE9UMFt1aoD95bo8FmljoLUB1qBdVPw9uBBzm5kT81dYE0kh7ceVOt0RDQVhWzPPMgz6Pgjz5DISaYRZbprOSuXXvK2F8bNTV89QsV1Y/Tu99ft5BD4CJwqFWdtcYsIDJ2TcZeOjJYIGf1lazJ8sEXJvhHxiNZPZ5meW67/S3+6LM0K5HpWmNlJcudQU7PMUVjXneDX9CnYaofJwi11ucqET5bU4vbonbXd/UgHHNWvga3cswKL4mTeoewiCrUCjT/1vWBtoig5jR8NljEI0Jb1+pDold+QA3H1qjpBj+jhRJUP0rARVyetV6Y1nW5SxOSabgItDFVMYXRjsglek+qkcMDXISsLaA+GAHElNvw0XjznLCIRwtgphaXOFqnUEKTVpuoHBm1Xekkh+rH6M/f8aB151YItY4yb5CgupH03q3OxnQz2NQ6F8eOBiOZg1iEUFFMy6WAxmLJjob9QA915VQWVH3r5HU6VE190bGrLPXQNB2t61EOxRCpfogA5j9rvzDNR2lmPRJqncR9V8yLMrfVWBFIy+Fxi1oFnTGnlp+RRtJnhkU8alfVmvaVxULqUv4Kn7E1NfyKDl6pfoD+uL7cX9QKTUxkjUaTP226vplYtcu7u3k+jXXtmFCrQEKty4WgmK5dsjlUmSoVbHEqO2++ScjZ8J7Lowd2lTWnbzdcE11DR/UD9PFt+9IKmdbUt6YDsy77vm9NY4Dlsew0xdBE4Ah4CfoRoVZNlgV9Y3KuNRThq4mi6ArzvM2KT9cNF7nTibZ4APmvZsPibl3Z9S19Gqb6zl5tD28qlj/zOLMe3oAaLAKXAENxWDnkEmUlHR1qhdstArA49YfT+0bSl2DXvhtFgaZ17boU4ij9VNn112taXkr1XfXh9Q6LILdWo7ABYpoorbJvhEVycqN5bo2ZUIL4m3Zwn1wdag0nfSvPyaUVneYajW+y63gaWbH00K69QM0bu76hl1eq72nW66vzsz0sosy8QTxBTai1wSIC0/VLYJiiGXJ6MkiSDg1vBAnfbkNmjPFgfF5Pnk9fxCEhZTJTPdEU5Ad2lRjOb+x6Rbe8Un1/LKLZqwyjVtsdb3aLWpu9ykEf+OC722IahBiLkHtHhVrhcrvacGJZ5lYff/R5Eof/YlfcoDFbdSN08lJGY/tuXWGIF3RtJNV30jsM89+btRreiBFH1smh3To5HTEx5/kjgIejMYMvrdpB5LAOoAt6wnmZb+OjFSHlGSOHD+3KxAMrGzhC164LWTfFW6PCEM8vKddE9V3020XzvDTCboVG0nk65GLkOM2dteIiQpTwPmAR61xlhMVfyyNeg+FfGTeSOqZVGne5ayqh87yxiAdCTNK3Ul5ZARnRsauTeOvarq/O6FsT1XdJ3rw+a+xaTW/KXJz24x0WUW9qDUx+mJWjInNnTChpBxe1NlyEHCpb3rMze8ibG/RCXpj2MzleoU5CqYshyuHGnYMI5P+Kck1U3yWBDm7dXVpvDXxpDRCeiTa31irUCsmbO9jUGpmIbFU+AovAF7ilJgSqzY5SkU8ww/T8RzcP7LoxvcJNHGnRtesKqeWI2BVEn4ap/ntO7k2nkbT0Ld7cm7MgLKAbrJQ1SnsaOwIZ3hzGIqq+CGRO7Sz1PS5GLwGLeExxVESmIi3kDjUs6HzK4qAwFuWaqP5ryeGby91eZYMsqBry2wBhMbtGUh2/pqSj21JUE13Qjgu19jDLL+lbN8tTmN/G2PYv72yttry6hdVnwK5dajjsZyU83LFYtP+F6j/p4/X53qJWOAdyfAjqu6WqNc1vEoppJPZJqPUILKInVaFW4IOzUeq75kR5Xo2kX9fXNE2H/EZadu0qr2Z2gWdiWHTwSvWfkMMWxWSARmUGMH/A7K3RAD642nlTFjjVSUKtR2IRQsiYvOXb4nQWT14MFvHoKEcFeDrpdezak7RebKWNXa/pJIfqW/Xn+/0XJhg4pHY0iEmo9b4uAu+Wi8deOr9dF8OZI93AptZjQq0y3G4lPeCGWZFaXODAR59r/PywkM7wvuiZwkO7ygEwJbeVXV/TSQ7Vt+ndh7dXr161sYgqeZNMEMmf1qFWPFKcDrMcQ/njQO/Jx4VayaLWzYyPvKHn8jPyIHzqe5X/k13RQBTF8WrRtetCAyM3dr2iT8NU32TWt5fn7VAr6fpWzUDRdXJpJcJYhBIMRPb2s5FGW723wMObo0Kty781J3bzEkIAPL4JK+gFPjDt2XXmDX0u1KSuXRdKX2zsekkzdFTfVBdx2VrUCpdWNrXdgblhlKbaoQm1jl1I3hSpN0h0AbDfL3MR94WkMlmjIQIWMa0axF/qpbUWUpA5tTJelyWpa1fdtIzbimu6eE37mqi+Vh/J0drGIkY+3FmZe5D3HovY8iLcWUtg8qtMKwm1HqCY5AVQ/wxnpWVqq/cToRdv1y1v5VPUe2hXJ4lG68quZ3RtJNXXQ0w7QLiqYkoBYkqqRtIWF8EkMzhajVEWzZSVtqzrIv7drc2mVk1ymIGYFflQNfHI9oWfrEQK6Vp2J11qGOwKGCLbUMPnFJSg+jo8GIdad8kbmDEUfgQEQ5eLQMHMzco167smCmUsqXfME9MSEugDy0/tiDM35Ksv/GRtOAkzSqMk7HWpYW3FTEuwa0UNU1CC6qtCrQQ4bF1b54UNvL7SwiKwWxWU9L0Ugjm5GgAWcXO4kbRXh1q1MOBEtsi92QZ3fb+s6M0X7LqJ3dSD5zhN7toV8QVp8se6/oWK6utDraSRFKb3uBkN13K3Q60KYracl5Us63tjVIVaDxOHkozfjZWYs3wfxrcmfPS5N5J+jV2ZALimMRIWD+wK1PC8gfzpXiuq40Ot98/B1Tq5O7xGI27Wld//EHaYRPXnnz8bGY8E6PqWpWNDrZIzGwJyl7mmgz/6v3DqvV/5XOQ2wlLr2FXQuXxE7Ur1dXoHodYai6iTN0VmqeN4QvKnu0ZSUpuWs2xhT020OjbUig/gEJkqPlo9CLUqivKCsYjH7Ir4TFST1VLrLMoRnH52b9c3FEOkOm73446LgOjN7XoOfsQLkPVWRkaBQ5Hpe+XnT7epu9VlDbP8YNZDp6uEH47DeOrP2WI4SBjyF8ALxiIeCinKwLddM7zp2FXuhWOfndcRuis6eKU6KtR6vjtZydHqwyFIIugNFoFF+iIgoFnAQeFgikn70hNTnbyRcag1ZEio1Y6qUOv/4DV4X4ret0Vv7HTsKsH0y7TLuVFjiHTwSnX4PfgNXFtbw5s1m1vcdvMg1DqJebuYG7k12Dg9rRnefMGvPXKyLpeCYkZ+morAFf9vhjed01UfD0WL05daN/Hai4fFfF1jiJQapjpY9v0Pe2fanSgSRuHpJUnvK64lRiQuiAQXVkUBBYkhmE7//x8zbxXQIsnEzHRnzkms+226z8mH6b5dVL3PvW96ZwWR5qDIBKowDrW2t1zE0uVEPoQQnejCQOL+UCsoOVpBxTkcraYXwG23LT/bUOv9ErSxwfM94VYmp9u1jOA8pYYpJ0F1f/Lm67uj7cmKB60+b+M9GkKm61vAWESv6kehD8ThbDTCyOFeLiLBItCY1RVFsXHy5hmHWvd9DK9FRdWZfje/12rEwJ0e+q+wjr5SyJ/qnkWt8MK03YFOmvlNG76DBTmzVBXBfyw53R9ubkJjPD9tXTXhkNiPRZBQa6NdUjwPiENpKcuawByoBBkXMBvLfDV4sX8h1Pjz68SuH+nTMNU9l1Z4D95uVYZQq2rUcKYV6xcWISCnYvtRFAHgJHQuW63WJXli2sPyx6FWTudV0+gBbMEI6BmVff9LIdnldFNxYADdydlV5pR6YtfXdK8V1T/oy1sSk9uuk7s+D3l2zWialt2Brs2Eds0c/oSu74o2av34cXW2GhUfMry57M7WcC8betUKXqNxeM/BGSHBWosmP57lN+WMLmZru5za9S19Gqb6h5zc0U6o9TzyeL2yXiJ5mz8lfRFWxTDL9cjsubNJYTCdDpqXsV33hFrnsluzTR/3TDgkKXtYo9Zb1LDLmioHNZHd3Ok6t/RwMySLcl6d0LcmqjvXyR1lQq3DDQm1lpIWFlA7E2o1N5uNJ1qN07Pp4OzsrHl6r12L8Ot4eFPEC6pCD87rZfwVfGBkxC0KcVkzzQqaj27Ztc16i9iuL49oGyLVXWs0co2kdQ8gJpdgEdnhTdsp2Wa0CFUWdVfT6bTVLBQKq8Su94VaG5rF8n5oKuyaEbTntkbjPwgxTEk1WWuWm7z2Jw1UC4bn8Rq615QapsrpC9mBvhtqxbXcGSwiDbWW4O55Hak1VLxsnrXgZC2kdr1zhpM8MU06M4tVYoZpebjDm/z5yvGmuNYm/dxeq4bMmTDtJnZ9cfIXFVVWnz5kFlTFs1bgjaS2MMsQDORBeF1TQtjUqnLaanB1NWgWVqvTQvMfPoaTXyDXVs0F/CkMdGl5qFjEbSFB4k2bkyejnF2LszFfTyOvx3TwSrWbvDkGt265iEyodVvuAl5djllgmOohD+3zF2eDFv4OPj3d2jV/uuJfIJusGshhqyoA7aQ27XBCrXuE5LFiGjVhkt9r1Zm7CqaGiV2P6OCVaqv3EEDfCbVu6oFRiUOtqavw9EZmxnqwgFArv26sfvyYtgpwsGJlTtd8prXRgVDrpCiU+HBz7uuOph0uFnEXhugYalVEebvCYGdpe/VFYleayaHKJm+2odZhGmoFLmKnkFRgXE5XvXrkKSUGbq3TARytpzm7Fht3LGptaAyEWuMl6G1ZEA4Wi7jTrjrP2224u+YX5SAxqG/iDN1rOnilivUZjtZtqBUaSRfxpRVpMjFrbFcZDkUXuLibm41ZQ/3mAC6t5Dt4z+nahcqmrgwsQDkKlZKLZOrVnF3dHoRyrFHert2+wJr168SuNJNDlZR9v0ufg5NFrQGG+fOhVma5Lum87wE0sdb6mItoZcyaP10T35JlcnPB4oBjN3kywD2IRtJ/IaRZNYPnHRI73H1s0jg+ul7EdqVliFSkNu2EUExEsKCKnKyc086GWkmXsFNTwvJ5YHNMYwTDmxYMb+6yK2j7JQxd35Ou7LC8qvI2C3GeA+j6/rdCMuanzXEjT/n3J/OxEd7Edn31kV5eqb59OE5Z/mQJehTA9RKIwx0uQmAsSeTDYTnQ3dkIvoMxF7GKrXrn6Uo8S7q+54Kk8wEQhyWHAdcfVBPTg4SE9hjIEW7WuGXXhqt7qV3f0q/hQ9eb3boIiN5EvsFKy7TsO1knJ6OlpJvlRT3UHa1/2myRozU9We88XRtJqHXOcGBW3JrmJlwEtettuzo1PqjJ89zncB94TTZIPoZfnlAM8bD15eMvq2INQQAxcRZe1LrLRVic7S1uINRq9ZtTGN40c07Nna5p1zdsjmjX8IyWr7myptFL691CjMVVPZaZdft5u6KKeZ1SwxRDPGh9h+/g8s7whmy8sMCgO6FWZl0xgqgeqfpa657ik/WscJ9d4+dg3EgqQ2aHN01F5Fz8kw6viemhdm1LiidaWj+HIU46gqQuhgk1fPwX1cHq0wdgmLKh1s15WGXXcRETkxoLp1EtloRaTW52cYWJQ8Ai9tu1fwHtLmPF2ww9Q0KE5WfoG9M/CKG14eljuZ/HEDvaujpM91q9olzTwerbx+0ajTjUmhCHBA4kSpagV2y/Xo5U1ppfYCziLMUi/tGuhIuAFyanZvhwtPYkC1EsYs/t1bEDo4Tydu1DIsI4B8V7rejT8IHq27ujDBcBXd+LCF9acS03yrQIyRrj9PzF9U3Qszqr1nRAZjd77QrTm4vGsqZGUVitQUxOONxql4cJyZYeKL12f9LNU8OMHtUTavgF5ZoOUtCb9mo31Fr2eDgEhczwBmEtcetX+dxTS0I3h0XcaVcI0MWVpA3NZatBaCo1l5FlGmrdb1fRrOpWd9TNUcMN1PPqw6TKn05yDlBfvkKo9cVOqBWOVoADkZAPtVYMb7MpqyW5s2ri2U1zn12BNuwCqT5zWSXAH9fuEtFQ60Ps2u6pvOF0RnlquKPV/GiR2JX2vxyevqcLquqZUGtvvBSy+VPsXJjdV8PFzZDnZoXWFXwI72AReZEAXWE1wWXfstszvdCErm9No1jEg+zK1HieHxdv2bU749Ros4jtSjHEQ9On92+Pso2kQ+AiCHKYOQQJKgyQrxrVwck1pnM5SLCI++16NhgMoOMQkje86vMYYkICxSIeaNeSwZtSo5+nhvvzcTXcJJs3PtKE+mHp48mrxKpJI+mi7gN2L8s41ApikkWtAsMZ3vXPm6HiNAo/rq5ahfucCsK/35pOr1YNzEUsynj/xoE3kv47uwL75ZdmtyH/ogN/EMnmjQ/0afiQ9On9yesXO5lWTAdK1rY8NFnUuoaEiO8Fps6hziXpi9hrVwwmNicNRuoZvMrr5EFYoJfWhwkJzJhVPFaGz9+cXTuW6Kd2fUffmg5H3z+8frXTSIpr0/AaDY3YiojB5RGMpAfwu4HoaJMCPAcThmmfXVtwBF/KMKMNAjwSws/BFIt4uF2RU1LCHoLajRzX1GVq5iax6wm9vB6KICd3VN7dga7amLvHAH8m1Eo2VHkhOFlCxUmzNRickejNvSfrGT5aL+ZL/F6i6KxEBrj0jenhwv/bjVBfzjr5NsSuwPGbRcw1Hb2ll9eD0HfItG4bSUmoNaiyzlIQMvlTRLAIVq0vbjx7PZsQPLiZhFrvPVmnV1fNvsCqXpkXJQsRMfSN6eHCvc12ZKzlYh5D7MtrZZjY9fUxvbwegt683cEizod4UWvNQfI2ekNurQx+Dy7DHFa3GqvB9GoA0ZvVvV/BMG3FZ2vhElNMYWDqeCJE213+SyhHDxUJFXOgxKivWfZ5Sg3Tvqbnr89vPp7ksQjTwM0OQjbUKstoydkm/NXwdLi0npKu7+ae4c2qcNbCq3HmLsv7apUd40WtB7xO7nc25YhAbLaLeQwRAsNi/Rc1TN+anrsg1Ppyp+t7gUOtkkVq09qg9GhFLmeEi5/Xns5MmldX+7CI2MfkcjuB4aA3hFCrNYOTlX4D/7e34R7QKm7jtl0FNgS7UlDiIETKXbLJm3KAa7mXKGkkBSWh1priRfBYLEK5yxluYtp3siZgxKorj0UFjlaRc+kL02+8DbM+r6/nObsCI6ZVgvL5kNr1AATDm3Im1Lq4ht40peYI6cYLIhxqxdzg5ufPa3U8h67vHwM8Z91r1+bgx9VgtBS9m2GkSIxMsIgDXib3W6CEUDN5Q8J2zVH+c86M8D+zWLT/5Rnr87cP21Ar2SYX+fgQbGOCIeUiSKgVR1PL5YhnrQYOtQ5yoda80ulNc1VEY101fUXkLESxiN+ya4nn+dJs1M1Tw8UxHw4XCdf0F9Vz1fvjTKiVrNGIL61ydlOrAKwg44jB8GbjQ+By1RrEePA+uzZhejO9mMNfpTopoRAE2kj6e3aVjKrKytiuuc9h1/BSu76lhRLPVF/en2SwCHJr9aps3EiaxSIYa8wafr3u8ZzQbQ7iNRp7sIjmGdxum5d9xNmB5ys1h9FoqPW3hARhrCtg137erv3+UveHKYb4/S+qZyhI3mS+g4d4jUbIi9xySzAkLD9yeqQonpfk7mmm6/v+FyYYyRbArIbnqzYNtf4JCcK6Z5g9odvp5Ow6YnrmcDOMMUQ6yXmO+vYWGKZsXcSwDBTTup1tdkBIIMgh3Ixuyrw0X7WuMB98HxaRchFg6osOqvBB3dSltibLdND6+3Z1arYqok7erqOJUOGH17Fdj79SDPHZ6fvXdxBqzXZ94+QN527XlaeLWmuG6XkBbwNOs2o9YHizIoPW5mVRcEuioip6yWkjWsX0B4SQK4m8yBRv21UeK+fJx/ARzdA9N+FG0syiVqCYYogJ4UFLG5SWuyzHIuw324RVfGkF7Ld1X/DmNBa4dTq4LFoiH3g+z1qIhlr/GOS/7vHicg5+zdl15tr1TUINn1AM8VkJkjfH2VDrsO4BHiyRjRe7oVZJN72yB5QvakxWJFNDDLkPiyj0Zy5r87whspzD0OnNn6MQ3VpVtGaNbm6H+mS2FKNFQg0f0b6mZ6QvX/Gi1kyoFYhDeA4m7d6IyWARWpsz6oBF+CVhMiBrNMCQe+0KWMR0glgTxgp8zUUaDbX+SbVLiu7IjX7OrqM5Yj2A/GNqmE5en4++Q7nLTqgVOkftioMzrUI21EruSV753NTX2qgwJRH0fdEbEmoFPNjq8b7H2zUHXC/QJqY/KMQp+liY50Y53X5DLvkpNfyCLsp5Lvr27vj1qx0soh7ATLQt74ZaNZlxe3BpvQ5spzFJC0n3vjG1BldXhREjqmHE96RkmxwNtf45IUFSbK49H+XtWpxJKtxrksnrX1TPQm/evdjt+q6XTbvigj93FrUixirpZh1ycr12EbCIZFHr/lDrWQH6IljTC9Teuq1pFIv4w0Ly2LAr1mzSz2FNxfmaj1K7ntBJzjPQZ9iB/ovmjxtJQ9WAJiaEtdP1XbJ9eIHyRWd2WSBH616Wn4Razy5mjmiaJvxQi2IRjyBBGxsGu75lV5BleOeLxK4UQ3z6+vTh6OXO0QrJG1WM12hsu77BroxTUSDUugh6aNSEPM0+LIL4GG6tg8JIk6reJlQqcLJqiKHBmz9v17VtiJJ20b9FDbf14HyTgBIUQ3zqgqOV7EAnItObKODF0prkbX6Vu4B122sWvzB5KgvfXM0k1LrHrpiLGFx2BEnEfRHJOjlq1z8vQXNEW+fk23YdIdasp1wTxRCfuL5/eJliESAcah0GRsUV5Fl2jYYMh6LT829+/txUnXnz6sePvVgE0dkUpjddS482w8heM/TS+lgCu/ZsvZazK6g/kSt8alc6eH3aglBrSjElXETkKz3JzdRyIyQQ5JBVvKjuKdAIdIGBhzNix/2NpJcNxNm8aRrwIEyxiEcTkl1Wt1k0um1XTVLKiV1ff6SX16erz19PjrZdTDC8uV6Eqji2BDm7Tk7WZnJbMqIN7EBnUX81TUOt+xtJf7QuZpwZDkOFdZBAsYjHE9i1IhoiM+rm7XoxWxvRTWLXD/Ty+mT15evJdkEVVj0KFHbcRpnoDQK1LTha/XoUGpLch2R53PV9X/48nt2cnV4UkWR4gW9UHLyplTYxPZqQbHGiYi8hQpe369wVw+thHd92Xr2jX8NPVN/fv4MnpkwjaT00q6K0TPeVb4c3nK6GkMvRx/IIwN8k1HqPXQkWMb0qTOZtzlZVUwc8mA5vHldIwAsUFBfPbnIfw402G2xiu748phjik9TnN++O0pM1WVEVVPUKDrXK21BrfGk1/LBe5nvL4uUAb2o93YdFFMiz8aqDxj3FxP8EIPih9Dn4UYWE5Zrl+fG80b1lV1QyF7FdX7ymXNMT1Kf3H05S5DBZ1GoqPclZ7oRaZTArJ6rw5+zbHOpMCg9qJI3bgy/ny4rCq4pYGVvx+ldq18cUQm23xqsl+RY1PCpqYx4AcGLXl8d/UT01vU+qXdKgHExZTJ1zBU3LtIcigPCXkuFB13fZcIun0Eg6jdfJ3Tu8gaN1MG1dNsaKt6gHhsTIc40Obx5duDarovo1NO/3O3lq2FUwNVwnj030afiJ6dPXk+2CKlLt4ql2bbxkkkLCpOs7XqMRnoc+JD26q7MBvrXusWvS9d3XHFYx8aLWsYV31FG7Pr4Qw3C837Nmo3yGrjNf2lE9sesrWijxpPTp42t4Dk5FQq2ewq5x1oZYldgV4UbSJacMcde3pF1CnmaAZzeFfXZtTuEQhjqvAJhyQ1omAQH6xvT4QghJvI8zjaNOjhouItGrL4axXWmhxFMShFpfZj6DSagVdybh05TZ6frmdNWrR6rozicEi9jH8qdcxGjuAnHo8zpnIZmerP+bkDBWfJsTsF1zfhVYv7xJ7EoxxKejN2+P4Ts4E2pd1D2YiW5ruUGIhFod0Tz/uQl0q3jRAjUL+0KtqxU8MeFG0iUE7Dy+N2YQ7fr+P4Vkx/ANFt2ya7evldToOrErHbw+FX1+c/JrQdV2CXrJYm6FWp2KbcJSHJ9luk3wYGsfFkGGNwBGnI5mVs8PPJ4FPphiEf+rkOzapiIyebvC2/BMqobXC2LXl7S89G/2znU7bSOKwkl8SeImTRvLCBiEEeImJBhAdxBIAskyloHY7/8wPSMJG+S2uD+wsTt7rbZeq4n/7TWaOd/e520oqU175CKWJNTqFNxsqFVEHmv68AJlSV7lptpLQ6077FojDf5DfW5YVmCWFJuuQH9pId2WNMG05ad2ncxN/y61Ky0vfRM6/3qyjt6kodayT3pYcCbUKjbcUjFa3vV9TpTrkKd5BhZBmENoORxithj1faHAYJ1iES8tsCtXFIquLGftOqx40oNdv9K3psPXH799PTnabCQFqLAo8W4DEa27vsG5tiJpPtl5U5pNri/iFVU77Qon66h2nWN4Q7M0gI5JqJViES8thGclU9Dmzad2zc3aYWrXj2d0y+vB6/wsD3psJIWlN4HJ2kh/3NRKIpPjsagY0f39fdd0KySqWt+NRcD/7f36dVutuCa8XfmGwox1eml9BYFdWUOwOpXWE7s2mVJwN00wREoNH7pIX8QmFtHN+4AcKl5ay/04vPE6bTX0F+BkRB6Ee/VnYBHwx2pXgwnDO0KgmfGSOtpI+hpCuKG0hZAdE8g/a9eCtUrtekzr1Q5av3//fPIARsQnaz5QwVZ4s5ZbxFhvuJwQdae+2cGti1E8ad2NRQBA8euyyZSKAVDHpZhhYmgj6WsIiQy8OvgcrsDS9IxdEaut1lX+x/St6XD14+f306OPm13fSRPTk02tJNNq+XDssrPxAKLlvfquS2uavLluiQpnCkVVYl3yS+mGqtcRoYZ51W8z45actavYEZYPVf40oX6oOv9OuIitUKsvSLxHEIatUCtDTlY4dwUeN6+qz2okvSIsf686QAUzBIaJjRfp0HVyryeEGooZGZ6eteughZVimngFv1Ku6UD15QwO1q1QK/kOns/An49cRLKoVdLy/VW+yOtXtdvb0c4FVfDvZFFrhSlZ/gLgNxtj2pv2qkIIuU5kKiL4M2NX3VOnyekKolzTQQqSN4BFbHV9x7sfmS0uAouizRsW/AFIu4mtG7LLBpI3u+xaJZ/L1xMY9VmhYBTcBu2LeHUhZBuRyjLNbbs25dZ45nRBiV3pJOcQ9efZRqi1250uuwvNSA/BRqK4kRQ1eNNf3S/zUqNZJSfrJWjnEvRa77Z+Ne6Y0TQfSh7CdFHr6wuJM8kvcrPmMGvXCZLKD3b9/oHq0HROjtbtUKtgwBqNpJG08bipdcY6Vh7OXcnVB1dxE9NOu1ZrMOO5krHLFUmolZ3TRa0HIYQb7UAwvKxdW80K5qIy2XtE9I0m1A9Mv38le1rXgpN12Q/VkocSODAVEnUdzzrC9O5+KXTGZP9qPGjdaVc4WX/1ZEZa9PuR02mMdUxDrYcghBnOEsx5btjKRuh0Nlys7fqVPg0flmB4s/EZTI7WUJAy28rJC1PDhaPVh8Rr254M61AX8dxQKyRv5oYQWkUpCbVSiukQhDAqCYLQqQyydm1NOlo0naZbIyk1fEj6bTPU2o1DraHDeqK4mT+Nb5uKZPXvp5HENG8InPSMUOslPDH96lWbNvxNSAi44Hq6qPVQBHblVUFjx1lquCnn5kX/wa50knM4+gN60x7XaMShVp88MSF9q+sbfpyXzCDfn2ocI1d7z8MiyNFavZTHnqSFpDKGYhGHJLBrxyhaJb31xK5NzwmXy3RrJJ3kHIogeQNufWwkXfaTcpcZAj2erBijOcTkYDOkJdnNm/iF6TmNpCOoGZax4miB5UAnMcUiDkpIJM3OYRs3M9QwTHZmUkDtemiCUOsai1ivqPKLbaUhPtZyJzT/bN4WFqtVNyiJA8B+R7sWVKVHaw9urahQzMNv5RENtR6YkIhcQMwklKWGmwMZcdbarqd08HoQikOtm7Vp5ShQATlsIHGjLkLEjMcbWpiPfLVAQq0EjHjGgqoe8eqEUSRN0whtgRANtR6YCJ7m+M5snJMzdh2IvDBN7XpCJzmHoC+nH7dCrf31pVUXN0OtOrZZWEm2WoUwobsY/SLE4a4l6PAh3INS8AFWHBgIBJKCxlhE1KkHJoRmruGbrp6TWxm76nO1v0wwxOMzmsl5bf04/+3r8ceN4U0ZiEOpkAm1wo8NhTOtMLTMArDgN+T7dvellcxuLm4qjU7bMVUnKfumjaSHJxLKkXy1gyqDrF3HtlNOI3RHJ3SS87r648/Tk6ONUCtwEQtNUtKUHGjd9Y1nihNN76ZaCQ0uobMlCbXuoph6cAZfTzpWlI+fg8UkgE6/gw9O4Nc26e2pDOXtl2F5gtoLSE8mETp6eX1VAcz/wPKXHxe1zoixRLQxvIHkjRBC4tVUdDl55901vUmGNxfDHMOaQSA4pSTPQ816kEIIcYHQ9iZP7FrBJX9NDX+k1PDrCRims/SFKW0kjZ+DO7O47HsTi0BzTsjfLbtFRR9Uk+HNbiwCiMNeVYa6iEUgSJ0kzkPP1kOVKBYswVAm1/J2/0srN2aDcjfFEGld0+vpS7qgKuUiQJFlltzGJsGAiMh78KK/ilRlclO/Jd/BO16D0yXo1WFlxml+XpMUBmNMJ60HLBGzmmDy46GcafLPVTraApiZhBr+QPU6Ov8Gbs2GWtNa7sRYaSOpxzthvt8NHEVvXdbjRa077VqF2219OPbaxSAkeDCtizh0YcxD13BJz0L+ILfod6epXWm72uvot8+bjaRdwEIXmsTPxCR/CkrgNIxmBTVa3S2jNtOqj3ZgEQ8+roNbr/SOmocWijaZCNGU3IFLxB1TENpiBvIni3JsM+ymk1c6yXkVnf95dpxPFXMRJNRaSEKtW2s07IIZkIU4bRJqrT871FqDUOu8rWmQvGEJzU/rIg5dGM8NVZOQ/MSug4YUdJf9BEOkk5yX1/nZ0afNUCtQK6FaeMQimDTUOsYNXpve3/eLyuQKaAdgmK52hVqv4lBrrcUYUOHkOx1Gp6HWtyARu5xpOY1WM0P5y0PEad1VYtdTmsl5af34+e1kzfJvhFo9BuGHUCuKa9MgeWNFQDiVmMp1LTlad2daQTcyViQSam13bIRpbdpbkIg91rFMm1RIbNv1GrPC2q4ndA3dy+oHwYM/bQxvVuQVibXFdS13UpsGBy3DQ3TqbupzqAnc7/OwiFq8Lb3iGmE+FDiPIRMhuqj1LQiJdsewiu4kl7Hr4FrvqOW1XekauhcVUEzHjycrUcoH40yodaZwJNRaFgri8OKZodYa6OKmNZ47WhjASIi8K9PozdsQEmdu2xIUvSK3MnYdu04+LRs+pgn1lxNATGenR582hzeLpNxlo5A0/ia2OxCTK0PilWNaV7247PtZWASsk0MdQwg1p5D+Uhq9eRtCqGFzlsaiSeZtWIaSWSlK7XpEM3Qvp59fj/MbXAQpOdQcTmEyoVbItBYcLYIrrdPBQ9KGVt2JRSS31it5bJfMMAxNGAmNMb20viEhhiloGjfLghLycIJKIYH8y2RPDuWaXki//3Z28mmzkTSyVIlV7Mb2DnQMAXTNj4CZYG29eX0BZ2t1NxZBQq1QzM9LZtF02iyhLWgj6dsSQrxmSXM9iyEOKpi3yK2pTCD/sw9UL6GfQBxu88GWwXoIbzQxxU9MeC4Fq/u7ruNVyP7VUa16tSPUCqoRgGKimFEXjmTe1uGXUqu+MSHcESyH168H23aVc2NFeOgGP/1A9QL6CQXCGydrOV2jkdL8j13fCleMFovA6aAWGd70artDrTH0fzOZlYoaUOIloPlFGmp9exKxogKGKl4PstTwxFMX5X5qV1oo8QL6crTZSLqaLrR2wvJvhloBi+iY0fK+r7F4WL0d/YdG0qsJGyyWvlmwxZjlp9ObNydRn5taUUJP7NrMzRy/PE3sekInOfvX71+3Qq1RAEcrg2K3boZaeUnwuwvfcMfDWj1263MWtdYvh5MGa4aWZvAebSR9qxJ11xAEpzGUm9lucCQF5WWSoaOFEvvX+dnx5qU1SaBnu76R0gbYbNlVFf0ano7iTOtOu8KltVdvNkqaH2rt+YwGb96uRN1rq4JpD7Ld4C1Z5KzyKrHrMR287l3f1n3fSaiVDEVTggGUHq0ub1iLad9X3dxN73aUYhE7Lq01wIiHFVsSokiQFBFj2kj6ZoV0GMIJgiu3snYd6KyQX9uVdg3vW+efPz50kkaBCcmbrWYHJGLk8SZcT8qW4epytRaHWnfatQah1tpg7MZ4sERemBCijaRvVgjbvCFoCsm4ZiavY0Vd3E0Tu36nl9f96vzb8UPPIRiSb4hbjaTkQdgrqdHdahlySI5X2VzsxCJAZK/yEPMqDOQ0zkMUi3jbQnimtAWrMwG/Zrkm14lSux59o5fX/er76aeEY5p2fYFzSRXT5tEqil7BDKFUDZj8MbQckq7vnXaNZzyXTSAONc1S27zH0EbSNy4kNlxOCFi90spiiHDd8VeJXT+d0a/hveqPkxQ77K/KAmdPNvKn8B9Rx5jX+vf33aLbvBz9uu0RLGKXXcnw5teFbKuL6QpQRZGEWunw5m2LjAZYISyJk5bc3LZrjuHC9O766ZRiiHvVl6P0TZh8s7qM/rBUNUEj0LwtRHlfYFHuphZvan1OqLV2cd0SFUkL4GhVbFGkw5u3L8TM+GLYno3lbbu2hjnEWink//H48weq/ennt09p4/fCkrzYWA1QYlfCMRmL/jQsIbneg0nr87CI297FQHel0A+FksdgkU5v3oMQYhTVN+ZYHmzbddDEijBN7frphCbU96hvZAFOvFUuMHgmfWNaj1vjxcrTqJhQTKP6vzUxPSZvINOqA1KhWoJT8pCo076I9yGEXBOQb/TUrmPPTCB/8OsRxRD3p9+Pj1KaqVwkKXTEPNqV7Ak04TPZQfJVPQm17rIrCbXWZdRxNE1zuLjsm/ZFvBch7DmB2mYydm3KzUnDeKCGP55/oNqXvqxppnJkeCjdpJFSwhjZJf+urHnXo9vbOhjyWcjhTYvhBH8RCJyHMD1Z35EQtiWr6NjyoJWlhlEbxvL9xK6Ua9qf/kx3VfUXATfbnrUgPCsUy3eq3azdAnO4u4kJbrc1UsxvBuQzmOyoQ7SR9B0J4VlbE1S3OchSw01cChZru9JJzt7049u6nJS8/WK0nZiaq/DMxF/Xb29r/5JpXYPDtdFodAmAC9xiAmmOxuRkpU59R0K4USoSrilLDTflMa8tlqldaf/L3nT+NbVrHyKsW3YlB2Mp7IcmqvZIcdoOu1brwE8MJzYnaAGEWucxbMFQu74nIcywJnBNlad2nSjFaDlN19DRp+F96bfPa7tqnCtu2RUzrtNfqXbrdgRm/Ve7Xl3EodaLcUkrQ6iVXy+oonZ9V0KY4Y1iwE+eQv451wGuqRvblZaX7ks/vp+mbH+3yHpbdhV1ryD0u6XJzaj3zzm5jdo0EmpVrTTUSrmIdygy12urATvOQv4wyrGlcLXea0XfmvakP76epGOchUngoy27Kk7QDe2baq++w671WziAczMuACyCm89EGmp9nwK7ksUNrJ7L2nUI0wBrbdfP9PK6J/3++TiJ4pR9w20gtL3Q0/IjE5N56783ksLZejmYuIa28IW2K9LhzbsVST07VgFXntoV8dpymoASp9/o5XU/Oj85SuyaDyWbQdsvTe1oobE5YPr/LXoDw5tbIA4VQ/CtIuDBjEiHN+9WiLGBciuIkyd2lQmGmNr1+DPlmvaitK0UeBQydd20K/zYcPoLxx78enpz3QCH4wJhWWSh078slFxRp6HWdyzEkJLpEsouymkNZN0z+/3ErkcnlGvaj74cpXaNLI5BW3adeerU58SbjF0zi1rr1ZsKWaNhWWYbkEPa9f3e5XEaN9Mzdm0OWuOZ80gN04T6fvQlLhfugl210pZdRdFWhGWoVC7Brk+tSv6JF7WObipz1Z/2Q0fBJNTaoNUu71poBnb1cE7OUMOtCZLySTU4iHJN+9GXuFOt/MSuiFRICFPLa10ALJzVenhTS5I3RUEwuTTUSu36vgXojCApKJelhlsVXPLLa7vSp+FU+/kYJvWHXIPZsitcUvoCM6yOav+MRVRcSfMtoa3YaWEMtev7FhIRKxhsIzdsZanhCR8s4PaaJ/r+gSrVPp6aYOwatGebdsWiYlhdVYSpa+3v+yIubnKikuTkSCkxppfW/4HArnzR4Oyndm3lFCHqp5NX2v+yH52fHq3nrpLX2LJrx7HKJr6q1qtZu14BRDyqtRBbDPzAYV0G0VDr/0R/sXdujYniYADd3qedzs50h4oScKTxQriK3C0KCJRSajv7///MiuIuxH3liZynvuupkJx8ARri3UAMR6Wu2JnXyE2Out6SnZwabWQSRRDGTV1drx/Yla7YaP75+G0Wi3BbZCa9v6iVHL3pBvt/44FjrE91lWMn1T8Out6RnRyMNiJEgEBD1+OvK36sdfwoTFkz86AzyPcXtZKjNx0BIGRIjqusFriuiwXFeUddb0g13A4Px8R/yPARQgB/GH4r5axRdkzPjwsQ9NWNx+XI1hAgz8DdAYFcdEzalk90XaIB1D/1fsn1A8kQW+HLXaWrWjZJWk1XQ/JUBiwfsaWmsmOSp5xXQIcOp2TWd8fY6co5kNWE2YmumsKo1a/rFTlD1w4/bw+6bnRPzGu6IhRylm7Fi8fn5r5rmTKtnGybsJpma4Bs3XQLAMKBY4lgNpvhutqhe9T18o50Ta3w4/7faRKOAeq6RjTceOHsF5ZJjMdPvwCTWUFuaxoi98l1DAAi3vGc6egkQ1ysfKe/qarha/Ly2g7fKl03mcvvdK1HiMwmU9YvWIQ4mbwsIi+V8v1IYnKfXMdAwDecNPDXuK7yYg3Eoor8zy9I19QODwdd9U1i0gDVsqY4NDfJwH471VUOPY/1gUZ2b7oHAHEopWZu97DFpp2uiM2qavjsnIQS7fD1OLi0gCxV0xVMfVcvRPCK6TqevCx9aHHhlOjaQcrvhZgxChphWzmCPLJ571gNn93+QWiDL2dHXT2u1kmUfzlqEfiLE10f3yjTkhRfIxNeOgigKC6DgykeSuwqxLUBt6pehRJ/ENrg5/nZUVfRB6AxTWJbMMrsHV8ZfnrSHBiwkYYoQucAALCeJUarpYxH/mWGqFYZIhko0Q4/qjM5+jaTIlD3VWOzxOJGz5OTfdeVCE0nt4muXaSc4WU5xupVxnZeBXnqZOpHFUqQDLEVvl9fnlW6OmWsX/9YrCx17Pn4CdP1fTQwoWsQXTsJsnloubSN69oTFoDzhpWuZCenJW6v97qq/QTT1VaYNDHReIz5Ov8tKK4FFaJrJ0G2Ylomh050lZfaAA6rDPGKDJRoh4eb84OuRZBPG7rmgVdY013kP8Z0lUPHsniiaycp509DKIHlia6vO5H7la6X38jLayt8uT3oOty6Slx7eUV2KFr9NHp9PNF1GXOWR5Olpk6C7FAyrWC6EGa4rqvc3R51vSUZYiv8eX++r4aH++uYUU3XiIXDxJBf5pOnpq6vaGClLLlWo5MgO+Jcy/WF/9E1dIpPfViGTRd35Gm4Fb4/XJS6DlUdDqJ6hmj7vDnc8r235+Zg8Mn720qBGUdu1ugkSPPpwGLCcusG03UdSUddz6/JvKZ2+HrQVS/Pr9Z0BVpsBMMhu3o90fVlFJqZOKWIrx0EaL4iedAoq2FcV19MPipdL0ko0Q5fLitdU8mg6rpOQ6evSmj5/tzU9fmXELuZFMXk97WDABTnYrnSOMKr4eU65o66np1f/0Fog5+Vrh+Zo1B2LfKnfKmvBlMZ03U8f1wCJ3Nyn+jaQcpqmLXKi3JOdB1RXHbQdcclGSjRCn9eHqrhj8SlKa1eDcdcoZr5DNN1N73pzZbSgI+Irl0EUFPa8rjpaiHPMF3BIN38qyvZyWmFH0ddC4aNtcatVoNEhfzoGdN1l02sOc9lQ0S2cjoIAICHqRTZmK7Csod4T1ePupIMsR2uzypdLc5v6Ap4r2+J9nyOZYjj8Yy2TMkgV6R3EoAMJnUUbbnArqHr2QZUVbXSlWy8tsPdxVmp62brSSECjY8FFqmLxvhk8PFcNhjT5BE5Q9dFgJa7nssCTNeZ3FtHbnk/2l5Xcg1dS3y72ndNm34W5M0zOaGbZVb8iFfDk/dl5DIWTXTtJEALA8uUqAWmqzAbTZ1kuKl0JZF/O3y9uSh11YeFqVANXSPJS5Lwbff0i+n6NpWYlAVE1y4C7EiC0PWxd9eymwBi2v/QD7qSrKkdft5fHqrhPqRjCtS7Jg4WfWXxC3scnvx+QRyTiIC8u3aR8nvBQBjJmK49QdYG1vaT6NoqP75d7XQtfbVYvz6vyY5ps1AHs5cJpuv7o82bhUQRXbsI0GLWhVY+E3BdFysebj83B13JJP+W+FrpqqZc2OyalCDZiOvXyRzXdZ27W4lkTZ1kpyvvwFQZ4dWwsFwbbvH3QddzcoSuJf66riL/TDKmdV2pXEo+HHsxad7JPH5+6sXO1olINdxFAJoaIszoVe9E11HkJEddyRG6lvh5c9B1kwRKbKNahhhy2adLybiu8ycZSNsgjImvHQQgKmdhwmqjGZ4h9mIxO+pKjtC1xI+bapR/4dJNXf1B9mlGvck7ruvS5rau4hNdOwgAVEQzCQfWgoB1TTOK9T43h8j/mowGb4fvd/0S/WPLsH5NVwBi3vuEynr8Psar4RG9czukyNtrBwFUrJiFFNuCjOuKeOt4Jufy5g9CK9xWuvYtLrJR/d+oYX1YrI3rOh7/EpTE5HKyNtxFAKByt3BCTcAzxJmWM8fI/+KKrDW1w/3Z4WF46EmhVtcV5FD3JPD4PG5Ww09Pizw1JYUioUQXASAKEpcHwkLAdF1Frq4e77Uil7y2w7ezs4OuaZBrqPGxmMPUjF+eT+5kfossxqWJrp0EIN9JTJYSlkKzGp6tp85wWOpaQpaG2+Hr5flB18xUEACNj6XIvHw5warh8fwXZTIMNyW6dhGgxVLKSP5sKeDVMBKLYRX590k13A5/3VyWuupqAelm5D8V0yzh5TGu6/MYOaYnxUTXLgI0ivOgG/YWAl4N22y21fWDrmQnpx3+vL/aH3lVtx47pUA9lGBhNuR6+KGc8fPE5tzUIdfQdZL99wJCZXSiq7BWrGJTXUNH7mRuh+8P16Wu6nCYio1qWAO8m+nO6u1pgnVN87USZG5EdO0i++8FtGh8XFNvJo9yM9lU19Ddk2q4Hb7clLruSKQwbuhqSOmHqy2f5rius0hKzJBs5HQRoAHFYVLWFrAMcbaYRUH28XHQ9ZYsDbfDz7v+ofIvAiPWUO1jCTnvk6Hkp+cJpqtAiYlpANJJdBCAQM6ZGaf1TnQVYik96npH1pra4cftQVe97/J+TVcEItr7tPzZY/NW5qf5fGGzCaNQJEPsIACBcOAmEthVw7OmrjLFekddb8jLa0vcV7oOmUGkaeC/j8VXrE/PWP/CdJ1MXkd8BnmfZIhdBIBIcRMnXvVkXFfEw02l6zV5eW2JbwddN6rFhVp92HCcw8+Utl9+47q+CUYK2XBK3l47CABx6BRuaJ/outByU6+Wmi7vyMtrOzxUZ3JUT8obulKR+ZFx4G2na51dNbyMLCgaMdG1gwBAlV2TgXoLAft1tX139zU6VMPXpGtqh6+VrnrqGAjVdfVdPZOmr7uHYWw2+EsMocSTnddOAsBUShiaGi1xXVeU09cPup6ReU0t8eX87KBr5ioIgfrH4qhZ4C9xXXe+AhMGLNG1kwAAuAxy/mgpN/dd5TUSC1VV97qekbWmdvjr4vyga8LQoKErkLapGy5KXbG3Vy2AphjZ5OaNLoIAl0IpXGO6CsLIZrNhqWsJueS1Hf68uthXw3phsVQj8kdckpqGfKLr/HklmdAJia6dBKGBBwNltdO16WtvzXt9vcoQyUCJdvh+e6yGUzEGANR0ZT0PKsLzia7v64FruTnRtZMgjYfQpG1c1103YcDiqOvtH4RWeNhniKraT6SIAqDxsVgWPZuf6Pp7ZjgeYxBdO4mmKSaEnHYa+QuRmxy3cu7IQIl2+HJ3tt95HW6DvP7zijTFhR43moyfcF1lX/SgQpaaOgnSDMe0JHAa+S9iJ9U/9EPXRG6NbIc/70tdS19NxQeopmsuMamzKpeCsYfhBWA9jyZVUydBWsi5XkDN8GpYXgLO0j8Pul6Targdvn+rdFUhHTV0DVkzc9HL0wTX9dXmLW9AquEuAgCK6CB1/dNq+FXjoVrpevVAnobb4eGgq65bXAhqXRPy+SBhqOXjHLuG7vltlMOUi0k13EUA8g0nNcNV70RX2zCHR13vSYbYDl93uu5vZfZEo6FrnDsF9OUXbG14Mn+RfSYVQ3JTThcpq2ExhYY9kgVM11UY9Kthw5d3JENshy9HXVNHqesKppFUeMbo7R2rhie/lpTrSYZPquEOUuapnGfRYI2tDcuv61gqymp4WFbDJENsh5/ne103H5nLU43IPxaTlLdff89PqmEt8ByaDIDpJICiWM9ip1jX1JOXa8Al+kHX80vSNbXDn/tqeKh/JMyg1LXmK5ekLFj+njfXmnasJCvgQo3svHYQAABteWK4wnVdjBCdVrPBz85JKNEOPy4Oum4KyDVOxQHEZpnkL3a6Yj+vkxEHXSknunYSoPGW5yj2a1NXQR7ZijXc67qDXJTTEtc7X0tdt57oN3TVaC8NcqHUFVtsmvGm6xhE104CNAV6Lq1hus7k3jqHfbWaDX5NBkq0w91VqauqbzMnBKC+Ia5Yqcv3TnV9l43AdImu3QTZhmmZHMJ1FWYj3y3UTaUr2Xhth28353td+0mQN6ph22A8yK3fT3VdRJJrKkTXf9g79+00kTgAb+6XNm23S0QZMCIKjIAodwwKCAQJNWnf/2U2CHZh3H85e84y3yvgd4SZb+bXSaCVFScoQaErUvnzdjp8W5a64gyxHW7vLg6R/3BvKI1q2Mp807StxRTRdfFzR9AOpeDIv5NAK5AMQwIrWeg1EGXAuEddr3CG2A5fHi7KyH/IkR4BQf2xcC4FJpPxGNH1FbI+xeJ/104CrZDxHYk41VVTSa7/Xup6iTdeW+LTZVUNm0xAqKD+WKjUjZ7GkzHyMvyyzmwO69pNgOoNbMfmNRHRVV6tFWP/vi11fcAZYjvcXpW6bhNJb+jq0UYcB7unKVoNv4y8GUfiqqmTfOjKznw7KiJEtGsK7PxXqevFHc4Q2+GvUtflNrWVuq6qRzr5XpFfplNkDN2TCBhugI/kdBIAI532fU8QBFTXkTeLq5fhi3v8NtwOXypd32KH5S34j66R4u+Hg97rYtHUdfqoqTRHRwSmgwAQZQPfD0Y9VNdVj2DSStfza3xfUzt8u+6XGWJuDCIL1mYy6/Z+yaxXiK7j6eNuzVJMgH3tJIAPWdvR1yNBQHUFpFudyTm7xF1TO3w96rrnGM+qz2QOpHxpQ+35eYJG/j3dYPQQvw53EUBEum0o6kYUkZXhnqpzVeR/dn6Fu6aC9nTtm7OwfuKV8Jh860RioStS+cuZMyMDrGtHyWyDJNaiKDR1FazAmM+PV/njrqkdKl23fdfOYOMIHR0vDb23QHR9HE+10JcYHevaSQAIJYr2LBmZayULm8j/XQ2f466pHW4Ous63w9SpzVkuXGSTJUduTnSdLHaeb0s6wHs5XQRAb0YxmYrqKgojQsqHR13xTk473J8ddF0OY4Ot6UoAoJhzU7Kmp7q+Rrbvs1jXTgLUD10lFsoaqqsAmbS/LdeGz3CG2A5352elrjlH8rXKHwCd67sOGC9QXZ8LXR0W4AslughQI4ayaaBpAno3uDVw92+VrnjjtR0eLs/Larjv0vVqGMDAiRPTe5lOxoiuL4TtcAOsaycpdDX8GS9rJ5H/WuHyKkPEY+ha4tNNGfnPh8ks5FVQe+mxkzTOdpOTavgJSIbLEFjXLnLQ1fG9U121UebER10/46XhVvh+d4z8Y1uPVFh/LFw8ZOVHxNfpj0eVMdIZ1rWTAJWnHcMIBPlE155np+/b+UFXXA23w7eHKvJf5o7i1bsmgjTiLdN7mUwRXcdr1smlCC81dZEPXUmfMvXeia4rgWfco643+G24HT5d9wvm275BNnVV7PhdWu8mzcWmyY/JKPD3vodvBu8iQCVYm0rYjXiiqwhY80PXQ9eEq+GW+H5T6TrkmLCuK8hm6S8fapPnpq7PEyGS9k6Ade0iABL6jIoHVk8QUF1VnXorde1f3uCP11b4cn/U1ZSCmq4QhHTyy+BFVNfFRIazvZPxuGvqIAASAW3kDBwJaDUsWqGzXJa6XlziE+qt8O2u0nXu2rpa19Uj3V9cMBo3J2+MF5PVms4NxcO6dhAAiJA1colYo2PoZHEd2f9Uw3itqR1+65o6igrrRxsV95eprFFdp5PXHhsbZIDH0HWR4kyOs7c9S5BRXTdA6n/4irumNvl81DU2WNgYvJFx7y6tPiK6TiZPsp5SjM7jteEOAgBRrDRmqqCJzQxRHKlMWQ0X4K6pHR5KXZfzmCMBAPW3HuotkYiXH1N0rtUudCmJ5fHOaxcBwLP3DgsQXYulpzWZ7JfLUle8k9MOf56dlbrm3KAZ+XvOMjW8HRL5F3+vEUf5gwjr2kUAiKTcoKPeCtVV2ChmvtzO+wV4DF073F6eV7qaNFHXFUZ2PzV17STyn46BQRmMh3XtIgASs5iTQlTXniD2Mio+6voZXyjRCt+vL0pd9y5NEAA0HkuakCIa+Y8XU9U3OMmzsK4dBKiASTg/G53oKguhk27fSl3v8E5OK3y5u+ofJm/sEyaq66oC2k1zZjRG7gYfPy/WjOP6eCZzJwEqGJicoWxOdRU9Oznqeo93clrh68N1qWs/nXkNXSFrJEN7/TRG7xp+3pB+4gRY1y5S/C4ojiPX2omuMi/91vUaLw23w+1NqeswtoOooatuu0sD7pAj6uPnZyGQEiPDGzldBKhQ8SmXUWUkGxY0mZi5R12v8Bm6dvjrrl8eed07ugdh7bEEjLk1I/nxeYroKhNMwik4k+giAMKMMRIJCAKqqwYY86jr5T2+Xq0Vvn0udV0ODdaDEPzzWEKWe3MD4QnNEJ81i0w4lsAZYheBICCd1OZHaIaoaZDklpWuF3hsZEs8VLrOuUEIa4NyoKdzb6myefm5aOq62I0U1xxEWNcuAoCn+KnjrXsyqquqUEddzy5wKNEOf1Zd09JkgpquAESBsY0H6iui63T6KgamyYQ4Q+wixe/CTo3M6skioquVOfO3+bCshvGR13b4VFXDS1fSG7oSnrOMZ2D3c4F0Ek8rjzNnOr5RoosAwHtSSilwpKG6rj17uK107d/9gWmD20rXbeorTV15e577noboOp48vhCGabO4a+oqTMoNCCSUEGRtTUj75VHX+z8wbfD97KzS1WBB41AOkPq5oYunkf8Y+pxP41CiiwACADrhmHCzkpF91w2k4/l8XumKM8RW+HJRVsPLmBsQsGYggEwcm4Pex0YO4uvCkjjjcPsEpnsAOHBNKVvvZOSq4ZFFJsPfuuKN11b4dnVxVsy1WuYuE4GarlAdJLE72yymSDU8fd4wFOVnWNdOAlXSNH3WQnUVexvFLPLzfsENroZb4ev9VanrPp15oOYrVFkuTX1rMhk3fV386JEOZ+hY104CLZYzjYGK6Frsw2ZUjnVtmYfrclBOP7YDoq6rpTtJToHH8QTR9aeo+yanYF07SfG74LgZXCG6CoLoOfF8W+mKs6Z2+HR/XlbDe0ePGrpmtrl3o9fH6QTRVfMk02Sxrp2k+F1QnA1OIn9R5u1k/rYsI398Jqcd/vp8Xg3KMRSvtjYMrZDhhmmmPS2miK4rQJvJAO+7dhJoBYxjOhEa+ffkFWDM+XulK64Q2+HrQ6XrkhuEQK3p6rHGMGd7r8+LcfPbdWcpXEIDXPl3EaCGpG8aYfG1iuiqstSw0vXqT7yT0w6fDmPohsuty2Q1XYEa6f5wSK93PxbIoJyXXkClDK6GOwmAni65nL7pobru1rrTr3S9/Iw/XtvhttL1LZF0oqYr5AN7OJTg6sdzU9fnJ5l3UimM8N9rBwEwChjXVKyRLKK6hnb+vhwWYdPFPX4bbofvR11TX2noSnhSf+5H8s+mrpPF4wr4ia3jwVZdpKiGadMlweZE1000i98qXa/xmZx2+HLZ/+BD19gh+WY1zORzIxOQf9fxdPxiSa7PhljXLgIInjRdJlprMvLtOgJ0ui11Pb/EkX87fDvqmlN0pDau8qfjIUeOkG/XYh92w7gOE0C8ldNFAGA5VwosTRaQEeoq6y7n5dTI85s/MG3w9eqs1HVvNq8PBoBM+uZsXawMN32d9gamIelY104CoMIltqKuNETXnqVzx7lW/Su8NNwONxdnpa6uFELQfCy568PpFNV1ISqU4SgQb712EaBmhuvQENFVkHubwCiq4VJXHPm3w93VeaHrtp/aGQDNx5KmHDFG7wafPmuZw3EkxGfoOgfPE8AKfNOQCFRXURhF/u+5VnjIa0v8eXNxqIaHsaM3Jm+ogZ/EifcyRnX9sfNszh1gXbsHz/Nw7dkc50caousHhJQOt8tSV5whtsPtXaVrTik8Ua+GvZkZ5/rucTJBdH0lZlzKYF27x4eu6oZnKI4KNVlAKn8RMm7/rdIVb7y2w5fPl4cMcdjnSI+oV8MRTeVDVn6ZTtGuCQ6MeAbwt2un4PnDAqRqBY7LOeW/ax1Rtkhz/17qeoFv8m+Hr39eVZG/S4c1XYHFs06+pHuvUzRDfFzrTi7hCrFbFLp+yKoC1s25GVid6KqtFSN/35a6PuC1pna4vT50TfNlMsuIejVM6Ha8ldar6WKC6NoL/b3tEZhuAYp4JmDtJLV1S5N7TcTVJvDjX6Wu55/xx2s7/FXpuo1tJbJgTdeAid98IE+fJ825VmMZSHs/wJV/pwBQhUBnHNc1/cwaicKJriNvlr5Xut7jt+F2+HZT3V6aO2xdV0h4g/TNCHvTH01dF+OVxeSO7mFdOwHPHycngZAx43nq6+VQK1TXHjFwP3Q9dE3X+Grwdvh63y/4CCUo2qvpCkDEJm+csvnQFamGX0eD2CEDAi82dYFCV1DsA2SMY8amQ3vWSBZ6p7oKkDWryP/sClfDLXHUtc8xoQXr1bBibk3amiC6TiaPopIajI517QRFGwGtNQgYdz4fOpkl7zSxNxqN0KUmQc2o7bKshi9xNdwSd2dnB12HrhQ0q+GMm5szdfzx7Yr4qmWuYSsE3nn9n8Mf/lkBBCDUGYdzTZ/0rJEoi8K/6moFxnKOdW2Xh/PyKv9h4usNXWFgDE0bPJ7oOn0NOcohsa7/dw66QsuC0YBK531zFgmiJou9g6yorrJghQ7WtW0+XZ6XuqaOAhq6en5u+sQTouvjZPHCGxRH81jX/zWFrOADwlMYJ0kSivbWmlbkTKWsWNf/gtu/2TsT7jaNKArXWZzEibukWAgNyCAkxCKEJXaZVYARlmU3/f8/pgwgG41sp0vc2Dlzz2kbKY7lc3q+vOG9e99A13AX2hB5Duy4hhM7NY3k4gzF9XwAQsOUE4zrDy1Iq6Rpiarw6zR3SM8qmRTF8biurlDIYTjGh+En1+8f3la4TtcmLRCgZZQQZNfkvct9XIeabGQKxvVHF4DjPM42027mcICdLCYlq4iQZ9em1fQW30L3RPr1GOJa2hC7LuPt4EowpmlGq9EeriOfdPIQ3xr5QwtWVsIjQz7LeFslLFYURYRWZJCj6fxy1sxd8SDnqfTxsMa1nyuxILVxJQ0z0xdo4nV4NWL1MHViPMj5ESUI28pqaZ7qbKb9TPb8xap0CVcnYBY5CTfvTdpz11eHxz9hPY0+v+vWLv/ULhKpZUMEqs2nnFhObgZIdR17SupEeLvaj6jt8IbwCk4xeNeQdcLvTCb17sNAA0Dy93DtlLh2CDqrXE3YhPiU+vlDjets46ie1rIhAl3mNzR7MRihuE4kJjV0AusHVN1hsiTYYkr7maNq4nwxGTepVs0r9Ei7p7qKq46npF8aXD9gi/9T6ZdPDa7dHhnv4BpRvb5irQa7zabB2Wjhk3mPw67hH0xCHWot5RWkHBo9w6EjiZ3M5yKsoJ2SWaCSlC5Vv9wP0PVuA3T42o2n03GN63JqMpHWtiF6ujENwQTxNQ1Gw0tRz3g6EvBx+IeS0IRaJYF0zDTlbU6wxuKk7jCxnfI/gccoMgcgrugyCVGSM7xN4n/Qb00mZ+oqxQ6uQuRMDa9zcjXa7TUNTxexy8t6gptNP5BqWEslBRW6WcbLOmDFxXzSWA4rXBOaodHqyrLQJMF6zma6Xa2GL8l5On1scJ1lob6DK+GF054enCK4DoaDi4TnFQ5PXn8klbhWwxudMfI8N5hICjoiYotgga5HhL870GHhpRsdjXPh1BUvLn1qvT84qHHNDVWSdm5EsfsmqV38MTpBeQUGH9J48vqDSNhObyQJRDKfTlOeFoLJajERYe1syYJ7gQJxF1e2M78MPGVd3UCHt/g/sT7XruHZLOXJHRsiIJSNyYDLKxTX0UizDYfBuP4gEm5DrTrjmBnvUJ4UjKvoDeIODnzfD9gOovFkIdFm/xriiq+0emL9fPjm1oYIGb2VBOTUtL3VHq5n577sGEqs4Zs3XrwgqsI21BoreX+6tmOrtkWw+2DC4/HOBKeidTKJe+vZ9RTf7/r0+qVyDfdn003GJG1eJYnOTKOY7+N6FVB2iauFcX3xuu0wEVWoNeNt0rNqWwSKa7MAvI1rNd+ZL1iJTqezui3cPcQeiSfVcWND7KZK3HYNSxJpmjwnohG6wflVR1UMO8K4vnzdhlo9upcu1y4jsOJiIo4bGB9VDfRkdWmpvdnNrF/j+g5fufGken/UuIbXYZTs4Mr1TJfuQNcwgqsYMRBX/Oz6wnVXWjnZcLPcoZJgMr8d3nxdY3EymYxjJ1/CozDUAbb3P61+b2yI066je0ACd5kM1TFzJShNwwPkMDxJKCPEuL54NaFWT1XMNM1DMvE74uOlFW0yzVfzQJDX/e1R+OAVtvc/rX791ODaN7hdXHXbXIfW6WCE4jqXOCcscGf4BevOcih4ZGiu166jSuy8Ht58FVX4FeMxrK1i4DHmDM5c60bTEW40PbF+q3Dtz2Y8FQOthWuh8F0DXO65hs8Xlu6EOnY1vWBBWwRc9k1EtMPnLq/owKoav3+vsrIdsTo1WwIX5pvaIAH1AT+5Po1QX1OJq8lEENdGkhYx/NRM5ifnu73h0dmKjUNHxbS+TN3ZIjQNxFRvs+mbjBcsFovJ+IE86/6rcUnromPFMt+9uZ5Nu5vqKPwa24WfXO8bXJeZordxlWKSn2XRGLUhDkcXE0JxuEQgsF6gGluEBIiIY2zHMGymAP54MtnZm4bOa8bj1iux/NpAI3TayTZTeBJu/Ew4i/P0+rzFNXe4HVw9tTdLueDijzPEhXh6qckhFSW4vr5E3dkiGDNd5w7t+WNYWetVEfdXVxi6Gd++EssOEyvB1sbs5gbCWukVTs49qVBc0x7VvoZOSiJntqa11R6ugxOfDhndwxG6lyah1DbUStu8azpyAfyO2IRaHzgIV0b/gG1ewNLKSgVj5OvpbLmc9m9x/fQ75vXJ9fsW1zXPJBJoZ3Ls6UYhFhBXZDc4S9oyifc1vThVuAJNkxLSyfrrLNQldg4Xku4/pLaPvmInsDQf/j50CC8WgUDxm+n1slpVeofru+PjD0fvKh0dfTr++Blnc769fj9ocN24sgfauApKf+PEk31czzqcrTARHuW8LN3ti9Bpx81TXtalDrz1ZoycgVHnYWCBxJOCsrJCsVbM8Jvlzc1yexBuZq5v3719tX1x8OrN4dHxe9wp/tb6+eCg7gxvcjsGbV4Bs9701PEfZ4NdXkfnY9W25QKb/F+Wmk1Mgs7weZ47dKwF422o9SFWy99mfRDrJJf4nfliMSlhpY20Pys1rSvrHaGvXx20X715WxL7EU9iv6l+fV3hOp1107Bom/yBROdrkw6uRnu4irod2jrG9cWomd4AIEmSLvPrbs6TIFis5tXw5gE/cEOrBSKSkWkvGC/mExYUSta9Litrv/t1VTv9P+Iz8TfUL28hr9DWtDHUpF1eNdJNXcU638P1aqLbhqNjk/+LUbOJSQJCdQk6H5Kexo4nE+QcjExvyt8NLBCrlCzTujaZTAJQyHzeryrr38T11Zt3n97jFtS309Hbg8aGyHMeIbVwVfk8N6QR4ho+KV3Dhd3rqRjXF6FWqFUDkZ12Z7kS+YvVao7YItDpjQinq4lOK2GoqElwOekQVG9zc/NlOUWp7D+gxpuIY3XfTp8OX9W4Tk06buEqWbqTpSYxGAwRXP+YxwpvchjXF6GtL0ISYk52zBwuOax3fSO2CDTaygYaEXE0I9NqDHzfF1TFXE+XcHizhysEdjqd3Wo6nd7h+urN0UfcdPpG+ngEcYXLhl2mILQWrpFirrP44mQ0RHBdeDLvkhjXF6F6eGNpWsz01tN1RoNge0HVg9W1Wv7ig5hjlFBhCikQJ1qkZP3lzbLiEMUVsgqnsNdbLZspz/ZI/PrwGPecvok+f3pd4VrZENu4Vg37VF+cjkaDXVxXgOZzGs9dX4ZAKSKJOLnnZm5IJWxti3ikxwQ9h4ElFCQjM5TuAT+wAOeUtF7Di3D2SIVqjWA31bv1+3cuisNPuMB+m2voGlyv05ATrBauHmlsupx4cbaL6+jq0uJ6KQOwreklqPLyR2To5ms3JIWgM3k41ArfbKY3RMm3ItO6YJXvaoXi1mfc/h6usKrCEexmnWeuafI8b5pulq/hwr670ezB6zdHxxjYb3KHercUxNUhE6vVakrUcNOng9XZGYLrRRAZqUzgizeetQThtrRCy2GembYusYs5upF0X6wvCQXFyAxXCJrP+kAP8+mXm72H1qaE9rubtPzuPSdUZJkpJSu2w7tZuuk3Vbch9gM+EP93vd/iujboHVyFSNnMFG1+fr6L6/mpKISp4uGLN5614DMr0CzgcYrR4x2bioDfGcPS+iCu0DYBhzeeTtIKWSSaZWlCRIXmetpUyv3K2l+7PcdWGJrTiyiOPc+L46jQOVpWHDPtL2//3EF5U/Nvn/FQ5z/q97cNrhue8domf8KT17MwEc9396sNz04Wkp3aBTb5P1e1Q60eF2brjJcLqbIldTqPhFqhgZ+1iIKUbUXWgT8eW0T10FpGb+6Z3VTH3TVvU6oexUn1aSXgVvlvCRBJHHEKv56VvLaaxG+P3mPbxH/Srw/gCoiETmeG3kFwHYwGlz6Th1yMcX2mugu1FpRtmrxDxcBnIYywtD4camXZ8diXIlphqELQAl/yYGWFWM6me7hWUdfUDEndS7YH78o3BSqVb3gFaZt5F37hdHsgfnt0jG+U/C/65XCLqynH2s4mfzKb8VRwdj5EI3QdOnOYAuDm8PNUY4uwQAyvhtsYnDZfXNahVqS6IrYIP+jAjS4OU2gl25Zu58ubL02oFT0Iw6lOajAFgEdmCCna4bKgL4N28v71dcu0eFAaE/Haif+gd7XJf9l1lWgHV6CafVfRRhDXHV6HIucaio5xfZZqLkEnPJ0O4SYmub6otaT1ETP/uGTZSjxQIhZzXKL5gRTTRt5dlqxN99vB1SLwnLfJKIFnYGlvTNAUWiHmFCPf7BgXX735gE/E/14fXh80uNpRG0Ag6fwmM8DgDMV1NNf5nsMBnKF7jipxhU+RHlUWtnWuRFI1u4GwPthjEieiGGgeSRcE9CpqnUkgcfx6dl3PblBcq+HN2rS5mICkEg8JIktUd7FPl9d3Q53ySPwBF9h/q+M3r6rDTT8PdbCDa+SkuZmcorvBh+er2OjxFMb1uUlohVoZw81zQ46sssWE7Pq+z3LoA0+VFZWwOqxvBb5H9jbL6+16/v3pzab81qoHYGGFn/hQFl7SJCmBuYL1dFqh3631+ugj7hH/O31897pqyvdTQ92J0GmxneVptBqWuCKTV8HuuQzG9blp6+UXCtnM0syhY4u9zbQ+YDisbRElVLQMU8yd1ZzVYspIu7Uv4r7pzayGlahbSqDRPbjC39wG4jdL2CS+TdYdfsLRun+lzx/e1LiueU5o8QosTzbTrjo/QXgdXZ0CuZfLBMb1GakVaiV0me+WSHGAXS3mE+QMjIZay9Jqwb2IisJwiT9ejK1Icbs3rf4QMr2ZbdyQignLkkDzoAz/eeyvD+BxtglbxDvrYvB1df9GPx+/rRrz/a5J70TorIQ20ik1vhiiNsQTizTWioBbTc9I21CrlKiMkbmmzSUWtEX8vVArLcuMmmh+xweF3MvrMc0+rrNlCWvm0IXXFFSBgBNWXY+85MGfCSqJaMdtuy2gbeIDTur8c/3y29vGqp0xMaG1cCW4ML2W2cshakMcBLqzsROM6/NQRUVNq6UBPcy6M1eJg/lihdgikLszmlCrp9OKHcpcEswnY4Hmu9flJiaEVfiyXzY4ypqb2ZxgWbeBLLgbhqZJPRbu/9GaSJAlqIq7mcEVT1WZbq5vPsaPsP9U7w+bDkKuFEILV43QlfzGthbD3d5wOdnpePYmxLamZ6LbTCtIIlIxTLdnq9td352vhFqlpCBphiF1T7J8K1Fttwm1orhOq2HM2jVk3as+i4ACSaRSpK6TjFryCnZalWCLa9Mi1unQTDfTStso7Lvf8In4H+r3d03iNbX1xJLucAURk39xwHyE2BDPhyJQNk5EYD0LNRe1wsoqm93+xqXgQ+sE2UiK0goT6j6IKDkMZSq22PnYgleowx2H+8MbGNkq83Nwf2IiaRK4bULH0F7sCaRDF0lNcaPmsNyIIJo7ebKK+9ndUAffuP4P9etRjety7XBeC1cJxFT2peeNh1eIa3g4t5iNoyc4lPMM1DwfEkmsc4rBZ2ZIEqy4QDeS7ov1NU8nGYbmCg9YFvQzudPZ9b6Zv0nebFIzpHUBQCbvcFVJmvMSTuE8eCKHFv9anpcIu0MdSSJiVam2PbVtE4eY13+kXz40uHZ7dBtXABLO/WLqweBqtOsaHq5Ycm2QMYGfXr+/6l3fGkzemKbpKCoIOrfLvh8xMfmaUFCKzHAlq4Ff/nk7g62k+0KtEK9N1rOpooQVgPaI1yt06PDX1RgAoXyh66qqcpxaSoe+/52hjmSVH+NAF/J1ncdrTsTHOKnzD/Sp9qos+7wcW1L74UPnb1xaO0FwHQ5PJ3puMAXG9TsJtUVIQkyGvOsaNhlrnfl8Lj66kRTi6sN+MKNQeqL5vkXoci+d3Vyje9O2W5i6a96m9cYXAT91q8SLoygulYAk0jmaIkmSKtW0n0D76boeCTMG3zPX9aPw3SMs7hH/bR1vcXXtYgdXEBnLzCYuzkfoRTmr2O0pnIAnr99VQh1q1UBCOmYOYxeSVe+DeGRbRHOfnKRTskwWhB8EVsLZbtqKzqC2iOmaV8goIcD2gXT/4h3Ci1TYs2LoRowM+1eg/YNKwCs4mtM9wmP4cqliWWG3+00PPxzjBad/U78dHFS4TnNnZ9s3AJ4zzQ1vtYfr6DQxew6VYFy/h9BQK4g5Z71Zm3TiLxarhfh4qLVEOQgClqAUWy6kYCL6Al3C8+XL9Qw9BNelFXaYmIioIjYVnshfF0CCzaeYZGRFke9whefseCcyAjyu5NnzJ5cLieTLA3H5ia0FbHid099dKPGqxjU1OGlnk39ib3JTnyMm/5PB2QAYvR6Dcf0OQkOt1YDEdB0qkoJqIyk6vUFtERA6LQC6Wnga62sxdAhOS4dgYxBGpzfd1LTJCIAqJHcfrhIQvAj2rO5qK0XRNOxhxe070gqOpMtvxK5OhoMF6zG9dLqEc9htk/jwE07q/B19PnwNcYVnHhLsuIYJOc9zUkRN/oPzkWYbpuJZGNfvpdp+4FtSpGTTL2tDD+aryhbxaKh1Pu5ons6pgi95icWKc0131tc3X2pbBIprhVPaYyJJs6SK1HtxJWKVVhRbpkmSI0mqEU3f4Qo0TSjoMGR0bX5y9cfV1dX5ZRA565s/y5peLU9sbBO//YT1Nf384W2N68al2/ZPoAHazNcMi+4GH56f+Yzj2jGurt9Ht94DT2VCM3N5JtY6k/kEnoO/EmoFEVdyRLCsDztMMcPnU2i+v8fLP4UTnQyGWgU4UG1IRQWSuODgkyrDUGRLdL31lKinTLD8klwEgsnpYHQ2GpX7+i5ZgnPyLvzwVs8J+xK/ql+OD+v/P91MTnZx5Yysb/sXgxGC63lAOpmDb438ThKqUKtVR2c2mRJp4uRrtgixvkZDpe1QoYjxfDUPCNpcL5e3zns01Ho9q0KtzTH4XlzL90v8ZfjMSu6KsWWySErIqwO7ysiySrCr0Wg0bO4dLRsiIkHz0+svTU6vaTrhaN3XM3Q1rv1UiYU2rpJuZzNHW5URdQTXTmHnRoEHOf+jUN88Eeuy4aaZwcRWZw5tEQ9Mb7alNfBBDLlhVM8qX1sxzfdnN01wfD/U2t+U33obaq1RRQVAAr9jRStH3oqi6PJNWq8H8wKsv5Qaa+PL0fnZaHB6cXoKraznZydwwYxbTntb1owDfGnd1/T5qMZ1ug6LRJJauBayu+wR8wGyr+n8XEzkvKdj1/D/JjSVJgm6beYb16ESi52Ij+363oZaYfBUVhgu1sr3tJjupf2mtKK4wnZwNzNkNWnMhA/iWj22MnDQ2hKEFd6tAyurlJSslrBak8vh6AzumD89hbgOBsOy0l5M/CLMl1/KvzTuHmA/4CnsVx5emz5g11G9O98nkKSYMq9NTzw5H+12hs/mEp3zKl7l/z+qYaYxRiSqYm7WqaOCzgJuJGUf3Ug6HgdaFWqtcnKsGEiwrFWLmBBS70KtDhURlqa1bRGo4K7F8ntS7cpa06qUhBIAQKA5iiFjaXxa4rntWUJkL0p73PnV2aDjyflsWf4k09YlWHhd4iP65VODa79Hxju4eip/7Rbs6RWK68LnMp4TsGv46YWeg6spJ6fwrmsqqmCx4gTxRaDDmyrUWj1jMrROaEFgAbhAqV54ds9G0iXcF+HQukdUlsNHcBU8nS5FtmilGXjcprjKVZFEReVGLD8U/iSTxcWgRHZ4sq2wkOCLeXUiXt6UFXZrm3h7hJM6X/c1zaY8HWntZcNJwd/knH/xx9mua3h0OdZdk8Kr/J9WKKrNRlJJII283zVlrzNfoZuY9jeSip1A8lTGDkNGBZ3JvEOQVYcHhbXfnIOvl3035AitCrUKj9XWJOKqp1YKansOthWZgoRqWpV7p/QEWq0sIklAML84gwdiyGulsg1y9cdABIw7/VIZNW4fYfElWA/rY2NDnLlyIbVxFWJnmTLSJcS1peHoYh6bJlPgiPoTC62sAAiRSisOzztw0b44maOhVlRsYIEq1EqpUVJdw6Ha5hpu4L8/1Nrf5KbBNKFWBFdUiafe+ZhuLYgk/KBqkX8U6fBMLEGwVZUrEikoKyx0sQ4aYMsCe1Za0K2Y7rnr/hLmgW63OWHj/wN6v8U1s9UdXIkknKV2skBwHQxPLoSeqXAeHuU8rdBQqwZixnDXuWvrUmcFJ62PTm9KlH0tKSjFUeiSbla0BM7Jp9DLvx9qrbdFrGFMLqnbwcRXqiuRqLfOQ4ZR4C8pDsJqwb4WRUaJIEi+RUSkosAvpLkY+OLl4Gw0HJw2Ks9qV+fDy0AgnfT6zjZxUF4Li5vE9+vzq4MaV7iPS9pZ5a90U0OfXCGu4TKVIzl8SGOjxJMKHd4QJXl2z+QNBbZ3xcXksVDruJTI+tAXwdAlgZLla0T10PpQqLW+RoOuqrB070MruvhQKEi45ompSmuJLcXpkSfU6VtdjwgNCIIAjf2KDMVAgz8IJqvTYbWvrzkQw/PxSrQE0kj7bdvEG/wIe69+fl25hmezlKeIHVwlJk1NqoOY/E9Ka4ql8IYS4UvUn06o47C5oGqd2ToIxiI6vEFpFaEzIpAixlYYHe5ZY7VqylkFbx7YSOqGMNOKDm/2Yb1d/vIXe9femKiVxXfbmWln2um2XZQgELmiKCAhCvIwIBB8oWM67ff/MHvOvZggo0m6nf7RxLM7u3m5Otv8PPee83tE+GbACk/BqJmDxswVgiQ5NAwgcuDDg/Myn8IdttMFiJZwZTOn686yzwnqZYU2AV4T784O4l/Wz+/Ayh/hug3lg+mRbgtgWGvMruus4etPM9lVk+IM17+77rXdopZJEMK4Uk1HV8ZTuLQqWI9EoM+Ufsw5ho+xyrNmzFkJmrvcHQmoKluraqIzv2fXKIenS9Ty1CK4xyGEWNBZOWoZlVkSdX/y7LzgafflsSh7AgdRGqhy2AUWwQq8CUDvp5ubxtC2gtWIEa32RKezg/iX9eEtTd6AAb6BnpQVuBJ1NU88PLscwvVzkw9U1znD9e+u0g7fFiMhmGyBaJTqMW2tbHmjnI5AF3Mbtq0ZIRxmVeUkCZkq/CgtAgUePslykdYRyqEIpaEYvcBKs70ntUYV6jTblaZGcplDeKvQbNvmAMqAUShhz3aiSh28ws7GCNj9EpZer+BCu+nbRN3Spc7+RZ4dxI9sct79m7GG537KVeHqOUG4bYntGmu4cf154CQT1TrD9W8s7cE2BdAKN7vthcpzymO0CGVvza94nEMiPJhGeQxs4UieXIIiHFBw1Oz7DtAqF5yHD6i/iApaC4cQnhazdmECuv3YGkvMLEGWCs5DvwrBNOtkYmyxpimR3BtsAKSNshht4tOn60bsBIjX26uKg/j7M23ioL7/8A1jDe+SIq+0V90rwH99kq8bvW4NrsPInEyIfYbr31cMrpTJ58A5OET3fHvWp2x+5TQvAjlMuK+RDUf0FCX2PB09CEHUWudFYLHtDZD5hZQr2fx1uLIdQZQ6BMHGCk+7Wonje1aNSPc1Tqbpni5GDqGttA5Xgd5gScHNhst7vDLaRA9q3RdJsqiQmYE2cXYQr5mX/ohwxXKtSNQrcM1k9XKVjtvXvRpcp6CuC/nzZPhvLA2LBqiC1OL2buumzfFm/SgtQmGOpB7g23RdKYrXm2lftFyY4PzOGIf1usJQSBC1ZuJxWkTZOLnMEWTDxDLYf0lFVCW1IcVcS6VEJpEHr0WkMR788RJkw0+ELJ4eXrGgw/aANtEdcMZi9McfYE5+L4X95t2P5xPxff388Zty4qDyWRWudsS3ruZOH/yaOodwXdtEXUhnVtNXr7pXA5dZMrZWV8rswROi1j4UjdEguF8heawMFbEw1DlSC6+OilpB5gzTK5JWHEmr9eCKKsnVQq0AsiEqPxRlaIOYoaUwI2YcHITrB2JfSr06XNu4crgB4r+XGhV/ckabOC91Kn5NDK6j0URKRbsC19wKrnb8bPOpnryxmTnqQubOrOG/qRA4GEIuplILmkxopN5wOH6WqDWyJN+H7gfznIGiyZPd3XFR6+WDqFXXK46ktSB0Bj7zQNRKJNTcMFJbqZXPLUkSUpFeWglOgwVBOAlXCefV+rgGV7bVAZldd+0Vyfa2ciIA1sTbj+cGW9YPJVxvQ6MQq8kbeZFc7qR4XYfrzbIfuQvjzBr+W+ohCwrzx8NtGEigUYXlzRO0CGyt2I1lQ3AiHVwOxdSY7Ng98JimtS5qPar/0bKCyIZhUL8IwtBKdXMIV439bJ5HBSFOynmeR1V1p1qrAIX/KZvQ+9cMrh1a+GFJmwBZ7FShiWqj26qD+FlZV9b33zK43i1MpwpXXcvMi51sT2tw7V63x1ywMNP8DNevXhUuP4FcGQArgUnrPS/ieCGXv6/gORil4ZRX39QBrNurU0Gt6PmyQHowp+95EUdYyhySkmTzsFkSIvvoUayLpSOpYwGEMzH2PM0hjBghnIAr+4ZkZPG4DVxEpsu5ZuI6RpugS53uuslJk4vfKxaNqNQ5z4ix/vst82u/WyWEO2ANR8Z2a4jjOlx7jbXuA8U4OpP8WX31oFaqX/RDymLS++MpOJIqT4Sgz2yt4GXTkBzNVuAzNAO5O+r1zW6t2zDhU+isVUfS+gvBYA48CH9h7iKTdJ8ZqqUWj8tUD/a8BTTiRzsrfoBgFodoKoSttUsL+ytWu6RNQLaLTVpsRFy5wv7wr3MBDbGE69wVqm7f8JE835ra+PMhXHHFHRthIqX6eZXz9eEq4rTGEUxXnbiGw82aFVHriWIxGujkS1IacKVZpro7IWodofJlHiKZnztBi2CVpxYdMR30StS04tPgY3UtLVjltifmKYHvPtpZiUUE2fT5LN4ATrGpLiE0GtItl40HIjFruZ11M5dhA0XjtPY32HNEByrU3/ybwXWrHtoHiyLQEP1s+PmmUyf5K9IkMIvz5vWrlcaKo+YuuWOq4Tx0JU4ZL6fDJwKq+gqdBxtmYiD7X1H0TFYvbpmo9YgEHQ6Yq5bpcHpsPyZqRfxTqgM5XMOYbC4MpUd4DC6yHCToXkRk3ziKVQGLwdUhkpkklj7owIkXqcLj/iwG3tWYatf3UtjlEoiun8EGITPU3S2zVi3r7Zk18a/vgDWMcN2FZqZX4aqTySpx+rXuirfXAWm5gXWG699Ai9BS3ofOGhhWpM/6e1HrycIJk5ZagiQzqq7OBlRXTNR6lBYRBgafRnjvPClqRb9Rcry1SshqoksmB2kReMXNo4i+Akk4CVe889LWakqOPVz2QEfX3oARjRZlWZTr8WDd7lSVOvADjfUgzvlkUVERoZvTq1/qvH/7DcL19mLlpwepujbsa1xBqd1dcZUzLgJVJfaZKfH1aRGpObkcoe3zbLpGrGKd7q6ok9OI4SemnGKiVZyZ8yvG5b+EOkKLYEGt3uOiVhHdnfwDJyb4UDZZa6U85pyYaMQEKR444mJc/lNwpYodx5IDt2Wm8bR3A16InSmMwwgl/hskFZVp47qHSh1W2BPAQrzd5+Rw9MfvjDbBtLBv3r/uO+wv38HtFe2a5oFTZQ2LXhGEqhHffAnXaeSroaDb3Lm+rqjVEXw1DFWTaDGMmHDg+3hSK+jkvEgyZRzVxnAoJkl4CaA86sQEBTEaCfyoWMlVPlqogzN8gyd7vDKGvsGy5XRc8FiEpBzFbWrxZR8+DlbEOuUwItjz2bQDy9X2FBRDqMBjWli+0LzmdIkNlnVYxpq46S0HdmEutqOKFBaGxK86A+v79yVcdy1y4A3upRDBktjXvTpcP284Q11J51HTVxW1enrGB/Mt3EkcvdkHqPbpOfgpuNqpbFi5B+Mo9IZmp+ATjqQoak33ktXTcMUDriMbvszgSgizOKSOpFR8qzmCYVqc11f0zJKwThIjsLMSyyGymbi+lMXjBrRWdC3lCmQQ32thBQukddBScamzl8J26Jl4WqdNAGviu1csrfvp4xv67nt5qfIRp1fgmpnqpCXiW14Nrkubb81l8QzXrylq5VIJNFAL1YBjLQxMB9Uz8OnD8MzOHSpq9Thm7gJoPSFqXTFRq/30Ak7k2Fbofk6EbVDm0e1bx3UsT9M7mv04siTTON1ZGYgR7mi7ZnGzNZxxAYFNpF8Z+xO0IBvMsXywxr3Dgf0adNi1EsEF4a7CmkDaxKulOf3nl7flP9JQyqqbVy+S3XCSwxCgBtdP7dhxtwZ35kl8PVGrniFYw5YU2RW/iKfxirIbb6bYuQB7D7q7OcGLoAr00i/iabhGjoC3SvmheOoMY3OY5SxhL1z2xZQegyXhJFzZ9sbwE1+GpRTcT4GAjmB1eGn/QGGvhRUKDQHb69IG+2Bw2u2M4zRZXWEs7OW9g/jrVep8X8J1tDCKKlxt1DUv0jVsxWpwbShZsDXzM2v46xRKuyOhtdptXZ5DWkSZJ/dE7X+iD5QmIDFd3aGo9UhrRbhe7VQATJ0WUV+6ilWnQzYGwkISIikiyuAHtPoy0ZqwK1UKpPtTwD3SWi3o0wEm0A3bkEAHlLgZXoxpAMAB89+go6vmtNGhcC2FOthhYTXRj8xwREMmL+9pE9+9UnOYX98xuN6ufEc7gKtjhnMH5u71XCuIJPK3fnZmDf/1YgJ0R3Yni4nPR54yqAe1ni6qmRsCsR4ePr8YnfKLQF6E6vMZU94cgWuFL6HtVawaWkOUlEI0d6GNmXIhCPTJcRvOqJqAh9mTcJV4AoUKHINPAYedHuwY1gqua9mOSPhSCuvkNmxhq8z/0kF8GKeGur2C0TbMWBht4rXar/0EcKWrnG1Cck+vDBxSOdzxzU0drtedsW1skyI6w/X/rxIzuL0RYUYEgyA3e5IWwUrBot11CKHpTZGALdkfvx3h8pfbm6tVS6KiVpGrh7Te73upDJ26uEBpgE22WSXEQiMmHCbHSDNMfLOwh73Pnz8NMt43LIyDREQLUAfj4HJ7Q4zAdaV8trmB1nrTGM9yXvbNym23zsGwoni6rA5LgDbRBdrEzTS21N3v4G96taN/Nay3r9FB/OfvShoinMWiA7hGwuRCgkXZYQxdBzhisTwPSHaG61/j8jMbBmIEYRgGUuaVtIjmU3Cl/xoMoLX2obWaky36BB+hRVCO/3bRMknKVUSttSkXh0DN0sLBKlJmFUG/mmExDOtcnhWWhe1v2gYpeW9GfNWVLQshzX8JV1LyKkx0Wu1DkiH4p00VO3Ik2TjgKtZTO/g8HlemJUgk7jDaxIzjXYyFxWnanjbx8RU22A8lXOF+U4ErGvKQyaWhD0E3XGMNL5v83JUK8czy/0twtb2YK0A6c3k5kbMZKNCp1/fzuutgOF2vB7PMDNkR8YioFTStv4126OGu67ZYgWgtHiBn5i7lxAetXSiHQtxXGc4jYITduAfOhdfAILRNdbtKJAIQpzZqVbhKAnZlwUhc1xREuE3dYF7k0I4I8yQ+vfYxkoTPm9AQ6lJYHCl3+qDUuYLg9dur8kQMBqfvXx1g35esYcheyewDa3BHvfCjfg/gWi0Ytg+tBTLQz3D9a0GtEeUMriYBr8WDMTTLZ06Y+mx4HHOOubigI5iLE6LW0JWdmqi1VqhXxc62L0qF4KAYUqFELs/zghCS6soUVTSYlxHzARhRB6bEQ4OlWNsX+4TtZ4QUE+hQxrocx0h/QrSe5lMIsu874oDB9fAKi5BfDqhh8lX1mv7mx9fGI/7xG8Yavgz94pDkX7QuAmfW+9StJW/0pqnq+oQ70xD/QlCrjZtWJDH5Fhcz/D1n10oT3YDypHg5noNHJ0Wto0uAE4AVG+hJc5codSxepjtQLKpvtaIDSwm0IXWg0khXBngEh20L5vzK4Ry8jxND4LGXUq2rUEpveJbDQTK9Dy5MSOiHbUwusNZ6Cq4MrxISn7odxpNgK/9qLOzAK/wQHcSxw5Yj4o+vi+b0yxvqhnh7uQqcQ5J/6u5aktcFuNZI/svcdQP+DNe/IGoVc0sOwokayIXdH67Hg6e3NwpUqUcfQGeV3dXV7WlRK9hFmCQV9WPbm30QUlYQlqHM1qDMvptPD9XqmUWcIs1yjhIddXsGAcvX6xmu5VeLiesbyFwifKUkA8GaisBUumH683UcWRStFJknwIpYd7zxksK1s6/yBrtES/qb3kbRhNb8Cnn/lSvsaxo5fX/PGm4Rscoa1mG9qvo6jVCvrXJEM2hJZ7j+nwFVto7SGXWhunKh2SBqhXp6e8O+T+dR6PU9WZ0QtVLjFOrtktHFzJHtTdU2TWIlQDG8CmleSSJ0CLGKXMcP07RwMLUVYLhZtofQLwN1tQjVwJSIhUXwD5FM3zccID1MwVAYsAq9dapEhixQ8jDWUa4iPNA3LK7fwUIFLEC0XZXCNliDnSqilSwq3snfoFLn+1fDc/rv+zcla3giaFXWsB35oLvU2td1uH7qepKvyme4/j86OcoPxjy4i6uJHEHME3TW511aWWzreNyPU+TlMXeUI6JWHJ4uEj7CLKvK8qYGVxSgG8w3jRxYFUrFA1wjRzAwFYuauyAOfdOUcdi7RNMHHXAz385D16czJ8SyQwQjCEwi9jcgqkEbTbi7QpCrFCY8/a5wCNh7OSzg3Aj8FM3BGFqX0+l4CnQMZg5DCz5DLWxbicwFSGHvWH9lqTqvhjbx88e3jDV8EcoHrGE7NxfhJNvA/2E1uPZiYp7h+n/AtfTQFnx1EYJKXI/7Q+RFPPfSitNjxU4ld7W7YjqV417fOGFisTXHpTdo3eZQukJtqyIb+7uriP20cIhFb79cVFiooGEPIUUej5fdxljBZLuQNVjaO2WDilrF2RhQigNhwF3vpjFLk4uJL/PYfXFTW4Mre6hvmpY9buODqHTds3U7RtpERQpLlzrdzcBLTXV39SA+QmXda4no+AF5TVgrI9MO4GqEi7kz7X4JV6UwznD9s1WKWnUHKHWjiwkvNjegkgMcPpd0OBivNwPdcncj5hbBljd1UetoqxpFXk6DT+XJpbzs+4aMmtYqXI3E4FMNHkgjBCxZEjI9VmLOEbAN35+XTbkQBxCAfr1pRkYLGuxK9Q1JkozEVVWz8KbXSIu4xupBQwRNyATsShLAa+FYh3DFYzi0Zt4I1ETQBqCcA2ZxYzrjMosQK9ViJmcHuFaC1z/1gDbRAtoEjJx291rYD69DCvvrd+Xof+4XeZWGqMnqascPOzW8dm96zUhS5fwM1z/HYqJtypGSSbhQTUucDabjZ3VWBDObMCleJLnzEUyYjopaR0zUKjmaWOus9d7KHEml2g0SkMgXUXmzTR3LSnOO2g0TyZBLSj7jM/COiK4tjWXfTg2gUMLQzA2gEhS1jjuAVbRimq436OXSUTJ/N8exlEwIoPBg70OwteJwSkrhjI0q9fa06eV01gxAjnQIwWp0K1Id1MJeA20il1o0FhaZ0mUs7KtosP/9UJL8t4EV2foDXDkgno/kZrvbq8N1IPKqcTZDfH6xSyumPbnz3eXELOzmgLKDnyG9YSwmYBwOFIwav7o9IWrFS+sFilrhmQBwj7hFYG81DrBKCM5zfRljXnF7kzs8qt5t6oh6P4sqYUY1qnwhIi6B/6Bb/mS13UKPhc1RBqwkaH/d5bgZe16sjBvX4LzkWeqCft8QrD2xghWBzyQfcG6JTSBUwJV4A0MsRzDuM3ngprzp9spY2D1tArk7TU0OR7/98VtVCvsKhsQ/7eF64fKHcCXJ6taMN90aDRGmDB5RjeyM1j8zYYLSHDkI5wtVzjwYGcE99LmdlbVWtE2bU/OiYxMmqGeKWnMLFTBCjZNPOYDspkq9vvFjm0Vk1QOqBIlecnMPNeWNoZfKYGUASynT0mabLqhU4VrrQYPOIi4ebLrd9tgu5Fa4wAZLiRVVXxlorT5a+w+XaFq6HCtUDmtSvBpQBBQCSCQuhdesw6KFTHuo8+qWxq7fe/6/ffm8xJ/fl5qcS1XKvApcRWDN/BbY006dNdydKk7LTLlzPReudP+ZwqoU5qhCZDcZL0J5XmcFLv94qOgp3E2OBbVi0Syc+cS0Mu4JUSuAMeUPaPaELl8RrBaGoOsoahVIAR9Ck7X2wpwauCUaRpd7g3YH01kjQvDgiqZL19dU1FoQOvFNOZxKAavJK4xWuFpRJhSx9kUkKoeF1rpG9hNo11Gz87Bfoh9ZkQ2A7fYehsR7B3EFGuzuDmMmL16Ng/h/3pdjiquJkXp2Ba6pvPjd5YadOmsYZnOZazrRWfL6PFoEu7ZmALeLVUDE/ng9fSYtgiWi40AYt42jO1ze1MnBWIhiGDE50A9ttmh9THwuobVLhf7HqBJU1KpTtJp8odmxJ572+maPkSx7ChdVxKftzfpTOAejqDXmCkk2aUkkAkhf33wCYgVK8FdhC13bLIehlTeSJJFB5oMx6qCUm3EOb1RTeQCwmLsuzobULbFKTIRHdKc6gckbHRFjMdrELy+b5vTjHq5h1T5Y1MWMD39XsybcUA5piDANyAO0JzjD9Tn8YIYBmMjAAJXkzxW1MukNLm9A1MpZwDhEUB53JAVOHhO1Uo7vE3DFRZKxb5h7vrBEHNqYaVekMRqlbVq9s1ZwhC05am6QVL7BsRKm3CAnQkdBACuW6BoDEaoBqlWYDk2QWJHgxZmtffaanZtrBCuGOksHz8n6OL6iGc1xrsXCdqYYC7u6vP3tbj9zevEO4vdwXSROxT5YF3Nr8nvozBqf63DtLMXEFJxzUM6Tp2AWeoM0pDksHfwc5pzTZ3L5sZpoLzGOc3lygZ316uLIrRWay29XIJFKRa/K5T8N14z3D/Yy8JnEIgDQVc1PgL0xgHOmBX3ttBETRbofON64A+df6KqfPoMOFo6zs9wy7kWtgowd1uFgjPQZ1i+i5G53OyRWAAYNP2ipvpQ3l9fw0B4cqTPeNI88J+3UfAqobnSrWljqIP650c/N1e0fBzm2b16yg/jHEq6jlUv0yuJV1Ar1t4XgtRGuNRGd7vuylZ9nw0/RIuhSpCAGC0GPYkoifK5bxAD7MLVNC3d0IHw8qPVyu0JRq7b3+v4SovfFRk2OIO9Z/Wz6ihsbxvgnAt4U0VmU/tAjcCX0iskNNh0U6dxAwaAIRa2WwEStD80bL7lN8P5uD71MTlQcS7XcIEh8jKIdgAAdHjlkXqbH2rkkleQMb7CpAJY6iOND0d80nFeJI5C7/nKJ/7+U0wow4BJEsZprlbl3K1PcfAHXXs82fJM/r3KegivapkWWqa62c9WIlAFNVX4+LWIMxk12aoRo6X1iwnQ3wnMwQZkcxeoxWoS+L1Fkt9eCUIbSPVgjGqGOUcoC4QawuWtGlvSobxo8CsBF0niJJ1SKGzQ59CIkPx0gjs6cJRLZgzb8zFAvcE+7mq8WaiCn9hiWNzf4SNHhDUM+IYcV6BXWoBkA3ZoWll5hbQvt11CpsytZiW/evVRa4g8oobu4wmQyWTvAa56MVkE0/fQFXK89w0+k6EyUeErUqqVETgLoJSbuPZhfxDNpEVBKLGZ8Eu5Qgn7M6xsZhws1kayIisg1rKMvJmellV+IUouw2jsxMbNvJ+XsfgNukaLEljcC1vE8OeyhqQ0kGpYm196MmxjxKkNJNWizJCxxBjPiDUyTCt4wE9Ogm9vGJxTDwgmiEE7JYbEYmYrog+V1t5bjjI29M55xmNpX7qQZL/H9C+X9/4oSOjxYXazMiDtoryYk4jvDmzpcr29iOQmMyDvD9VFRq845frhC19B870j6jFLwIExpESI25otTolbk8q9QeZOLUMd6KyMoRWjtYiEBPy1jtPGLWYqVRTkeAbiUIKJ0ZdyGyRGQ1lxfwMntMbhSvzXohX5icMMNdjuE7HimoyOpVGvJFW9S3gExaxs6aT/WRU3UQYnXgVsv7Gj1bO9leqqbs3M7dtc6XPHZqVRn7KX+/PY3KnzY0Qb77sOPL9FB/Kd335YLga1fzVkWdVFerRZSHxZedbjOpET1szNcH6VFiBEMdIF9Z0IfQU354OlTsHLPi0CdnOAuMEbjqCMprmB3oLxJNTxx1y6t9wsk7KSORXscJfVl+A0KbtZxOebrn1mCzEfAAuzCzKhhy8GqJZMHo4gD/cw+l9k3rBgIC9hdMYEKI2YNEzB3fO1Dx0Vcf4lHX8j/gYH3ElUAHZCc585jnZU+JRMGRAD3/a/iXgpbmk0A7XGj5EZ4wRzE9x32JQav//z+bfkbsAsoreXhziNMVnNzVmcNw3ptxieTID3D9RFahJ7xPrBpVRmOgc3n+kVgZ8VLK9xZIyEIL66Ot1Zc3ox20FqdfD9DqsP1XtQKWHkoklbPT/hC6SiM0EHOErsd/N5z/uRi5aKMlREGq3BlYnQAayKn3hjAitLU6Qx5xfVBUZ2Q7MtZPIWBFAVaB6+7nQ0I7eGRj/qL4zeIJeFseEwF68yB5jB3vYcOgOM4A++rW0j12it1XqSD+Md3JVwvXRLpD3C1deIuLhIP3kPrcFVIErrFGa6neivGPfHuCg25NaRFwJ31mdubUoKO084RtTk5RovAS9pFGPA5bl/EExxlJmqFlgdlYJmAMQsVN6wQtgDXqBBMydIY2RftH9aaH15tqYy1ALxSJ9KH4vGMbLqJWcTTxk0X++umr0mo0zmdno4l+wYCHM1g6OIHg+gUMUVahCGfdoWh7xaWJfmEU9o33ZLRxOohogOD1z/fgAYXgtcBr2wwxxD74oLXf/iO/RqMrlQp1e0HuKKX1VVL3AANsQbXfmqGqnMeNR3FiQ5YLaQERa1Goc+oxyhtnM8WteqpDL7+o2NBrcyX/3JbOjHpR9DKoKix4FUoaV94WHXyB7iKOopaLQvpwfEM3yc2MEYEBY08WeDo1sS+ZhHqlHivn6Fe31KKjEM6Z+ohaxhJjE/E5UgyEfvrHjRXxCsyDssAjkdurdjN4UnR/cl3YtALIFAbGzhND4fTDSbCIPP/IXgd7FE1IVhdUs3Snvn/0hzEf31fwnUUyoVYhWsqT0aTHJLDejW4DnNjoVrnRc4JR1KkW8MhVsVf0D8vau3bRN1RWgRA9QiLCRxJkXGoebZ9ghbBtHqCge4PCLIH5qDBR6Vahxqn4eJFSMW4r8R6lGpghtb7dIMyVnW+g3WuLxOrKFDNhiWgIwRvArtBzmZt4Ph2KbloqeTEP+abVtegp/Ga3j3xsknt1izDKGkRp+AqSShqFxI18CPcMEGhDCDWdYxx7qCWfS/UgQ6LXXtZ0ibuRjhxYlrYdy9q5PTTj3tr2tB0KnDV7UxQR4t00K6sctiua6wL4YScWU315Q0CBWM0gBaB5q76DFet/WdLb4b4w14mt0qv72PKmxGKWn2pyEWbiVqPUZc4bK2yfNDyCJGQGszgyrGZsYM2/Rx6MaFhhIUzsU2DyljlAGWsgSmzBou1D4+UgJI/7VJtagPgMhQJJnAcc2ISaDF9nkzyZqO0YuqwIDqhDGl/LB22ZDWRaIY6um5nPZzpWpYWRSSC3Ie5OVWC1yGQso/hmbvbSizstx9e0sjpP3teEwTlWAjXsnQ9slq3K0tZ1uF6s46tcCJoZ5J/Da6oOcsldQ7OV2YaNxk7+LnSG2QcDmYaH9AFYl3TilVeWhMh43RbPEUPFnXaWusqOUJQ5mrlYjmYyAveEJzIjj09I2wexbLMO6BkG+qOH853VEJDHFYWL/tu4PPabFpOevAoPI0dwLTl0B78JVwlpsAxXNMScTSFVF8mapVqtIhaMRfUAl50EBiWzvzFO5umWL5YiS/gtVI7mBKu+HpY47Yt9+oOHMQvL/esie9ekIP4L/dwDUgFrqKeF+5oznubz9c1msSmn05CKTrnWh10VhaCLgew/mpJkQfLmzF01qd6696QFGump3AOxeXNUUdSqAsqahV1+zHpTWYJSAOSasiRTZmkGoM55UoI1DWcilppAe4czRsC9wDHrCD4Q40qMvIJ2bc5qQDXmu4nOuFFcLQHnDEJAK8Vn4gaowKhZwY0LIfePfei1ifDYbHgOQ0+8oaMcDhWRFwYGTQgTyg49JrAG2ylw2Lk8zROkwX8PjNNBEPsy+ER/7CH6/wQrqKWBaOtLK4BrjWr4XGkhkZ6Zg0fdFbb5hy5BQS7gOQeaspLUavynOXNdDxW9ALAelzUSsfBd1fAubCy/e7mlHFaSr6Y/DCHFeieZeYN8poQup6eF5YglUWblsPFKFcDb9LCVxld0JRxrBwEiZTqgw21TbvuYYETk5K2LhZs7VMjVrAgOouXTD/wjQzymOFh3TYFK/8oyRELF0aA8sTnoxjeQGBh2x439ZSxI8vXSt2MN7RhNxrVWFgYfznBfER5iQyuL8hB/Pv93XXu8hUzROwVPupIxnW49hobzgU19Jk1zFY35ZxV1ByjtboME0uH7c1znJjuNa0DdJdA/46rO0bMORbUCrTullyIeilqPaW5SYns0xFTFQHYGqm5C5YWOYJECs3DqRg2XaEqYyUpGq5AL5vBgDqcg/+FmwBW3cCUoniMTIrrDrXuxu1JG+B6SUU21JqUga0ELf4hNJE5kFJvDf2RnoO5QjCpkPYxR38BHyn7rilEygb0PJ+oDMCRqU5IqJCRvf666m9a0iZ6jVlmLq5AWXfgIP4ieIm/3sNVFQ7hypkXu6AYQChuTZLTsJNJImTnVY6mPTiS8qi8afkW5zUH+2vrsxiH8MOKlyPt9fJ4ax1BXcJN0i9D0LnTcM0zC/n7Qi3fjTWjHF8nDmocq4CPdS1lzEHhUF9a0Ky5zmZop1KiYrXcxED9zKaDDXIKfzckSgILqjv1iBqCjBXGyMJ9JB2LhmVGFZU3gMa6Kmo9DVe6O2L2bxE1Q7zuMDlsJbFdYP8r+KaD/qYP7muNfSysh7Gwl1Qfsd/B/vgS7Nd++ve/y5BXVdJ0sUo5lbdblW/C22k9KCc21cBIbZ171bUXtSIPsJBdsBhbGNFs/WdErU0Mah2jpeDkAimvV8dpEbej7SIoRa1PuUUkRhUK1AAYqQgko+E8mUMzljVP8aBbldLU+qkZo1Z7N5/bTdEykpYKkjfTQrdScCTtQvadLeLhXxkuAbxjkU9W2x1k8hh0qoRQY3DFIDo09SecsoEdC121ZngbffTSKtDYdbRw8uFlNDvwnL0GnIMzIpu1nkwH1ULBIf8YqhK8Dg32c29sW8EKTsSVYPmX4G/689tvaa7VaBsakXgQlCOE89CMr3s1uPZuFKnlJo53hisnirSzmgkIb3zZ0uLm+M+IWrENxxxg/biolbGDIahV9SUry6mo9VG4ZkROADfkoLNKPGEbG7y0FlmU51GUI0XxyzbHnA6pgcMUTSBmOrbjNBJn1LS7jfqZqHBQMZDDLmW6RJUNmmWEoRr4+EysyncJ3onoivSGpqfnJeXwJFxZU5bY1CvSwUPiugdcRXgRKRHoIw9+vrxtR6JXC16H+yy81qmio0PW5QglTaX72gtgTXx4y+C6W5kHMcu6Z6mrVaD36t7g158GJFBb1hmuyA/2xAJa426ryvepyoryXFrEFPjxkaHu6Dj42O5mdMuCWjNUydWEN0d2OIVgJDKhcN2Pc30Zyf3wOr0cPSJSmseBktZjmxSWfo6ke3RiQsdgIHqAcSoQKKjpA1LyS2ajzBd5DNZ7sCjg+GCx20KHpTMnLIvISSsxUnuwoTSmznQWCbQ/PpbxKmHnJ6YbBBI8kkoOOmj+VMZNQn3xEPodpxq8vj8SY5DAFDM6StoE4/1/++bDP1wL+/EdjaEbXcz9FLpFBa5OEG4nXKNTh+vnYeGrE/KK4bqfMOEFkPfVEBcsuQer1vEAcag8X9SqWX64gwaAHaBWTNS6CwMWo4FwZWB9pLtakm9IlWEvmowis59mbQg8hlLpXJSy2A3htL7U4EXopxh0s1xiWg0sSBrs6imXex9Z5i0c9XQa1CgiUIFY0UpM6V6haiIXGZQDUJAexyGL6TGu4sNUzJccDro50h42A8pVpLPuU68VZ04i3Kur5mtt5Afgu01ftNztZUmbeBEO4j98YHC9BE1OfgDX1JzsFtmm0evW4DqFjhDyr/juuqdF2LqVTLa7iQ8cpj7ubhg/WHmWqHWMB0ng4IxYBOIXcMVL6xVT3uj75c3x7U3Fi4kYlaK2aVEpaoVPHRuenCMSq9NdDk1bxOEG6RDM3uUa7YNF5tBSeS+QALDDNsBi7KWyil6HagI4TQLXTaTUm7Zxagt/GgPRkVhvPd1ZeeiskhkEeNudIqewh63V2T/lKV6xxFze1ihFOeivKAeA1z3Q5Am9wmIsLHMQ//BPdhD/9UdMjcRfmBapSOgArpms7ubOuA03iEO4rkVJXUivezIsYmWOCRL0iZHauDsdPJcczKyYyhiNO6r5qtUloxxSUStn12kRp7ssvR8aMisUubLsDA2QZvCpPVz3vUw2Hw1HZip0x4PRL6PkQ3XWKE1FZDw4MUmUxJDZEG4D3ISZhpJB0Ay6bgD/Nvk8HveQWtxgTsN06Ix1mhZBCKYJGIXYb/dgNoXxVZEl0wTaR5KcKZlR60N3PRa8DsdpdBCfj5iD+J428eM/9wr788dvSyt4VcgO4Brx7sWOQP7fdQ2uG7zWyq+Z1YTMImrOsli4UqYrVNP6bOkNKG/Gip1JoECv8iLqolZwJpad0uv7CFzFqtScfcyhCz9TljNvF9qYqfaFIFiX6zizpCdkMARDN7QmowsxKu7Q0wpGbtg/8MEnQkPXM7SU0PBaEIZo6U8wj6rDph6962mcSaZk4WpHOgFXqxTSGhYMkjs3N+wNovKcp4ZTBP9qhbdG26hqPSx1OhtFJC7YOcEatoTrP3rm9MOb0qIglNMqa9jOneTiUpqtbw7h2vsEO3R3bnCvkTVcYgYp9gC3Fa6/xP548ycCqpiolXLRS1rEse0NtIOLRcBHYuzRO+sJ0wpOi7IMfVzwszK9NSscqKLIIpYgkDtorx150xuY3HCyxHroUScmRlEQDCGzp6DEoh2q14MbZCqwnnzkmitZSN+F35GhXRiuGqotwxEHbZCg9koFziCSgkAqHEIE6WjIq0Asi5d8NzEtfdABK9PrBsphhbp9ar2zMlNGKRX7ld5a77AQWteepeYKFMS3tL/+w2kT35dwvV2YDncQQ1f4uysD/sHdHML1pt3Pg7n5KlnDe1Er0oOZX4Q+23t9P8uJiXGYRGQcghPTiTg5+Oo8pKLWY46k+BlDKg01L13S7s3T8jyCoi1X19H6kEduYX8NtIahbeGClMlYj8GV8QYTOYdlaZfZrKypr2gtELZKrJCsTO+DoK0NEMsKJ410ZQw9lUW8Iq1/RpIw9Pd7WUE6hOt9qJYho+EadAOUruKICZ/yUbjii5VNOUK2fwewWa2qgziOrAoYxIyQ53QfvP7xn0kk/vUtU7zerZCTI1b2Apm5G/nc8NMBXDHKaCwmMEd+jdbgpaiVK3zg98JtX8SRUR+75vO6K6B1s+7b/GRHOa2lprUuar0b7VTD4VDUShtpHa5Mq1cwcxcDi1m7lO8mWCKUbusRkRPZ0YfdG3DuXnqOH/rEAZDTC+oRGYxTCGagGiIzMuv2UAaT0pipozfPclkk5DPkQgDLsK8Mpm207C4zXpHXb5shLLpMyYEnJpT0VBO1OoLvtlw5jTc9SIe9hrN3ZO0JFafgSiW4BTH8xBTXDVCnn4Ar/ClpE/zk8g9kTezuc9f/kQ32p7eM63Y3D4jmHbCG5e0oyPowxa+xhteeuUqs7HXBlQKndCMzcHHhln4Rg+dPmNBcYmansnrC67tc3qxUX0hR1KqLR4dcTNRadWIyJL7kBDO0wkOZqJU4KZIcqOfKRudbO5ZlzgiDUEcWKQYfNZdUTYruZ5rDBsInYEMfgWNgACcwKzbrZQf5wbCxhTCOJXUhVuDcP0exgEQqTwxV3Rxh2hxlFjPGIfMXf0KzI0loeZ0puGuswfWQNoE5z+MY1Y04br8PXv/unxha93MJ19+2rpB7YlXoLM1HqqUAXGus4eVMXgRCKr6qVY7GOqsnZsZkfrWdGJmnDNmA6ZkspiE6N8W5AAr0u9ujQa2Ug7ObJHxEsx+PF456M0fAyWw5NaLsXBLhVZWBFcqD9svLEgGFagd99jFbSjQWt1uMWiXIZajBlVhEkBM3SIgI6TcddGJqjHVLMp5yizB87N9s6wPIgKIZr7GnDNa4kZnqhFI0aYg6PDFjKpbPacHD3cRwQO0DTfmmi92cHoMf1+zQV2sGrou8T9jXNE7DFb9OEdtWInN7B8Hr9+Ywb969/+exJt79m3XXnSpH9gFrmCwuJ3J8XYMrVFMIA6MQX4so53/kXQlb6lYQ7b7vRWIgCGGHEPEZIAFZKyBgee3r//8xPWfmoiEPsF/b76va6V7FdOEw986cpRoTtQ59UNugk8PwhhNebFvRXVl/SdQ6aqy90j0d+A8sb1igHHZAlwUN6XhUKzVwygU2QLJJ9nUk/dzcX3F3JRvCDmaNdGsFrgODUZejdXSvWeY49hpvUlSChtvAWkTgSuErD8Kn2Q12jmubQYU+hfhQUGkqPiyG0NGPMSDG4bYNtRK3PBEfHMt4xctFnAttzU4nN4anvyyMnlTDmoMADYzLx8D6GAvLj5FlrYpzzRsWtzpyIP7qxSnrvqKVP+Ha92btPdawX9r2Jw34biRJ/i0fwio/+39ZvQpchQfIODlsbyRODgAkj1AjIPHLk46kNUjWANYjyxvu0i4AVk6Y5DCbjU+C1YofOAQMgEODVOfBYsUh0XZqHL/XrtxDgzVkAShgH0lVZ1dYj64npf7ijpo393H0Y4nFIbBKf/02vrOsJqED+j5IHTUWle1MbsokVwKc+hkRtcolFamxBOwZRz1BWFrc4cGeI6MxKSIOBbBiwiQ5OyDz+6a1HoMr76yuvjJnUbNDPc6TcDUO4iBDwt8UQ2KlTVAK+9lLs/z/Elb+gCs2B+G6EYdre93BnSN1lvQGL98Mpp1MyfrfwNUcNsjmDzN9nOrAD7oesLMOlnlkTpziR+xaKy6tsB+GVR+8NXE9PdRY8Q7qk8XE/66CS9Z0V2uWMnLpBLonanXBPiSP1xX8se945AoPEdVKGQ6IiG249Bfh1oJlMajgmtyo7t8ym8WPNLHoht1QxEW0MOSmlD9S631HUuE2YJXT4hWJkMCdtYYYDcswi20kWmEmjXTH3tSJunhwZoLGaT4qHLFXw6p1dcUEO5Om9YRmB19TbV6OcpwNjSYAxzg44wdB/XtSmJHiIfWsG/aNm5OJmfzsZZnD/Egrf9IQ55GP92QMrrMQn4izTZLkX/l1c4u3rfP/gSudA2EU5JVK3Q6GG1m0VhyEEWy6xJtjOTjpJFwQWkQayZFeZnFY1Eqw4m8yT1Fp8tL2NG8iVvQ9CT32nn32LVuc1+ng2gnhGWJ5ujjuWszjqLIT+4I50oVrg+WKp03mzfZ5JLYVN3QHDSfwNW0XJA2DH8/lq009lYvYs4npJMNe9zG+qMg5F+YEGC+jfiY+BGMW+5AZG3nug3y8aXgk5vEaWvMJw9Plc6TMtJyxmlvwRcfgapR5eCmO/inInyQDj3A8kMahDuJ87+4ME8VrAsQuuK7DCgDzd0NyYu76y+mwP335iWENl9xqPCinN8RQZetfnyXwWvk9n21m5rn/AVwfaBHtdhWtEUyjyRppo2ys4naL4moyPS4UTtAiMCWly/z5L++w+TsAVdNa59B5A4vEDitidXaVwa8lJC5mwoTyk+9gB+J4LZx172nutm73qG911dqInc4KsjXkqdJs1MnM77cLdFgSFABHJwTWZcIEgSnRSsfL1QjctQ5eFgTCR2LFupwct328susy6LVSrEiA48xnY9Wprs58myRU4eeVV6MpTqL39/1MFOJfMYMPDDc1XuGZN5VNmkaqnnfq0srlDT/LHKTDephNyW03AdaYRt3Uzt8UX9RYWOybRjNm6qj9mtYnn78YLex338rmFePtrjOMO0q0McScX9qIT6kkeE1nPatz76Ve/6iJcBVrl7VNil03RPwhOytbKzorSuBaOwxX/KLLGwa1Lrb0cHlf1KqAhQKNjNuIMDX43FXpoYDGTrh/s1NxqceWym/o38kFEZ6HorxB33woB9TCUZ03SUhonAk0ql3ghg0bJdOeZZmrUvF2wZ521XP72wWNInb+4HG48sESgu74DcpnKhKSnlVlqqE32DvBLW2V+GAEFPBzpd9Viwq/ynB1sJ/Q8VIa3XE6Lsd1d/apVRirafrGPlyV3F/kRmlAA/HrAaSw5nvyJhYWz6s3wPY+5xh+R5t4OUqd77/+1LCGF7nZHq8pheTvt83CppykIRbHQXQe/g94EjpiAi2iidCai5JdLYgvP1Yy0lkFr8hpIlyP0SIwihpNEaNhQvmTpZ31nGAFRoG4ZMXQ2u/LUHe/s7pchWjOcaZ0B9h3/Oy4jouyLe9+LY1Jzfni7UB6UzDpzjkl5gP7pRB8jzy+AOjkN5gi45oHuFqLS7Evtf1gHSNWaJvDiZ1rnxBjJqKclPw2LHDiotb4g7PpJYgaZ7Wsiyssn1xqrnsD2EVQ1Dquwsp0J2o9RYvwSeKIvCn6OVlT791W1dKfOl2IE3ttzthakJQVFa4soUWCjknaxGWMNvEhzsQ/vgzAfvGZYQ3feevqHlwDb/5b2BvgnJOAa3oYnofDVw1XXd6oXwRjNODp4OP+15LP7M1SGHoKV1CGAdfDolbwfHBrnSzOTRjEwZMwXPPRcfS4G4Npovi3QhnGPpRq0CedUtfAmW7efgoHYXA54uwGeyflvqV9IFYtI9jvl7TPTTxLFim08oXb6mhcqEGQ/vtZK5srYQqO6ZASKw4tUnysPc+AVXIVcbmPaXbiDxajUW5ciOmZi56MBpka4wzNZ9baJtSdLzyph8V3AfqUw+IgkBiAGtkcWQFwqAF/QKfkiOu8jn+TcRCvUPQXIpEzJoX96POX4SD+8+cGrvMQk7xGDK7T3N1vUbZVSfCabsr1rHc+mb5qlv9O1MozRv/intfBMWkRWN7wGKylcB0Qroe8vlcQtdLj8Hw3iUzCVbc3836ppOff0tHKAK4Ajh8bB6MsR8AKrEelPoPakcXQG/XoDsraT5ADfglYOfWerUZDK8RRO6I76HVRt56FdnUIxUAKh+abK/Zgr7u41/WLEisclEWfUj43ZBJdnp11iQnWdF8/k3iwQ8CusOqBXwzNnkYMA+AzW5Do26fCcszGyPeZbs0PowL6pWI1AVc1Ls3zTK5sR/5YfzZaJbwm6CBOVWDb7Wx/efcOAsbt1jiIf/MCiMTffWVI/veRO4zBFWtGe/GuM6yVf92HKzy1ejnK2V8vXLW1Sra4K7nKeGsyqJVolc4ag+ty1Sqw3m+tLYnRoKj1lwOMQ61zyrr1tnqqCFeovoGZWOEcHOEL2lvZCHO4JmJ3E8ha5qBRRM4C3W8DjG2YAWfDbSKbXpVxDuYNsgo7J058mfdaBHxHGKJKgw2buvaRcuXBXJiOgLnfr/jKW2YHnHSoyFmpOujEuDlyTrfioIivhPGw9OTTjVV1AGjKJHHwhm3mR3uF1oo2D5ksmzVLR2zZ+qpcTuxhy2BbQdk3Dfvne0udj1+AOcz3O7huO/Y+XG/d/m+lYFxOJG9UyquxDWzPXjVcs2LDwPfrXeTMOGGq12QeDISyknDda62Mk2tB1Ep3ryNm3+dyaZULZIZgfaJ44IXXgpYagypYpfMu0KI7DsBKs2+2loPaUuP+PWPgYwWshPFoBE7+GW5zDJOrBlZCxgqWEdRv9CblpfmR3RBOQs9XUStC0Hn3dE97ffNErO7glaLq6kCAwt5nJ6Q9cQ52hB/JZ3oOTFAhbZVwnCRcpbUyHDrFNs9yUDw9zxgUUnyPNsGcHxicYuT0G2MmTYozHMR/eu48py9VE/32nAZhCldj5e93f+tbvWICrmWM7P15x1m/ytmwXlpV2jKF4QPs8114765oxFQfbMD52YcrpjOx7mr+wIFwOhuEd5cSwn+4sV6a1ho9jVY9J8ucVsvWSyv14PgaMm0WHTs1TtOC4STTINdUgZzOlZYAnIyYdFAkNGSxB7bYxnid5XCoPwfjN2o6xKvsWunRwrXQrzT0p5WEd9qRVPvrdDw4e8h45fWR/T3pSHqQi+G7QCt4n6NVBV0xPg2Oo7VcNO6oOrWyUBS948Qeh+vO35TT76tiPWWXLn+RyL8H2sQ3z/wK+42B6wXCmPbgmlqX3vabjTPANV5luAesFxlo/1/j5pVwFSI9Ug3RWtG0hm3Cj1bf19pbD8I1LbVLVa6Dj+B156BFHFneXMZGTArWp+EK6if4TCiuUCJOplho/xjgukhqLzRmIqs73uYEN3YqvRE2BN1dbkyUuWlKDkvWPuIPXl4Cje6EzEUskbjC5drHRqTUNZCOKubTqUB1AKfhavkNsfCWUY8GcNDn4klRq5HDwg4SDb/Mm/IhuJbLyn5cu/HUWLZXJ1Vb4auHb7pkKd/anbnGwu5oE98875TJbw1cL0FDjDumwY2o82YRVZc3leQlYTPDxNCqvlq4YrhaDSaQzmw7fnu1WmFkOkbvWvHWmnyj5OUw/Eg6rNUH2CQ07NL5O4haMcc4tLzR7U03cWd98vqKXalyKDocBOvy5267vY/8ERTitRlOqdKsTvQrhiNDrEb5uXQ6ugDD2FxFrY/+4B53sYMKtKLYwHYWeMZdt4Sn4Zk5zIOp8iH08oN2oFSko6AjHB2QKwv5CpHGp1ZE1MqHONbJf1o6rtleptRp3taW1NHqYTpZxQrz8EQmS3qmKdIcHb+3gu3UYTJxmbSJZXoWzX/7Y+8Q9Kx5iT9+/BHhCuO9yN8n+Q8niD2brRIkf/5fqqIrOLevDa4mqFWzoaIumlZuBpocRa2Ea2uV7K1m7ypwLRCqNVHAYlCaA5lfP7ITZSZM2zlb61G4lpK1+3t7X+8Cs4iKm9i32FfAHzQwmrqjQxu2XhdoywvHV7rjII0bpPpFPMJVY6Og57lGHwPX35pkZLnESfKMN0jtzuUybUuJOdc6ZihjOL6zUYt2hezouvYxA+FTKjn9J1HNTp3dXKMqUWbKyzJclTQyTs0+KBbbbsOqDV8/JoUtc0TMWFiu2kyHZX36nEfEX3z6sfh5Xc4z7h5ruFH1EEPmXyfm5pwNZzHlaN72XiFcs+TFQzozhwNLDtkw1+LtQrjWknCVETGWlekHuNYZo4ELpAOZHC5ER7Y3emk9dQzWDWx85VoyIN2tZWVP22fkRT/ErRDR4ulbpf0Dr4eZBqIF4MAG363zHpO3ajf3nQptlNgUG9V4kfZoOoP2yKio3OjaE/gbBzksbpXmjAcfembgUnNQrcMKlf24TE9/XFplRftUEB0u6FEEPe01s6ry4CqtMDwgbONwLZIYldJrsI16gLtNfsbm6rDAzry+TJ+aVtbuvtEOu30gEj/XE/HPX32icL3vOjgBx4kSObwhnFoxcfjHgK/ndfre8BV113hQ69ryIrw36WqCxQ1jNKQA13zy//lGRlBS3N2ws7arPp2BKGo9PGM6J+XwOFof+mlHKor4bQm4KorlcIy8KcSLgzGUsqOmxrEecjB7kLSSYcTjUlFm2mM0JUegc9AjH1dYjJE5T8pOKWgnWVE8t+Xii1NWG6ZVHT428WCb9fiD7PVowwsmitNbSWo9nZ6ur0Rp7ixvu5xkjwt1DBAeGqzClar2QHlRsdfb+MsZaRzH9LAKebKczoTndW8mDRcagvVcWU7ff/uZCi63i9xtKg7XrIUURG+Mc0gCrldjRC1MXlMM3UNQazbAhAlUenuKZX5dDSMMHuuDhDxrMzAmiPJl8frGNTDqby/eaGs9RIswEyag8URj5bEz9HYVRoYr8QhlTJjm8xKVtzRtuLq5ztqdfuRYqk1zEnCl+pQGDB2krRaw9KRELk+xG/UzBxWm6k2KwowYax/o2wqj0Yj6mZsbYx1B6mEqgh94h3fQwJcU9Thc9ZnRxLNvwVXEM3nRH8dcUE/RInAQCEWzUxvgvzUZyUME9jDuhzFWpsGaUMRWFt/9cA0w0h0EBuEowLXPSbgqu2KJI5HduX/DQb5IYdlgn2ks7NefK1wv5h4CVeJwhc/8m6iN90M5Adf0OrzrTF/NIidGOVyDysPo4xQUZwN0y4cNDXlKy72Fq4mb0+/gqjUNbxeAVQnCSaia2sqm9eSllVz+idBvTUGnFru3dmTsxEsrlCmIY5TFSH2G0MlSmFO8KlzivdWEpuYCxN+YNlcAb1DJusfnyCESa0bLG25ml5vNUmQwxQ2dmGQyvGwgmXEuRhFEmGXHyghpw8iD6YN8ROC3VTpFruJpLr8OhHHKlgAOin1WNcQxK6nKR06krF93LNAKbu1T/swHP1aVAzSxLh9tYA1zsoyD+E0FgF1PFpw3vHmMhX2Wdk4/fWU++u8nzP58hGsD3Pa3mRQY1Um41m+bd5ng1bCGdXlDUWtYErBmR8bsOwbXAhc5prMSrApmlhG1gtg3WWwvLk+KWu+EcniytRKscQy5bo5cQwNXvJSxqjiD+shLBGzKtDa5vm32L+bdThywj2FRmsOIr1UL17pNKS7T1Zh+5ghcnSZJiht1IZWZboVGTDiEjKTHVeok7S/uSFY2D34IjTRCWnj98wCgtaSzYu5JUatLUWsICyeq6it57FOZIr0rN7hlsl1Z16lljpnX+u/BUv4VXx+uR9c8Cp+sXYNF818iuxO2jW9JQtv5m371DInE331pHG7PI3+o/nsGrjO7/1t3WOdpKFY4fF23nXnJfw2sYW2sVTkID61ojrNQOOtdL3eX0rSWHHhbj3DN8+vj8dhYMbVgL9GbNReXdCQ97MR0qaLWE51VuyZlciJFNfQll36iVN2UHjG9uF9kckNwe1EbwOYKDmZW6XyrDma0CDU+37ujYWCDVTFxU7Uio2PytJ9tu1j7nIq0YOWgc6P8nERbMioqeE8jyZkOFb06iBRngzazpCljRYPVBzsoPc6GuHlbuFrjsF7O40dw7WMRrFqHHqlxOTgHQK3YGFANW4YgwReHjByP5+Q/MqNODGOKnBXhmOA7kp6naA3IaY5gJ5m9Bg5Vj3O61GwCj2plne5+LOzHn//4wTOr778xcL3IYEz/CNdGduiCKDFN539NwnUwdu9K7mtgDT84klbXDkWtjJMbpcl02IvRKLDqEM5JuP5y9TiBotd3q4V1iIUYDWo8jm1vOGEi5o63VlYm0tZKpEq5vIcJ3VB6qxyDS1EOnDIYMYnrIW53gB/k3xFPyOrEZDQ0O0lsk9mRIPPDG0RnutjOuM3c6QQavJBOTC0uTNlahUCfYq4HvzhNAbD5IlYogdeRB3sOGUhaxk9JNUCc5apZ29QT9xfF5qFHPohaXYh4ihVcWkH+8O0YhQOFCdh4RcoKW+zVdWPt8NFalnmyiycveQz6a3DVo4PQLjv3l8xdN0PiTz5/dhEd3ypcf7ks4XMrpqHDTS7zth+Mk3BlFEOwKDmzV2DlT7jynZ8SRdU2Y2cZUKXzpUR3HROufOfJpZWdlZXGrHKAi0+4eEv26fmhUlHrXfdUZyVcOWLyHItYe3g7c6HhKQmRUEdn3W4jzHfrYPHIcCfAGxu3ryIOpp0+Bln0JlWLUEubDa6B6NguHBh48zzL83SQvg1cDXQ9nkDjk+tYxcZTyUgUtTbQpmlQIRSHwMhY01UnszjfeZNqiTS1GVDUyi5IUsLNWfo2159Q3aP+4AdpEb7ldTIiar1C/gYpHCqj1W/gq/h9QbtF1THDLK9qM4fmNYGPotkNXcbpNyFuL8v8X4Mrf1cka2STnkb37/5ARsdW8Ypc2GfGS/zRZBS+6TfXe3CtTjtv+u5omaQhgpw27ZZy69vXMGzSCRNErbD+ggJtrEGtSftgwrU22AinH/PggsI1XRN+Io/Ri/O3nDAdF7WitZ48B7OiEEPWuGu3XgEjMw5WLlPEfBSau/iO6TVyO1xih2pFGBlDatck2FDKUQK+JN2x8qvaRWBA27YAgdje5wC7gew/J+jhlsjC8b8ObZqsYFD8g6Uy1iJlrA5D1NnZHVkY4fBKOI9FJ3fFm69YpwbRtkQ/qsRz9c+VbCGtVX4wlHnQ1z0ufWyUuY0zSKTd6OF2gp9fgxtsP0L3VXbmhANlNnXZz8bUjk9BVm3MscAGkfh+5yAu9cxGTl/v4LpAVmkcrqnh5BIk/+XvSbieLW9LmMgMXwFcszhOVl0MBee0bk23Hs2+34frNazpNwpmrdo1eBGjqgXljY4UD8FVRa2nwMriQDiSQ138DSzhbJwz8dUUtd6V0Dl6Y42R0dOh6M7pwVLcjECnms/nOwmNvDqKJtZM3UGV3oDDUW0WsReqTTfrYN5qBwYaacpLK9h7ckmlKxhT/KSYApFnpAD2Ag8+EZx1AW4T9MeQHocCVr4ev13dbNp29xeOr9nyzdonJr0xotZO0wWpuUgRwAg+Ew8m4catSd0Xp0PgmFueTeX3WhDNzxedCCVEzRDX5YERxT7dWpOubPT8L8y8BWgTuMKeb3cO4s/IzemLDz9UuIKGyFFTrL2GF32nsUnAlVP0bAeX+RdPlMiqqNWa4L3Wyc1GhhZx2MxljHOvSnPGKkgn57COGI0mSUwwrz2yvImTmE73Vu08Vrwcmrvga/wWaWAOsp9GvVvDbiCXgBHifOcCVatC1Y66c3UcFAkZZzS+HpeBAFb5Ct8WdHF2fZSx2qx9ggVHyR7lZ4LxgYpatc/F+A/oY/Ul4AjKbq7DgbUqjCLsa+tLEbUuwbneLDnLycOY/HzO5zr6UbJ74OOPZFOeNmpLcPm5CnUlOz3WWZXy7/gYalnCuiqsKukpYq0XhkjCo0e2sCLqTl1bT9Mm2GAz819MLKyhTTwf4v/PHxu4zjNWdg+uWW/bz6VWCPFL6pXak1IEwd3LTt6gqLUKmVxfjfkLQF9dWyvrsKFLraAlm9Z6obHOZdSQ9P3ljWEccjP5lPJGhkwe7pr7fhGOEbWy+S6AwolNr2/4pRhRK0sDzwMIh1YUS1ES35/r0RsPneTw9qWoldE1ipubm0066M7vYj3YcR7hKqMgiloxFS7QcK0iYN1JU+19/ay7pjgW2KjDOS2DXD5+pHgQ2K1o7gJ+MGyTemOQjxEuN+j5HdoNK2CNJypLRa1NilpBSaZ9an5APoXZz5jui7LU21T/BED2Zz10/SCUzzN4R3n2FGDNqyj2b8G1KCTHQSFlAbCxWNiPn4+D+HefKGv4jdIQ480nd9/3bgcJuHKxPPIymXD6QuGqmlYVyq2dzP1WRK1Q3rRORskpTnV5oy6H46w/ubt899s/FrWWuL9xNAvDlDQSMXfpktDEpPbISvUKGEIHps3FY6GcoAp/FbqAVu0JvnkO5FA/s263yjTeLm7EDWPF/pFvDSdgRRE3thxM44RhS6/L8CpEg+SgiGGQBzNebSHgW2uMnMq/0iTfCYXj4TE150ZjNNrVGYOhGayF0bAYymDmxnOEMI35WIWrPNOejWBuwe0N8sCZQ2db+nUjfH2wSyRqxSR12uiNsmtqiEK22xTOwbvh1tnfKGiA6dt6U171gokYgTzS0z59Jkqd7z8na/gCcAWrPQ7XRsO560+m14lRE/+Fxk6nFK1fMFxJi6AVb4R3NULQRdQqlMLTEa2PnbUFYlwQIuCKQa2HRK1stztRK+opdRyaaxCwu5qNhK2tFcXlDec4yK3qtbN03t5jNxiLUNtnuOrmTEZOXgftJpo4JOkXKWqF4xiCacUmKY/2UataYuyy052brm6eyzMpRa2ANj2cQCy24pqd/Qc76OyNGoZwGzqQBgiblWfSw0kVuOT5DwHYzdkZ6ElBs7SQfZPDlipF3POZ1pQzMxwE6ErsxvQ1lilH7OIMF0O7u42ND24nbaZ9sYuvzlS683fhahzEjb8pKGrqIM76+NMvv34WM+JvGGxF1vCdN4y31wYMHvsZv/4+XH9Pg86SCV4eXGVxYxxJG0PmYLyF2WcPl9JWjBZxur/Sa5giWIwQL969e/fL4XGw8iIwp0Vr/Sti1gn6VOBLhoweUCk00AkViAj0i2rjJN4I6HxkHzBEothzhlaKrnbdntkeheTV9OaGgeTFga4vHbRCcn1+L4uM9fwcNhSew+0LAevKCRXPjTok8FEOeoNl6RC0heN2ERrycZte3vAxuErUsQbGfgfLPhG1hqGkD1gzUBsgWUWYB3X72/su1z4oVywqyKhwhuOlRMMC+EPui3bbG+2sIqBX7pS9k97QAWeaXlZgJbPZiDcGsK6n2n9QjJnEf7biNVgT/B/89nE999lzcHP6+iuF6wVoiNU9uPo4jDkF3HuScG1NvW7Jb79MuHJ3g86aC3FGpYSzQQPhOnvnX4pA5/cC6z7ed8dFraq8SQyETx6GJ82YL7AYRpjOyttezp+RxX2rgYoH4Gr0K1mYkAJjaYob2xwD8d3fGrfFwwk92UUrBIdvA/vCVABRb18YvwQEC8/l4GpNLwmemsmCmMlU6wRcuWkZYuZDPxmghpGqzLyhfaqE78g3ODiojqDcZx71zA4z9CUnMZonWorK+UwV0kLWx380JT85cgqO2Q3rAUBL2y3/jZVrWFSv8H8BrpQXUgXE1VhfyC+XpsN++QwMxH/68kO18icNMTZsakh2mDfi4iwB12uo6/ruy5sM72gRjdtcF2sRSVU2HKa/1F0ZJ4fpMBWgi638b0QdpEUkjsGnSwlN6u1CjxUaRhjpzXx70cU/5aiHqZgrWEUdcYrwJm6jdcYWA23fKi/uoOKvbyDHny7ToRYdGOptCnvFmzSnDayJzy/YpnGdCtxwhJyygLVTlt260xmSiw+ZDg0q+ExjH2wSaB1zWuc47Ir62SGIFQx97ci/ZybkuJvPLIs2rlW1HLZRa8dnpI+Lswt23ZUelP3paFUkSlF8Leufw5UvV+Z/DVpY8QXRDvshlzr/tVLnh28/NBvCkjXbg+sUZn5RQ7h3scJpBz6t3YWdfYG0poegVtzcJEajfq06uKdD0I2oFR6fPi6t/NQ9xOVnqcfhcbQe8oogATFESfJGxmhahd5nZXtjODBgF5o03k5qVIW8dEP9OAqjWb16Bpai1dFWaPtiKlhmh3UnYtCGJ4tUD2o3XHcHEoJeJiV//WTequxDs/QbL9IaUZ+pHxBskY89mB32T+quQztxK4ie9N4xCiAZJDBFAmMjejBl6ThO+/+Pyb0zDyMUwCQnjsnkpO0ay97dy7w3cwveCRY0QcuEGCOrMVyz64P1wKTKOw2/2wxr+HKc552WSXA247eUKXOXHeP7LWgBrP9WmdA64rVBv0Tk3YtwQ7ewb078/46pkdcYNrVgf1mPwHUC1ns6Qf1TPIZuGObnTjHxv8MrufwJzDvQVDph5kGFN2ZR81JpQA7HwZhBoA601utz7SKijv07BFMftxO1tpg73sSdbiMzGke6zQk1Czm+JEzcqH5md5hVdkMk166Gq+TGwzk5B2cXun/j2I4CcipJ4THh9WAVVdTN9LjEjoxJfLZBTmRKgCvPwfrMqKj1+cG2+IMXKIlDWC4jP9IBnckXW7wV8PpKAGOoju3qndrMs4DePfWBG/LKGwwkkvJK69+Fq+EkgwOyDua3Egv74xMbLLWwb2oP84WB6zvQEAHXiF1T2Jm1BjKFjxYYZeVBeu7/j1jDz34RlcS0FsCRrNUJ62K1X0q+XLvlDXRydhMjftpdnhK1nljeRDxdTBnKMGqLY3NthbeLm4EX9mY4SJH7f5yQj6JWrpikuaoJIPYaoCLJCsZJRZuwTH6BSyCaVkVBeolIePZYcMbV3IXQ84SSv5PNHn4oUnowBFN3UK8A9SllAIfWPsLdx6aXxlJ3N1zVuOzmjtIaflaPQ4UrTYfSgWOsUjV7knDdV9OmyFesoJVQdnP175d2WJztsRuDnc8vJqJD17CfvOWJ+FMD11/mndoeXKfjYNZbY74YoyHeZRtwEgjG/59gq+LW63sgmcR58C1hF4FStJ4zY6r2obyZIB/06fYgL4Kd9QxRK4Go7i4SCrltq/GYDebJMZkHR9MsmuBuwHJUJmpjFVRvsM1pmimEos9qlihcDdUY94A+PhZb1RADVtAiXJGmyrjGI25yEyc/4p7HJNDt1TZvlTraYkmdmHCQLWsQnbbWg+Mwd50Ab0P8UqGDqrQhI8YrDa+BUtzNg0uJIAhK26tvTGSX2jJI4KaRFGuiV4PrlfxywPscW4AZlzq32wyst4zo+OF9fhGA6xKiyH3WsD+bu8MV7ZgjxXfRSgd2Bv+PYCvtrCJBZ4j54zWNMx5W7Kzn3Fj1Q8gxKLcngdAijgVUvSRqlWuqJsbJdZFDJYPXXWlgDvNpgrHsUxD7bQdWGOkvcWWqQMcHNWuoTkwFqN04+3WOuINKEIYLQ38PIXD9Iawf3ZBhGxpE5+k7ch0evHnIWOMPTmlJPqwzAiW5vrkixGGbxtCqE17fquWzjTF5dtXHnlTsZCLOS162NMBdhcEEI/Ubl876nDKrD3adLujF8Km4u3kNsEZpE+ywNxswKJ9Ac4o4cH3yZvZrX39g4DprWsU9uBad5dKugNfkxVjD2Qcf2tDJ/4Lk/yxqnYaSbZpmaESyobSIcxqrilpzGr19f1zTakStJx1JNd+0IwNXlGPIEFG0qrcLFpFt4fL9DAZ9Nx8YGesBuKrPCqAfMkzO47wGYySyG465g5rwVdxgvTumVeSGEj1XwNpTj9K4+i4qdv56ib1s/MHP+xU8E+AbV6pyV2a0nXIVnZPjsMAGysRNEWjAs/ZpDZ7HC/ea4l2yrhyo6lDqtLgLeuX6xyIHBN/uq8LV8BLptkgvpOt3sB+43aY4v9UN9tstXB/ztA+OTlFTy6VfbMTgylt4LgVmyv/Dr8lsb+qZdQe0iMe0VcGlVbn8Z3bXch8cvjpevp+7HTdOw4iJtIiTjqS8IwYyO9Gi90EcrvPZ9WPTaoMk//Md9gnlQQAJAhU0a9luxOHqhuw2WKBOq5KeXaD10ARqHLlAHin6KPlwPb/hfIhLGKFFqHc3fwxwdXrvrnEglwS6yINT6sEClr3krQ5p5pXF3/3hBCg68UwlQgGuD31cjwkDAa3BhfkXT8YYSVvpOfZspC2FYI+oQnYb9EqxUMcuMvD9Bq95XbjKGR2/OKRN+PN39DdVoQ6HTp+/DWA/BsufcH3q+XuquEzFms8643IMrjwOl2rYr6//B3DdtVYHQ1DqdI2o9WVexM6RtARakA2/COo0rk8ntZ66tJr1qu77WXL9G5HFb0pFrUK8ZRCcbDKx5J4/kpGfimlFjTZVZaJOiDhFzxNxarmCQ6lz0h2UJMfUuI3BKotzZKHkg9GHATjXKl4pYbfY40QyX4t5k6qQVhamVwXxVhRj8tOOpAr1sA6hqkymUN6hblbY4L1RRmd+hMTBMgQux6IGiXzD14JrnDZBjQ8NTmeGNXGtZhNfvsnI6fMPBa7vnubBJLMHV7c367pJwjU2G66uwS8LK5fPawJckaSNQSR0kfD6xu+zsIPPWd4Qz5TN9cHDTSH78WRS69NLolbjm+ZHhTdkAzg7uDbxQUtkJ1AGhseuVgvNMndbOGaTGa9aUWk1u3mPDQZUh/T4LKY9koXRZhDjyTCMFDBOgGMNypIlI0YqleJkAj9MDoNAjqq4VAssAVhJTDfBsXwknymiVmJGj9/lDBbDxyN61OUtBeQnaK1/ShUjvZ0R6JlJMDMuFXy8fO+8LTsTnPrVXO014RqnTdx5cBDPY6cDswmT4gwi8RtcYb/6GMMmuqvNRus9K/96rbXM20OOmmKb18YEfNDw8mmIGVYCIegUgpKYKo6kZ9IikiUJQR/iMpWnI+k9UHlS1Hqytba0tWqXMMUZJ8jBEd/vXg9yUXox5uCDzWApKGgyUPnNeJkLdFIbLbbJwBEPGOk2hQKSmmx/65hylN2AGjxUufYxLZk6uTE/eW0N3gIa9RVDNbriuzhSu7e9Z9qwWNmQi+HRsBCGhL4dfcaBrQ9vu9DKI0fgOCrMzpj+qNgJYXQiM2K1gTKx7cyWvWK+1etCNR4Li/NHoQqlDmiJUQfxj/5r1gRZwx8IXK8fu2FiD65hftkK2j/9Fa6rIi4/l88axjQYjMPQhwi0N7KmDzmzvHkZrdJZ4XFY5qYjf1zUevssam2eztEw5i7RcsURN60EKFnezCH7hyqM5i5jylvayRWwhNwLKFmgihPNG8rVqlkiE1VRK42kxFR1SB5TDDXx4RRzL6xKg05MMksxola2R5QrgC1oCKrQKPJyFGdRXydyWEY5C/2JZrYbfIXpQEQCRj970JG0001BbydAO4CJCO93A1V7P0dj1OVSaJIq2xkx6BUR8Dc7SevrVjwWdkFfrt71LxoFStrEG/ibfv8lNHSyhkjD4DDqDR6CrNet3N3E4frbJmN1mpcL193yRm6t2AwgqK1SWvVxaT17e1Oqoh4SbhdJrcdFrXprfdGJCREZogd399DKozBLb61L4NEttpO5doLSG0o4AcQsbM3gS9adL1Urau3wKgNhe12nzIZzIjTLRSOzpQEdGiOrepQkg9R6iFYscGX2suStMh5VH4ypMRqKtxpO/OZyOWOPs3WnQqMJyt6r5CTLktbDu3cFmQ9dTr1qeyviyH/rsrTGzlgQnB3y1EddiTSXGkV8TXaHb1No7xJngO2XNUHQK4PYXwWrp92cPCbMwiLOzv/Io9b99mL04X+cu/7td4Qr8dqyJxG4Vtpj3F5aRS6jY9110QYdxr3Yu2vReH2THhxQwgaH6/ZW1HomLQJ7WbgiWdv8lMOiVi5vXkxqFVqEtFbXjWJVY5WVy7/soYmgrxXreIPROAyjJqX996I6TNR8WqdRK6qMfl/ELCQUct/DJQyQh05cM9HNUUtFVpRkQGl3vSpzpkIWalhlFm9zx02IOvSjWdAZBlZA6zRiRgRxfCbJisIrXmCWC73ZqpJqXc8BabMnjcJVO6u8CyDpuUoK+gG48kxOqELuVK8YpeN0MAlpWJznqponcppXkMj0+q31ePNf4LJhgTSOIKStgzgysP5T7foXHylc7+f+OFGPwHUStB6XY5yZ4qzh7HAc5K2LhOtO1NpuT2GbhmUoY0nLq1X15flSDsV/YNW6aSQrtdH8nnzR62O0iB81oKrbfClMWZIp9s1dwAmiv6EJap2BFoFs2QfQG2wSBIhImYKOM8kspJwYvbrICYD2lSbZXNiquUuS2aeiFL0BcArlRHA9S/OOrJTbbRqF0eZZbIAO5kRWprrgawDwZGVMdgMn1lpq1YC1etlDP+mTeMkg2Z6mQlMGQCHtzwXEBPU3kpQK47T5OwzJRj6TMYyhjCmzfcE8TG7LN97hbYmBQgXG4656UNXGRdxlMmvoMdjfO6QXX+ELKlzxXeINSq6wP/8Gf9NMrQkT+N/558LwEr/8DwH7KeFKs+FlEBajcB3gHPlUE974/mQ4myw6+dRFspq2tIgKUsGDPBT24HNIQlVVvb7PoUVUSQ+mcGT2o9E7xltrJKj1DOM02ifsRkw6NvFV02pc04R1UkmwobDPaQc1HXbKnrLYoMNa0IoaWUCzS6pADvx4kZquMEemKVO/bTEHIy3Aqe1cUI3Q21h2WwMOV3HJwXsSJkzb3PF9GoUb8goLr9ZSe2KP0iRCj3z6uDUWaK0Mh60DTrkq3CMQ42Y182QemyM/O/u+Ianj4nzTh1n34b5VYPTrMDNYKylCqcIh3hlKQ4z1LeiIGFy08Iwj6RvBVQOlPWTmT2EbdC+xsLqE/fjLT/+zK+z3AlfymkaINavs4Dp1u0+3KZBCYzTEO/z+pECqSFxgPYtaJ37vEV6ZzhSdFSQmgPHM7kpRK8eirR/vhcuPOkKLQGftvmztgg9ydkdT11godNOy2sEJF6017UwQiAgHBlXJPRf7TCAe/B6ErJjoOGIN/sjFjlWkLJwCU72RNzYwk1gkx018hNiXkuCgjCCzSKnxbMlIimkSbmcYdW6qbVzt4/vS5wfb8FeDfRJ3jmMbjElIU7EP3olaa/iMkPev0Bjh2OK3lpL84VtGTIOSi7YPdrQfZkp8OzH68bjjyh1DasERlTOzY7NEg5foe9QqDB/4rsBxsB6D3wyu/JfkEq1ycBD/RYPXtb9++J/ZOf3w8ZbX1ExF4JqpQ9r5eO+DmxmjITJf3so7k8vDa8Qvwk+jzXTcIh1JIWo9b8aE3Q0qSfdhevX8elzUqnFyhsX0ks+hs7e/STFqeBeC3krTiQmLRtwgY3mr6pzmsKeBmqta0SY/ISfIpQ31M3BFqmf4fddhYUbBKMiSLSXxbYkV0Qfjs/E0i21JATdiusJE0Rp/cG3abqChcCc7mKzFJe2GYFVRKyoFGStDpq7wpUHrpMkfprE/EyrUq3vBQbKXZcV7q+fxMyLI3UepAyJfB7eIFd0pVpp6x5cr2t+qsiwR9hYQCwZW9bUGrZiZ02sT/+Nwfco7gyhcE+vg8V2n3sDvbQyum6Gb99eDxKVVsahe3yHMWXAdXGd0dyPEiHMYwgyoknFw7/oFUStlcqxzvCKanKtqWSmdMBlHUl5amdSaazPCUcpMafa0oil3Aox5Atg1mtqaVvWczTL7cRCKCWhtAgBznPsw4XVPkqYsITjI1id0waDCcXYtnwjtzFg4KTqOZry6mA7RA4kHlAbeMkh/4itdx5SNCRDmvZSxZtyO+IOTWFGTsuxghP8bEOY3un2Jw1WUd6uk+Yz6K2B4V8wRkN0OS/dUFwBXWQ/Th138ut4JbcI4iH/y5X/hSPz1Fq4/tvxJVEKXmDizX7rFchyu9Bqowcl/ckm5VpEQ9AHCH5FYHIwZ1No4mxahXt/QyfFigtCbA1z+uKj15IApYu2y1Y4CA2LEtBO1Sp7sEH3O9Y9oWlNqopQpLbDCQEts19vDkrrkU93FluwHHNnizYksYE6lOvmlMgjV6pAlPmgp7i3viDma+aZOJZkbWsIgueHHc2fDHDpQGDQDXU6t4lZjcwiUBahwZnbI6KCfv65+HfKIyY/kEiTKEI6OhD1Kc+Uz2voqcw+QFxYo3tUIggupPdpEd34bYbuRNvH6dk7fbuF63eus9+A6sJfvmuPkX+F6VaphVje+NLhSJZeYiJl9PljXh+WySZM7ixdRoo8/M1+W6hdxmHFIsHIefHp5w7+ii5yRpkERq+ldCPoyHayFFjEOraMcPo5eAJwQk1puVzcbOnwzRsMz3g2snSESKUo5mF7ktybcKF2XGlErGf0FmBxu1bDHM15p2Jbh6KJQULoRs2t2olYttuAxjskLTcxx0i0woZgA3+lyOEUFOpuyJHAU/hoLV+AN+rnNR4StKbxB9YV3RXnexaDVtNiC0CZK9ZC0CfqbGl7iq7s50WtYPcEgwRiFUSf/RNGav8u7w5ufCzFNjlcNWyMkF14Wy19zlVNp5CL3fBj0IdvxfFoEd62Ygo47Kmo90lkFrb3WSS6//lP/w/wPezGLvGAUp8k8N/YcZLrIUpU2SkdQI4jtNG3qWYX1z1LjbeVTGLds32dKI/3B6Wy9DnqzRwlpttmpRs0u7vE56ZToWNkcVsoqN4jXDjEoC5r3Dfd4Sub16GXo+ntC2pT4g9M2lc0f5gtdfGNLscbgrbzS8LD1uRNPGlSkw5qLK1zexjtp7rMfJA73Q64Q2YEvrpQ2AbvWQqno9EAkjsw4PvrqtWfEiFBXGiJsdzOZqOS11rtvOe3CT3G4FhprXFHCi4IrOUyD0OGgpenTiklNDs8UtdK+NNemucv1eaLWY301Xs8/FP3ZFimHadrsV8FEYLc6Gt/IIibW7TJOnGxyhJwZFFm7BmmcssUf3NObJE24lcOBBUuYwH1XQqrYBjPGXxx1zDgNXxUSKZNXV8aiQpY3RSNqtffls2B4ZLj2AXMRhMSuEfYi5J0uibCqhjMzbxp9AtCLwJVHgXZ0wma+IJt63Co/9kLhaswm6DU5cZTntPU3/fjL71+3wdJqWFnDeYtNdYfXMH87H2U8wDUmoeuvW4zkviD30kwdi0DmYGB7U0NO8d8TtVb7q34ZGileWu8Pi1pvUS9eWtE9Wdux7847jTNg9VKTPLnHe+gVM+g8IPk64MIes2DYsfgSMDCUXiNc3U3Uu0EhZ+RlzIWiCTfWPjTh/lH2Pr0gbLPtcpPiYQ/XHoN+7FpH4SqiVsvHrXQFsY6MQyUWrsZuHv9iCWBNUV7dwRO8jKtzky6HIPgiTgutdQF1P45qGRzV5RNt4crI3FVy0gl2bR5PFsZiYCcQ+3GHD7pYuPIKe4cOC/fG1u0ff6i/qbrDfPSqvMQvPzBew08tLFMj7bUybiLga5q9i8P1bjXB5c26ALgWd2bfoBzS67rJVUW5ca6oVXkRZShveGtluOdfaRFRUespuwitNA++I3qQpqNd9RnFPYm8YJoMfstzWLYK5o5Q8g3PyIWnrrQ5z+StJshu4Dk4tn4RQyTcJJHDSw1qMy2TLhceSaKTK9CJadPGTMiP6WfjehqucmCFqoYyHlc1SKpMOTG/iKg3aQ0NcQHnPZi7TtbrCS7SeKasmuD7FaKE65BVrrKBq0dzUPk2tnYROltzwofN1d1lHoX3aROMCZn49DeVrY4qdT5/TQfx7z76wIxRYHC4R/IfdGBMN97EB3OFnxZT2JbYlwLXTJ28iFQTXP6WA8oO6mxRK23T+pCkDGwGBZox30HpDcB6MgTdXEtpxKQe39jYxM/DGAqTxjAfWZlylimPU8fXMInDcJUNEMgNaK6eGg4ygAZgNdOeuFZNj8RhkTlS3PKEFqCAc3Cfd14d8BbuGoMgPe+qkPQgXLmD8fF9hEM6MeHYx2fi3TDmEh57rh/wdsyDOlSK+FXNksVBO5eBRARoijM3UGIkoXDNlirrHTVE1LRwwsCdN1HlZOrC4WpiYQubB4Zg/W5oE0/A62saEn//uSH53y4DsMwjcJ36iAGuNby/wPUqEzR7/pvDdbu8SUwnIfQb0Kykpsh3aFTPlt6I2XDuIYFN7WlRK1vri17fACuxujX2dTrSYKNKOlZaNNYe/jBXM1a+aUgUMYXqzrmBYW+Stuqxv/IGybzVI5bdslwh5a/BOPDyAwKfmLQBxhNwp/65gGun9djCWjb64Ni/bR/shkzV09qUTOKqfWKOHPDbWv1k6AzedpKs/AfMo0QfMK3jbp31TMHIF4xle/8cTtxz+VO4uvDKsiiw4NuujVzuW7NRkCvsq/GIv/7SsIbvH0fhtB7lNdnp5a1dysbslws/e21MAIPpBcCVotbi2h4BCl3sMNtJ5UWcJ72h1zdnNi6d+Q8ub641RkOVNyclrWys+9NWl1E8EbeItJhyMqiVDCT0u5scbsvLLqaiW4vQuDsocMl16brdX8g2pbACcEKdMB3e0iq8rfFwUaBoZtNfgYcv0psGOCALD5OqfsbJX8/Io4g9WJ0Ga8zEEpZveaGuw5tkopY6vfbBTzk+NMUr6eBm7bOhDE5twqXIgUZYHo/Eoge6WuUmKvjTEjVt4Mip2ru56N7Kyu7FwmbCANnczOi4fpIdLOzXXmXm9M13Hxu4PnXdQRSukIEsfwmGYNDE4FoYov2PBm8yGY6LWjO8o82XLWSntYVxmDsv8cbcWodFglXSAX984dLaPXppVbR2GNDEUrCGYSro4id2kAYtQniRjB0ml20YdhHIRuW6wkavcKaEYOx0gNYBerFZP5Yq45Svpp5Hyw7AGG6vNAdDNj+gRZQRvA6BPn90A89vyFyYaEXBuz44KsMFZui5T1DRLWJD/3AeGo6NkbVsWExILjTBitK8SdvfTZLkTJyiLLABOIrFjK27YZbFB49AZpJ5MtB6kWOmeGUXWY/W5gQsxNH3v+zuU++/Uof99JMtXJvWHlzxjjH/dVTvF/aHTZCBJAfBY3eSeWO4ZupY3ri4iVHajT8FSQlBz52RJ4e/tbXSk3Imx5jbY7QIglV5ESfcIrAsiWJIyfwOM5VFQUNaBHY3HRfNRawqVqQ6wBFJty0j4NwAxzYsASMG73DUy+Mjp0wLs/Ygck54mDlg6eayBRb3PrjFJulQsR4PMOxZeVzkGIZvumMevMOqzzeICXzDsZdRh4oSzrM268TWx2Uk5TSpXyiZgwuT0KNNOcL4sPHWNIHDHSQJXrk4eqSnsE8xLdbSzKXOMKmW99b/CVyfG+wC07hwNN/RJt5DBtZrXGG//txI6H5Mp/ZYw1D0z39PJ6qFn+JwrVb8x+Y68XalLCak/9e6T9f3M3jRVPvUNyfPCWrViKo+BGQZDWr95cg4eBfUelTUKsNe2qbZz568z3/2A86aDFyZah5MaO5WesCKmPkTP2fLCVw3xDrNx+hnLUoWk2saivFat7N+6N8gVNzLXpHoOyBJ4bgTE18KmFvsxwXduZH+NMRhli+kfhbMPupn4b89e3qkSJWWbYJX/IdYqY5sJpn/Rm1p1lOztpTynVOHnJh0OCU5ArxwGoVNGbddshgd+69ptJoakP3ZK03ysPSTAR530T1y0RqcUBUudIVzFLJkTcDTo1T0Z7Bf+2V3qfr43+cRf/uZget13p5E4IrWZfV+z0+SXiSVWX8/+g/2Y7M2fUMaIr1dimMLIfsiXq4jqJWhN2cFtZqkVpkwPd7+8oKoNX+UzR9lBduKUAWScevubgfDzEBPw7wEoVoVzMWQND6g5eDVVRVswBE6LG6SkNCYUmwIMAEvUPGEcAvhynBaQ3s64cQkxtlk5mssHHcmC1nBsK+pjHXaLm3AZSzROq0176kpKmurn3HVklyHU+QgDzpN9S89aJxm6TMDTK+TXPl5HjdNu6TKQ7HrkvmaA+usbrdQGkPCDPUMJbw3b669+ScdFowz0ibYYG/1SKxCnVcwm/jyGa4Y7tUjRoLTWuv3XjiMwVXW2+4sbU3eLoaOolbs7KBKneUtnK366kh6ZnctY3kD9lvQ+/Gd0bQe6K4qan0pqFWcmHziM/onuOZyIcFTstAiZtcz/tIOSeJzyB42Mla0MBIGKc0R+5dQSk064RdhTXNMVaajLqfCjQTXNFTXHBo0GedsC82r9iALWryUbW6qVqYokbG6lLEyaL1S6yBCVi2gVIZLrmIouZO69bnCCaBRsXqzpspY/2qcpl6mFj12wmHfI1xvSFrGl3Fw7WPE8vx6BiCewfuoIxd/cqBwJIDcXreG/zu4ssTGsZpx5rfRWFgMnb7/t+HKun132/LH2l0NXovr/O/zVDsbhysm9OEyba+L//2wSS+tqMRYLmAtGvOWG+ys53GYRHgDxuFzPPYhTWtU1HqSzM8y05KYjmakJ2Hx+kYKIlwtwLsiK0LY/rA3YTKNJ7IafiPUqGoTU5kdx7t1ilppD2oGtCHSWDX9NNro9i27faA1Ub5RxRqcDygDUBWpigUcOyxCfgpUobPDd6gnjPwAxXlwbYCfoyOpWfsg9qOe6j31tL+aB0ej6cxX27Fr9FYUt4cyuYqmsx4uW7ZNuMHmHqBzd/FZwkmirZ31/zJjOkyboGMziP/zP9m7EvY0ritaJ87iNGmalkXAjGBAQjADQmKbAbMagVgsO+n//zE9594HGiZsieS0jnK/r7vlkao53PfuPcvDtbImVKnzzMT/H9Zw7eDyEIZrbNz8eO9lZoBruGjWMe4U3Gqx9j+BKxmHkwZZ7B0qOK84YJJz7klwpSNpv5gMpiZNbocjqW5vDFiP6VlDvZWl/mVrUWuaSe0tH0rvAUStbEda7JMKWIawxLAXAx2ZwJedZ8BUE+Sw6nCXahasXbttG4sg4lX9Grbgaulxld4NdhF2SlSdcTbLMymxqqUPpnUavbUho+u5TVLyp8KRDCySp2Q4NZtzA2SMyTtncsklsUKdmELdXIS0iHIu5rpqhLoslRvWnq1PdL06QbxrPTGgqXIFEnTlO30mM6ZorXNhETyEgeDw/tb4m5qZ03PynH569UrhOh3S7TuE115wex/05hG4ckg5QcdI/nGb16iodYzGgJfI7WHW2T2dFkFRK/owVCBckn04Kmo9wdyFHmdblqRk5IdFrWhNDQ1Bd5Rwt+EzJBe8mgKMGNUiFYQWqEhRp9EKX+XuhTqSymsA47Ru2wKwjN2ws2lwmz6r7orY+2CahK2ncBUXJsk82tkYos5DUiLm4AYrkczpQAKnIE2liVOOEFriCju7KnrYQE01SCD8YJY4K1JAkJjlJTmS2jzb5zjscPG2ay/ay7cX4iustIr//13rqbQJ+pwZkpxh/j+jUufbLw1c75vOVk5Opugj2WhRj4S88miWacLVpPeHw5Xj4HJGjfkhpy8bUeupeXJyaiZY786kte6P0Ziub61H4eqnFvoSb4Tg5hws25sWjflr/VqRhqTSc8JLjeqYM2LNMvdFqCPrFSdGBwa0SIhZwPooSUJc9moctDD60u1LY5O9mrLUBZgkAzdJdoNY4QuxOMJu2DyYGa8JfFJk4TqOm2eAZYrTY4gd5sGMX52MR2PappIzXMHaFddvk5iD0gc7xiY8oDM5Qz9074O1Dw/fx+AqfhGLWldpFaKv+79V4Px22gRuOBPmOH9AQ1hHdKDBPpu72peE6+01xjbbOTkxF9MWp8TRZLhghlcbptHb2n8UXA0tQg2Ex1YBu9IWvA4wMqrkWKd5fYPKWr/qL3hU+biXFgEM44c+7sSkcGWKjFmEsNSR1IhxWgBfM4VJaw73UzsqatXhLwmDOHTGS5Jlfkf9DOzuK1kuBri9RHJxGcy9LMnk7YavwTUyldrwGxSuKW84pKh1Jt4NIk3dkWSuf16dmPpzkChmsC7FpXTRqyFGA0F0VL2TzI+vpAvjDEu8OWRDzbs7IUKZE7GJWrWI9Gq5Aus31QLEwcFY5/ikWPsDrmxXQjik/o/sIp6DNsFTUbdWDaCsC00yn83f9B/fvFa4rlrWVvBGOWOB/2In9FIRhutN2222/PEfC1e1i3BcOlUHuLUOJKKKbfMULj86KyhP9ItYqah1F1yvo0mtJ1inueEbGc/B5hSMKyEoh5wwFdeOpJFRru40Mv0KFM/0QLHEYhejIBx+1f2sRzHLYiJEoLwaIvHvbfo6zTUlsykk1wiFngK7Sr+4cCLS1OiDYQUDi8ULnHxhNpig5Ta7eaI2WTiqYhXD0NIyG59VaOjfwZkZnqj6XGNI7EpCD77yUuhM6OmYXosX+BG4Eq8L3s6lq/4f2UU8Vyws7eYQpXb94eMHM838Al4Tz9Jgf3zzlUo6H6b2loSuVk7CtNrvxyNW/uCnD6ygE3CO/IeUwlWcUlKQztyumo12admVcfCJ3RW0iOUcfLqAzE4d2kXhqqLW1TFRa3QyzK2rUaXQkZQcKPzLPdgbBaeWKEF1ktrFG0w9mnBn4AgK4FzhbpGpQewmxtvq3aAT2ySaXxyu1GhesAeH8JYjJ+DYhLOl3AAObvQiE+FN9kosGiLdPPJgv+mDi/wWxYzXG/EXh6h1UlV2g3z04OCQURvwCiIkkT0PEpKbUk9UTtNgBNAG7cI4MeXpKtPA5UAYH5E42ggdmp8ZkxIuvH8aoG7gSreJPJW+8UovePjlP//RXGDj5vQss6ZvFK7nd964uAXXajA9D2pLjCUicE3gYNZc/GF3Vw6YmEjhIKlVZpjAwUkh6DnWlaZZYXlvp++xxd7vSHokqXWnV0STojnCymhcjRi9gFtrEala1Ka6e52YKFeBz3CdO4A5DguVOgY8pOSbu6eLopqUwoAlJra5WBVkKfz9SqyQXimEBHJt4xe04wXJ12xSDpm72D5HS2jFLI6D6RdRGxtRq6UfP5ZkXYAVuKTbcMBTPsdhHgrftozK5JGaHodlbjuJodSa8aHPijx6nUqbxM31T9RWI+YwIoWNJ2LJ5v1Kc2GprXsmKey335nm8jCEn2yIhlhbuJ3bQgxRRFG4VnrutND44/auZTCCJo5HBtAw1euXNKn1NBZTTqj//QzzrWTTus+RVGVyh9PkNvWoPRd8E6lqxKSOpPxIuRqAJbm249yroPGHCD4lRh/DkbtXNBwkyqVsVBKArYA3BA5v1UXAOK6SniXeimZh2hWvBmS8kpJ/mFist8cq2MgqoLmRqdYVGBUqQDdliQReiVA3jKSzhq17kwsUeBLAcUPKYF4iZJg2Va+5WIDhGwsPw7TCyx+OzpNgQf3ZeuuWFBZjdfwuYknwiA1t4gGsCWZgPV1Dt2a0N6FwUgyq/9E41XrXGZfi27NhjKuhpugUnE/JaorSIqBpxXgrzbWBiFqvcr9B1JogWIPOCtIbXFr3BbUe5EUUQsX/EIarKWJYeBEEaxkr3v6kIRSevbjRiRNucaAEoz1RPwO9c6mdYZvTXOW1XwMjrhIg3s+wNSaxgukaLJ9xT5hG5WVBi4smequ38Q/eZ1FB8SkHurxyomb4gMiAUbE9nJLmvrldw2GYgBWwuvLpMbuUtU+pxENBHNNrUjlIqTQqI9NgtwZPjmiGPHuS6+Io/FnuWE+bEotfJcgoyGqCuea7jRT26Xj9kUQJJm9cF5LjcigoBzScwrv7Rm72PgrX+aDaaSWLn441HOXyk6t316Evb05E5ac48ys/GLQIKm9aK1Xe7KFFnB8Gq3ZW9XYhSIJAIBuGsf6nKWaoaXdEJzMMfBzZ1+yViSp0UnBiogeASTKvgMzsWFrrjBsUccSUi7hxzU9DU0M7YVqYdZdEHQ2rs6CtAioStbr35kixEL2U+Ez2RemsmIZFLCo2D05y/JUVqnFPLIFJLFZ/8TkUC/LJTvDC4r/f8JjLShNGPofExRBcCWHq5Dykr2N29pkymE6EK48cEv9TbgyRO0rDRPUPf/KB+KczFiTaLVgdhc2GJ6Pmu7tUe/nzTTxUVE1ejVotS2660Xp+UWuGOrkWPe8XCCmG2beOmI43VhNR1Z8km3fXH3eZfR+xi4iKWuXi5qI8X/Aa+p8NpO+xGU1hn4Jed9Wr8vqnFYXqY5a5s+gDbcLi528XYpaqqwLTCHOPBHzSh2h0BvtyJOzwgtzAmZYs38s888aoZk27kazVyDMlCRoewlkqrYByidFwbNHsaEX3TSKRByWRZi7F8biIT438ezCeGQ47bkhOQFEAfNnFEDkND2VjS95wtowqHFr7M9CZBsafGZP/9/mb4rhE2oTbOtvw/l99/f1TUyPXcIVpXhiumSJ4TSs7Mw/BVdnMs3qv0HKxYvjUcKWodYwzGPb0NhLFKzo1Om15I0mtMCCpMvMmavYdvbQSjEdFrZ6h9ClXMHQi5hdTgA5eBBTodXD5ZqWiq+HI+MM74Ur6r+3D4yjB3kqwZtHmeGkNsxsi0XBjMeGOL8HdXwAOE6E76Hw3j39Tz1iF+6byGZL64Kg2VRDjjYE4mRFRmoqj9+G1j+uOaFiD52IKgPMKnKbE67jcAwClnAUAOxfO8NiGjzJJ0ATsRlZo0mWHnohaGfX6eTH5f38sbJ78bLv18JGAlQHxE0n/3xrW8LupX82E4Ror+tcrv1ePwhW/t1iz5VU/Ha+pyGKDb2cmqQIO/y2rvAQjE5Fkxxc3UuqbVoFXdYGdda/XtzqSHqRFiKgVS0ebhAQp1aOy1s79Ir05ux9WsdvAVuSmUk7hClsVA7PtFpuSUlGr1wwacFa6FGon81YXkKbuve1yuWKN8effiyEoguvAfmKbkwnvBfYHpbF/f94ZbhLoUpFyVNQKx+6uYRJxecNuftChwk/bo/6SJhhqUUF151JFrXLa0A6cQVwW3pRSBte1O1EZpaoL/h+QVF8ZcpqbNk/hN+8/Vy7/72D+0751XnNaVK6rGdgPT+Q1vRK43r67D5wwXIFX72wVLEqEayR5ozwEC2D8KeEqotbJQk59QwvRSMw/Kg2IxJNFrZh2+p2VGaXvFrWuRNR6yC5Cs4h1d+po8Vbmb+DaVFEreD9OJjG/5Pt8eTXxHoAbQyuIwpV/keE11dAtL9Fb4125QUbdQaPRcHa1eEXpivLwSW7AZ+e8q8Tb992M1Xq4B1DspGlsWo8Zry5znie4iwolnyaHjrXvmSxzlKgi/PlyM70WriJEUUZHu0mjlbA8cvCSqjKSpU41JOF1ME/uin3UZ8rl/+0tlkpGxhKN/OmtWSF+97T2+g+S/AnXu0KK3qUhvNor2IUnIiR//qLbHn4Zo5Ak4Nnhis7ahxx0+u4WxlClGe9ny0piALCeImpFZwXTYOFPz9dUsLM9otYjXH7uUSUCnWQdqZS++Ru4rkWtHbuXy7LzADf5HK79Z50ADSaqFSV0uOigOQxgULnQmuWKDTMN3r+DoQX3YsBWLNtSXFrJVQTNkUZMIDvM+ovgbsUwc+B10RBxrKJVngnHyEBErcw2FstosFv1g2ifgkbUtRbTz2Xxol5McYpaTdyklLEld4qDOZsJuMj0q7ib8nPDIZcjCWJG04NjKwR6pFV8rtKb3w5XNYakBYt3zjUisznePGna9M/XZA1jnwun3mJ5izZsTfEWDjjIiAybBnaaxJgQXJ9/ezOBXwQZh+hZyP1iTIvA9SSz71JpUOulQPO4VRpYpE4VtZqMG4+mC4+CT1XJEa0G0ORFeEkJCWccP7ImsOoCZZ9Z5qnwTsMwBVQmaoM3SyYejdNoRZBy99Pj9cEWeX9XSksAWtVwsB0r9op0KI0DR/0xNlYdEhVNlnlkXqV5q0CroeQ38Fceyt/glwH6mZLMw/LqTI4AjrVt1COqxdCbqrg8UyDh9AXWND/oNM9L7RWp8f1sRa1Po01k6z2Yrwnp//U3T+MPf/P6lYyaHqZuL5MJsxMczDqH7csIaxjvYwIR90HjU8E1kwEhCAHuuANBJqTp/PgWjsGVZS6tV4NJKrjHiWFfa702rTWtUD0wYxKwhlFDELhgGpre2mKMk0dRK5Rn7X6/xIiLeKXopu9WOJhumPHSpjZOTIFvj0ii5/uPF5zSM1tMsvfLRIFz24nBdXidM6V5qw3+zfDv5wmXf9HIQ2QmT8Qqjq060uCgUx+mfVKoskqqR0OHbCCpZ2RrL1xB5WeOwIxfwt8Dle3FcDhs2B3cgvxdlQFZMJyH0ztlYPN8YuPSjff2Mxa1Pok2AcRejYdnH8nSeeqw6c3XXwhcz+78LUuXcrvanN6lMxJGFK6bn0sNdJeqgeun0LQignTYAUu1AXcxlXzEswrXI51VOIfY6bsFhN6ohulACPpRuwjeWuWV3ha1am/VFc+0paJWpqCPxtiO1oGFLEneImMNaUW1HAk/hQEM+GJycAF/nxMfbVa7Fz/rg+miXZ9pa8QjNG9VjbetRk9krPnlAIsrbpQ2s1nt5y4YUHjmXPNWAXdMiyaejy3tRsYahaoUb66xK1hG6TNl1bQ3dt21mB7dBecjjuMCzNoxIyZ7hMOHbh4npM/LN+0Zr7A3PyNQ5166xxevv30ia/gLybU6Ww0XxS24LjCpaRVp7BGBax2hSS3nU8A1A8ZhpggiwBQdolrDZ7WRWOWPwjWxHgcTrOr1vYPNL5rWs01S65H0c99mOw1bkgJtvvZWLm9ACghgzFvrU3kjfarRI2AZM9+DEuJexd3JqpZ8tQ9zIijQZzLnZ3Di7KrHoPTH6dAOdoOsfaxxIgvQcNgUErWyOOtRX7S4hqjLg13LmJ/52N7gNMpRsq59aJE3qBZg6L+RsUbgKodpbqyG/MjEF5FRIR8QxqNi99aHWe7iLiEM5yGTXj2Lp350mD/7+uaQ+xoySGLp82vg9dWXT4Prt28IV77EMDhka9vAdYQN7/1oHv8VXLtFuzVN1srPT4ugUA4sps7qfBVUBxc3ayfLDVwPBrWSIJyA2vD+HcRLt3sdSY1vWnDE3IVuEYKhMFyBN7GL4J8gtyjApTVHUSvpdXTmtHiFwzee5U6jtbq7kxMxRaqoJGWiPmU43KGL1ycdQ5JN3HJVTaoVbqzmvuwGnpOpkxrMT7B5qUZ2A4W0KEvy4cC6X4qMNZYKOniwhJlT4QoeluvEqK/hSYV8G+Cv207dw6tczsxO6MEpLeMRFwTexFg4UQ67Cb/bu2xyhcPMC0GdqQM4qI+YhQ7K1os6BW8DVu5z7SFsnADXL/7+tNHwDybXCjTEXqYcgmsvlT5bVUszPGsbrvNasjC1yplP4fWN9576LE9Y6GytEbgeDmpFMAvI/GytuCfsmTBtKIdH1HH0btigVbPI134RabF24cW2gTt+Wf0iTOEFpff1bMY4BpdSFs6cdBzj2uJvVsf9X1OmxNE+4+PjgzJWlva2qDsov7ZKMtINucFd0+Y2xA1VAjBEvY5xF9apjs8Hd0QzhNv3QtM+cILu1rn3AXyWuUbhXm/X5rmsdZqWDLZQyQUjtegnU6EcNhkiVu5X046RXHlJkhZu8+1+os7W+tm4fT9/kUOMrlMLsH8hXL99Ig3xS2Pl37JG4c0rjbfPz5LMFstvj5pAD03f2+jEzwpXGqXEqhhRPEybyXJF7Kkh0deHIr73cHel1zdkolZ69Y6i1rM9olYl8wfBkdZKwAa2gzJuSOrv6UlrbTWDAr7L+wANrc/AydSjCTYbnZB3lu9/fgsZFQnLZ7iFo/EOm+khxWP1PNvchYwgsH/Jl3oFDA4K3trYxdoKPSWbj45rXjJWksMs5siUs7uRDHQ8mH695QQa9+UcVodo7eI7lfZ4acWDKCDIDcCvoI/+z/H6BPrZ8zs9M6PDysJHn1kVR9IhnYcHYhMuqZGQw57ixOQH2NngfMHzA2+89C3+vw6A/NSlcJ1lmk8/DLO+fa0k/3dTtxELw7W48M/O3Vo3AlcmeWIu7fZw031WWgSCWumn7QMFDCpl/8lmj8JVRa3i9b3AHgO3Vgm03q6tzJvjVkzKjvDYZ8Iu9FS1GlErZjnYXMRQvVFV5G6bP2ZukrBZQk+CHMgDxHn2lvyZNomDF3l8tPD7RuMBiAZVwL8jK6OkE977sO/pB4AZumI0S/0Ms62iGa+WCTPHg+eQ0FASx+QOqu/6vNTCdpFf2Rv3Jvwv8H8p5HieSOpFRKOLH9NpjTlNBoNu8ikqUAPiAKGXZKmDtAqrUevygs3zg1Dx/r8DID9t6ajp/XrU9HS4/svA9cO9jyC3R7gCPt7DrR+rwMZn28of57fhvb/oPSNcy3AkHSebD2f3wWJQF+EzH3ocrmqb1u2Sr9pavRM29Z6kVvSaUFDr0e6aFhdhszflFXB9aW2BcNjyAIMcWL6Y9lhbPAhz7HXGNVlqzNhhOUAu+CmOg9F1JPMpBuAAvHO8zeDmuy21L7WNCTfLuIN6zabmTFKzk60MYsDqbuNtfbDqX4XNMOn1MqTfU5qarfdpAsySvU9cJJkprMuw0TLG5FWHW58FjZiaLklaF5D1QWbLO6tt0lgPwlU8je0qojvyplSG/lkbpz25t8bBRayMh+cf6RH2ZLj+47WS/D/cgaLeDrOGJ/bqOhhdReCax9yz7YEhi2CrZxW1utitp+3xYJkHCYCCSAFrBK47lzeVRJ/HzjMub3YShFlHnfk3WjjWmnzIsjlcDeimpqJWEiNHGYQJYDi7w7tBPPMllabL3oSUC8cy/1mOhssEDi4UszTGtFjKA1kxxzD3PPUZXJcSB3ndzWKmmzdJ5u6mm+96sAX/UnA1uKjmHSF7g4WRODHxK1mIbVaf4xmoX24gCVdDMrcMZVC++zFIhReAOUbIGtTKbn6stWq2xgh/uS7//pyeEb+V648NwCzjI6Pu+jng+s+vDFxXaWuyzRq27q7TTu5tBK44ow7saYA3tvxcXt/lYsPHObYFKh+Yp2q5dQJcEzkVteJ19ztn1+is+xxJjQL98IBJARs+D6u3y5BYVUfSFkSt+NHHYEQAOU5K22C0yaDkSEzTBai4S4N2uT3AwRJ3TyrPijxYyuGVGJ7Hsfeg9wDVogVhQrF4jXXxKWFDINqdqU18WzNv+Mj9Ga++w5kUT6Ia4QiYU9Qq7qla9E6boF9LANUIWzMlVqydkoc+dy/cP5BMBoNDfqehZ+6ncug4Lsa9Tf6lttMdW5ybes1+oCjsOeD649evDFwLYftg4tWZAkH9m/DdVfUjCUhOvAbcJ54qvAmLWlf3bqyUh6lCaDIRheseUStc19BZubw5JGrVoNbjVkwbmaskLgV0dxHPFxRMAaGTwyl2UCvCL2WPh5m2Rd/FXImkeFDy6/MsT5ZvNY+c3AYUL6VUmMdxTa/UFpCd3ymD0IjP6PXNsIIZGiRx3h8DjYeSzOXUPoS5CgRMxqECI2haLY6S2h/Xrm4uZ17QwgmxgowOmIPze+JEDJtSnKfRWNEWurmJWrUd66yGQ8L7c3uJN+SlzoGjOnWu3ZY1p0CK/9Phyvrmi1cC14eON95mDVdbUJbULrfhym+hVMVkpPoccC3jL6GxCNBk8W4nvIhT4Gq8vunE5ASds1vUAa/vA7ZpLDVbMtVSzlKkJFUZoPcbGNX0Y2PTWvfCFTMX0J1KnJiJAF3aHJRnsbWvqBGzVNcyVpgYugUFrGsrucGF7gkqlrwY8naxn3GPOTHxexKu4YV2VgXruJpaJ3A8GpPjBsuGn+3KGHlqKEhNttarJV8zag8SmYU+8zhcVYA+RNgr2vaLogbvhytNQjDTS6ZxKjt7Jri+Udbwu7OpP9ryBq810ph/xCIek7w61xfoOA7k7E8WtYLFNMGM6Pa8kGrPoMBfr9MPw1WVdPT6rkBX0rr9gOXNPloE0XrMkdR0zzT+hNouhVCsOKZSrrO6njYbuWU22+dWY1/LMaCw0RkzJQoOyfKWgCpJaHMpdDd/UGKucE+sMId7luiBPMmRE86jPAdApTigO6iEVGWv0M79NVdxX5Y5xeLlShZkqfWtyUhT8YURK32X+6bZe6ySKjUkfzw8PKxW8MMAY3CGxnwpF89uG9+vHdbs7nsw0MrM+HTQgLfjn9M47Xf01hvcfuoTNw1CSnp1/Txw/YmsYaZG3gUNHExDcB0N8aHbAxU9SvKf94bpTgpb2idSDoHVhd0sYCaaLA66wss7Ca6qvKkzTs4ZQtS6P6hVLq2HRK3aT2XT4vueLyak6yNx2IlJzL7p4jcD6oqczlqH4ZrC3RXtS80C3zJWnIOiMNPAEBwsJVbECa2FR+dz+X58anbm0uaE41uu2urTy9rt/sTzszMBxPN6aYkvmbdqunnqV4wGw1zMZ0msGA65aa2O+d/wkRwpws9F4muTR+C6kdPiowf8Sjz4pVfWXP2X0D35aReXm+HDu6ePmtS89EthDZ+vmk4shNdMu+e17laLOX/xEaJEzANRAnB9qqi1vPDuP17f+cWruHD5s9nT4EpR63yZYETftQmo2m3ucqaX1sN2EZIotfEK9YJtuIqqtbMC03iI/NS3kJ8XG/vnPcQCmydBWJKRGeFKZ/72JEKPFwQAN+YKi8SGfGKSwk1Sci5SGfP/SZzjijr0u8Pkggl0eyi7KWFUQMRUgrULzYIoJC+j5Wk3j9j+GkmdQ60MZokQ3y2qjTEdi8mcEubc22wiZjXthkpn98OVxAq6Y6SbnHItb/7qrYzgyN+ADTPLLUCyu6vi9uQ+PHmRo/Xv71+f6V6ykJzEtuBqgyzvVJhaFIFr2WreuZkn3F0z/OIelDdAC4Ta2FGGc8gOwFWsXSTOagASUwDL/B1xcr/RkRR0I/eRuG55SuIPAxqVRu4eMIU9zETAEfLm3CFmsX0ObBRsebQ5xGjgBrkj+1S9SS0SK2BQtqSBv6VRcUio0nBk+iRWinah5a3ZDFFq8aPjhD9G5jIeq8/MjFJ781ZVpUpDGZk6g/DUp9B9/cw82Wuj4D4wPqTmoTs6qz6au2b9GV54b904IWbr3FjQyr4GKwDv7Jng+s8fsMqRkJiW1Qs5SmQYXLy6tRLLi8sIXONtJ3jwYr8fruisUJxZ6fsHcPlr6mvNc/BJcBUu/1W/h8yba83m2wHXTYxG+ojXN42uQ8obenv6Tf7XUhwLQ7q56gyNucuyDfG1n9JkqWjTUSaf2sN4vYS4vlKBSKNedTLdIZAzQ6cqI64uYcSEtQ+yrOgGKvZIOuRNLIarhwJVceEHhx1Jk7Tc9u1Ml8pSPHSOZxp/8UPG5Bb0rJrhnOUlWx4p/xlUnFqyczsd2uFnRuGqAVeUEVgjilr/mjLpORjMzdIE/PUptqM4sgxGw/MPT4ar1t+/Ni/41B1t0RDBPbj74A7wlkbgmsfjH3wIeH4vLQJfibV9AJ1csEAT4qHP7FmPwdWIWrG898hi2iFqPT9F1FrQkphW9YsweAUOrQ1c5RYrl0ksZSpxBrXVJ9DnFR5lrKlwqPjjQdMbJmt1eqrTLaI7KC7IUTjsxORMrjCbYFQkcqNnwuyKozTLvNTzQKZORzJeQ/1O8lY9OH5nSf2jLs94tOw7w+pBgnDFxzFwipLGmqUnBq3oYSfTKJzfa76rETtEbae0bDwZc336k+P3+PJUclE5OtobXats7P0CHsmW8cEieDa4/svA9fbeaxRr5RBcF97dR79Wx9VrezKcvyr6Z0PI2X/nhAnxMUkZqiAFumSWNyfAdaCMw0qpT7DeaQj6ruWNbFoPJ7WaCZOANZT55LC7BmmFa5NBrVTUWAh4gpKQ73Nl7HeEGZ8SwKpWNCwT5cxFaP6lrMaKZ0sQN1lHbrtc4Y4HuPEo01Zt0+olVKU7gyhgTrcA0Z3b8k0KM1KbOYUIlKlLAEd9KewIRts0JDnj4IQIE7NG5kqs1vhIkd5ciRRxnr35+aKSsRA92+EPy2fKQClkO6UTJi6RJXlrpsqblw7XCzpSVcCJDXB7gas6FxgMJDt7HrgyNtK4l66GYLuUQ6zhsXX/MchUonC9ySMS5SFY4Kb7+yKqaBeBF6HgL3JZGF4eX6qb7srWWq8n+jil32F78wFY3dtZD1MOTWcNfDHsC0vQSdPVRasGtbbAn4U0DTAQrWk9hiMOTYXZk4lXcRfT0uWjTdmrMvH0JNwepYyZ4qEsDCuJtU1cYENCBVz5c/1arVwTPtTbWans0KBh8+DHca0QKjzRyeXmhDt7Y6U2NtrU1N61jyC+iBh39Tqm6I0ErEwG4qirOtKRcE23hhDZk/OEM74+9FFqxydzvQyxLnzVQKz4vEPQnwxV4/TCXXcZnFjsOxZYbc8r6DDPCdcfvzNwfUCEcAiumAUlOx+C3lUErnnIOwbWKnB+R3vNgBcxxhRRXOgZIiqt9US4iqh1wLwWCNj3eX2vOyv740GCcPrRkTSppRnoavpNKhM5TEOLWgagBrzDBLRnJBfZ+KxRGau+w+rqa9yvfcx5JzRaixM3dNCeMIjuIFz5hfR7yKMe2Q2IeEUtxtTxLGcgDI/sgIxlqNmN67a0POnmyRH+FOJqjFlbvQYlvbV/7aP2qa5nIWsyqx9E+KJEOzZeNOheOCoiWHY+m8m0RH/Y9ceTuaCL67l8MuFEBlEezkifeQj6s9AiEF+PXzhcDDwSYPoJsO6ururors9E8We9OWPdfjgr2GPANWTlX229a45yF+8voqzhknPXtBYYNv1Gv4ham9Gxq3e3HTdWidPXOs+7EuooXK9ype5csm5hxPQLGIc7G+smqJV1OJ1VHUkfO6taKCA9S+dToBhd36dTMTT1NohBSeq/S3lJW2sEnYczNh0LChYx4eY2A9iyQcbAoBv6bJG0QhM+JxnJlldcagcPiRfmFAJTGTOn5rT5GSbESTos0Xub8O/SwLgEfsz07EGO4g0p5qnaICeI1T7VPvk4SFAYMy3I2ucKZlORZ2J+ZAVBqlfC0yRFbgbNTsPyTNlJqsyxi1gOFsPp6uwxQV1+WGpkwfz309gplkszGT682DMwwSqF4QaWN21QDlcdu5irg3xa4tKxTlPZZ4TrK4Hru3PowrbgGlsUbpuNQQSuJLzUF1NYPvw2uOryxvGa4N3Clq/CcQrdEbKnwHUpoa7IfMKl1eRm7qRFhGM0jjoxOajHY7COiKTxAqsoCWoll2OsdsHVBUMjENrGoKw0VXEBRbFaRptuksw56pb/o656YOrb+9c+/HIJi+olluQnMLmGqZEySXZZtEAa1ciYmAmfodDBg9Fgk5sk8xQckjYBHIA7GMiWYFo6sIHo9jOV1WxL0KvGL2mMhr0uS3R2EixrjEjJjkw56+KjeQxmHF2eo+Q/a6bciXCVYzBCNrD9BM/GxVvA3JcSdM0ct2Ts1rUocr54Brh+v4br1G/UyuFr5qgJTU7/4tfe4MtxKw0qUu03wBUnyj6sFwrX4BvgmsYVxeke0dnZcs7jIKQAHz7sDWoNiVrTh0oGwsBQtLN6HDJJZ+7Ad7PlIvsRotaGreW6OHPW4JENrShudTCKxJxe3frpeER+ha+uf5pbI8ZpbQuCVWsR8gePLEKYge63/GSmq7ZplzMRtQpVV8u2jYz1hmL2sV2ASLUD7GhoO2I0GJj6nrZpZu1zkUDA0YMYkxtiRQiuehBwkKYBlUYfalhUfpnAFUWVeZtnAosx/DAUxhZT9JGlMJbfL4s3/GDIm+8l6qV4fR94PTmIfJ+96vnT1SoAXQQRTSaGmCqUMYLV3glcX9O49Kn+L1/I3fX8Pqhuk/x7wVnBaucj3ZVXsiIamHUaXDfCm+LYwec0Nu8T7HJPdLI0wga0tEQbXHSQ+TUfKFLROLnjcPUtLhNDhanJRtRKphN2HOBdQZtK6LBUxspGRj5DGfRJyW0UBzNtczanPdhY6nyXKvFl2cNf5QPSEYvQ0AYIqBsScvgqXjspTbVCax/5uyWpcY4LIpodnSLJxApYvr3AVIva9Tw+0eZLMSavlG0aIDOAwDw4eiamzsbRTe+l+sk46xyBMHljAiUdhbFybWZ+69AF9vWnpe1HYg64v2xixPoFpT0l9MMFpNs3cPGvV3gOVh1KDj7x6CUS8vr1v5+eof41aIh0frpLO5ktuE78VcErxwnXyGw4w5Y/ORmuFLXCiQlcPnyVMSQ1TpanaQZnVzFwmFTUut/rG63VbFqPwtVLNeTi6kgpWFstzphaMP5sDbGb6A/KZPmGyjB82QhnJZgutmjCrd5PzSHFbvRukIWpKmLy8wwynmg5mDROTNvsBkySXZ9OheB10R80Cx15VNRqiBQpWqfNL3kxjSXxYDwZ8PGr8IWifTBjDsSJaXbx/u0sMZZvjU5MTjhbyzgxucMhRbuVLJ8ZV49DfSQqZPWNh0Iar8LYhadxkMMhadWM0ShyuXV58ZcGPc6LyEW3nAzw/w/iaAYaQyxwxU6sjmnNtRHQvf7uH0+G67+/e61wXbVSsViY5F/0oJguzt5G4fr2ouY1Ox70sacTI8bQkOP4CPnyDUWtWdZJugaeEeEMb3Ue9tAion4Radbx7rpurgQtPQ6Nik52rT7GO7k+FARoJFa4A7viTYrcRFqONrwClWcFltJ6uJpFtmKljrkq/WWXbQusqGnYHzwcweE4Eii+4HCKa0/yBp2oqFU7sBxOmfUIC5gyQtRbJuO1lMWgRwyVYpPehNmNF6Iqt5sdE44snxObv88IaW2c2gHsG2PVZu8IopPbqTOmQTHIG4NeSq3OOTTHoLjBpKubF+xIKj+4eUEZcEB/0FWBWQm0u86hjB47B2Xb+r39+qe/Pbn++f1XCteHjr3FGq7FbLwU4/nNr+B62beC6fA0uHJ5E0OcHA5T2BQN8JHMw+KJcMUfFgo65pO3qD1xctc4Bx+Ok4uOmkg95LmORa4t3kEpJrUXvMYEI+zM2i8i6mCGrUmflglz2JO5gbKOARwARb0bYOkPlmWOeTQcI3sg7Yuh/9qEWzunozbhHgZFbFPa5kaUporAdJfrtjOGgwxYDXRkqTrVBRdG+Uuz9pEAZGdU5LfGfLmxhfPrOs0cxbWPcBV9WoxzL4yWQLCO1zkau5xIrZQIY+OSWMcsr5bc+xf4RmZ4T1+wI6mBq7ygcWzO/EJnCDEk1o3orZuDMO42C1gM35pFxpunN1dq6M6U5X/vIiA7BNdMCp/ijTrQtQ3X9ze56vA+OC01EnDNiPHZQ8FpIwf0lHW6eQWMZhCBLoXrD//5uI8WcUzUWtAKp51zkeOZG6kHdxcRtoqoddXyR/3c1SDTSPm/ZjcYE+4RorYwie3iPu1RepYat+kOCg4hM44XQMYohnsfjiHzwdijjFUTcxaNNVyF5utTDi7uoG+BVoyY3H3eDXww/7deH9Id2DYxkidBy27mrdKiQnYwPsbddC/F2oey6GB6hs5O5iJPxCzxcaaQluJiepmKI6mrJ4jdCequGrG+fx+HwMcdUtu39ptABvNLhqq+oJzI1xHpC/dZp01aBLGaQKkgu10N7tbh/a9ewRT86fXtNwpXSNlGky24OkHh3qlcROH6FiE93l1zVM4cV96wS7kBSR4OBzGXYnJ42oTpUk+IbQyEIWrFqvWAqPUQLaKQ3mHuQokri/YuprNOedjznUmmXYsZbWoUOhsTbuYovmUyawYhcDQDpaaIJoe9hYaGV0cZNLo4484XfpoOZgDs9toH4KLAlDbhF7y1ijvoHq6iDni41M1zyTmfd+W4jdZa6atFBcvF5ZoDojmG0nCFSsFdSg3M15805CpSOSNGTBLdod38kNV3El+BT4YL/I3lyWgMf8WE+H689M6qHKb4Epl78BMYkvwm0cKAqx6Dr/DRbaXvzk0Q4qvXX7O5PsPl1UxrHoLGpFwOwbWBzmAlyIyIwLWSce/SjaMkf5LoYo3h6t31Ck5M/ES/xI95Ilwv0SQQXzHxpvD6/nD9sE/Uen4sqVWwKP7AvJ1uZHEtg1KU2EXcP5ydd1xc1nJomu5uCp9ObHj7Qz7rW854lnBiwsESG/JL8W5g9+XSR7aSsE3Cf39FKSKJFRz9NFgMosN4CuMagA8Fn5XJ5tK6G64oy2tKlvnlhQS84pF4Jrj8lidfySIkNfkCpIllDWnm8CWnJ6pZ+wTY1VXyDHnP13GAkKOCed6+h5LBzyRoSZTtwhZgafQH2ZfNDwaLCb+Dm+WgAd7PndfLKS1C0JoApWcO9xAnvbrV3kq4fv39356j/vlG4Xp71sRHxKZlgtawsNIPbn8ZMYDB9L6OkJVCFdyHI7SIyXhhDdO8DtYqMvw8ZZ2+caWK83o4vD//gO3N+cOeCdPhGI3CjtpQ/DcFLLOaAGEfV09NB7f2vcIWzVOqmJnpFiMrTkzmHig7GJYLHCyK/QovuVz7BCLtCaiDf9wKoSmLYA1/gtubY8xi18cVmTF0KnXjDgZ+EaG8VVULWJgi827JLEoLdyqe8wOeJRgTggAOKFzpgjoJ+Yvvxav2ZKeXoz0CRg7IE1FRxgsMqIq+oDR4H9AzF4NGLNq6dVxadcLE6ys84aHeYnCpsWn6GkfhZ6kfDFzPCxhChIJyMM5tnvs1bOgjrOHLeaI6RaoOMHnI67s8abgw+Gv5jTYX8uvlzQlb5wu01gtsN6vB6tqEoO+YMF0fz35k81RLiIDVXF9ft8CLbTD2HoXAwdRn2V84B/UzIoVxLRqnoTBvIVip8MZUdxNcY7zT6L9fgdCGkcsuZrWre838CHChXNRKS1GaokqkKRzyTSN7imAscvuap6SSQXQVPtMKWXanNo4yYDrROqYOORA+LmWA3YQ1TA6tUaKc6YLq7pDg7jpMuLCdyMX5w4rwWn6NLzFPLvyC5vGC5rucl+ND2CKJKbS8qdcx+8ASFtwj2eCwvkBvfab6yZD8r8HkCcEVKeYgOwbFEpSbEbjO6iN8lyMMpg54ffcYsQ9PTIsxLTw4xk/as2prJdVmZKdXHz7ul95QeXMIrQaPQAedmFgbL6aIAcwUndXBKnI+BzPX3ndCTLH0GuhgI0nckG/LNIxEOypqTUmHdSRDETdJEChJ0dcEDsQc00sfxw2h5GMnRO6RecLuZ3Kbkxz15yCVKW97zjQMeSa+Mhq2CiemGLPSsyKN53LXB+agLBKwknJIbQD9xQ/UJkMd0+sSn0u4vtDox1+/oHFQVhYWA4xSkxxWd6XH5Q0668ICsfyDuukKnem7v//4XHD9u4HrbccP2wcTccPz9GiQjdAQads1STeRE7MHrpkyaBGylizgb0ysHUlPhOsls/wRudicrq6NJem+gCoubw62VhkBu6ZzydFumA7DtYl9K5oeTutoRzOGIy+Uxb4HrjRFInViRBMxhSvBypOltT0o2lANaJ2WRaI0NTX47ZL/OMHRKbv2MLvoQu4/5IJUGuguuHLr4w4D8OlxLyFYJfNmZEgcUZcH8f5mVE8fnqiUxSHkYxKjcAY94YLhsJAsKBfjuNc38V8t40vVmR/1ojureUGxXczBDiUdgB9aHuSudHmjPvUV5g9hWHF9/fjqfvU96EzPVd++eqVwvRf74LAoxz/HfHr2c4Q1jMoMA/DYypndIehlnIM9bEUQptMX2g1GlbPs6ZrBbKXodW5/+YWd9eFhR2PlhEmDWg+JWlvo7b5taYoci3pWA1dTBbKYuN7mPuWyMnZtfUf3KGi4MLXQNGOYlxtFK2ez0NR4u2LFhZzogEEBJjF0h0w8x66FI/K3apzG9M9SzJ62/JTyGbYf/CikpcH+OIGRLh8K7MP8yZZn7l37+Pyh3uuACDNLUCz4e+BXYu0jozStw46kKS6ac3jmy2YvobIsefv5gpbGjPhnM6ovu7q9UYNOHF2cJnzqPz7OmL4kWp+v/mVYw7d36WRmC64x76FlZ5YRuBJSNQ8BiCBK7HYkHSd9nDDTSEzBa7JJaj1VMzinTg4DcChvbndeWoXDdMg2zQyTANaN/4ljclof4YqvbIH7MxWBEC51P4NJZtOwQekMrKg7qIhafR7vl/TezufVwgxMg71UAzXhBleQJg8Jhp5e1cXcRQQ4dDVN9PyHVUHUAtEHq4BGpKVeClNhuUHC2kW6eeSZkX2TGJNXlJPCj0o8EhMm7Gg354BjcOWnBNyDOQS//AutCld5QXlphZn9EJO7dg4QNa1Vljd9rlNCp0JsW7988y0Ows9X//hKWcO3q5YVnh4Buu6q403mEbjyot0HJccCXCNcfrCYoOWOpQoPH687do0tS7j8J0oG8zfYTszoBfXuP7+8283l14Ow0CIOmH1z2mvIf87mzY/AlbQIMAmscuWSW5H3HMrTwUxFJ+t61IkK89fFPiSFbQiIlHkhdsPJ5lD2KYNnQPqjCFaoBQw9Rd7qjRyEL0nkyy2at7eUvEkCnT5YKymHbxXSuiBU0IIOfkrdWhX43dcfzZfi9+PQU984VKCY3DFp2Gbtc7SzSgaejbdyNFhiePHCK6uV5y9v2a+2rh/urdpVd16nSo4FWsS8C3G6BYbwL4YkYHorVHPPWT8KaxgODaQhbsG1bGNbOKpH7q4kG+WSPG1F4KrbGypvwAoQuy35dD8NrmZ5w584DcERHUl3w/XsqKhVEUm1jCBUS7PIlTaoWO0Y4i0jULnInOVG6Ycp+6sT0oqGdaJG1FqmypOD0jlaqzar/XBFO7YRp8xjL/WogtA4Ml4T+GDu0rK12280JQnO337wJj7d8yRreZ691LtuonjQqs0g3eYvQCbP3NMKzSFDKgbq4DzYPNnE0bnkMGVftuxm6wXNlsSJKe2C7YV+urm0kiEBlrkPn3osbzYD4a/efPvPvz1zfW9oiGf3HpczIbha99N0tRT5cGUTTICR5o3b23AVr++e1Xo4e/B7uTiFXfKTngJXknRAdYOhV+EcB//oKVhLHUnvjnL5OWQCKSGiaZVc8LT4pqmoddXysE/pZuM85IC5lxg3ET7RUWZ8yIRbe83CSYk76ATZjwQO/nE1STLAIgqcKA8qCYDz+mfMXW6Ekt8bFxGQA4r+BexQ/RYltgGjVilSfcx4rVoU0qZi2LeyN7Ojo6ETrIfjcvCTN2p1euqrpolJleM1ylNH4KruGEkPS6ckzvF/HYW5vJnFmfiZLfWC6fkdI/4rdRW1Eq6wr8RUoDGcXn9kn9kIsl+/gcL1ueunb14pa3jlj4pbcE3BvMBK4OQWhWsJGsiN+8RjmtxknIRYpxNYsaul0iJOFrVecu0PCTqkN/yRz54gapW4x1+1VqDPDUSPo6ymVlqSWpWIwixzDIZBGFTenkaKb9YZ8vdIs5GUR53pwpt/cbjNKb2B7AQJ4JDjLxY3OQaSg6UPLUGiiyswCIOOjxB1UZRKg90aVtmLMij5RpknKY7Y1KD2OjGZCdEgiyUtCv+0rFPtc4wWoV//SBj2LDl6vHRn/ixKlzdkvLhoBR5aq4paN7yIQVt86iUT/AxF74iv3/z92VsrNznfvVLLzzPQEAG6RxJhEoNTb3D5a7hWEBAxDMOVAVXlIvPgVgU3Qz2KLNRPhCv94y/xIvr3Zxww8SyxW9T6cH/ML0LNXTxhFmxKxiau31S/UmaCrShqLffZ5haLEXlAwBKUek6zI1nmqhUVa1J1KbWxtBXgxPX/DiEhOGxyps/ti66xXMiq4peyL72RcOSeKm9MUA3ZEjAjtvhgmiIZSj67uwsukttAg9Otj/gWl4q2rWufyIPDNuEWdAdwxRNmA1+zkKj1MFz16xucRAceQoHmf3l9yzusAVVlJ8D7h0tgLiRqJZe/RJ96+hKFKD1ffvXT84NVg3JeGTiAhpgph+DqpKerYZsf0BG41jG8HS7aGYWq8YsYOUPgACwP4dMqVk/ZOquotV5zmvtoEdHWetzcpRpurcYFWzexxuzbg6h10G8XycWzhLcA3FAL5eEjShn5Oqk1t17KROFhFofPinFiyo2SAE7EKCLqFmGhYogukRTHi413g+eiPOZrZKhqhwQcDlAdegkHG6NyISdbOK7PSDmUtQ9tKKtp/Ldm7SNPiqZpoVwm8NaRpYWKyzPJ/jiJFiE/rk15T4O+Mrj1vvQ9K3/XErGQoedPGkO/CkWtiU1+fx0XDRe0CD0VGmLE19+DGfFJ6l9vFK63t4XUeAuuDRiupDMcrERGTWDiDINGLbPurNi0Vl34ocC5vIjT4k2Y/XLcSplbSShXpqBY7qRF4KR+sqiVcB2ib23AuvaLWBsIExRpF2CFqJVJrSrsFMDC6GJZyvBgCnF3WrWiihsfbAsYrcA2jbkU/IDJzjPYhXqpjT94tLOqA5SPeT8ziiWmlSwjEItDGa9WCot2MHwlRB3bAT4YnqrMRmZnFc2O3D1l78MlQs2962zWPttwteSHJcoxFoZ0nbvd0KrpOC1CLU3509Lchd/WxV8spviFBmKXsZ2ErVavPVBWsMaWUtTK1nq/7VP/+ntcWj9R/XsN13cte5SpheAKv/zz1gTwi8TQvYWQ02fEpA6Ey+AuNmB8dntXqGLfQFHrqbQIoV++xcHSaV3/8p+Pt7tpEUbUeqK5S5omYIBQGK3DtNCHgdkpWUyjdq40WKtZJAgOXDuECmDb0oVkD/ocsIiHZlrFc3AA1M0vKDC9JFWYJmijAu0SzZnZVGgRomSkAMKbK7hAUDsYJyVcbsDhC6LtQI6HJFectRC1evdA+wlUGpsq6PmXImq9UNsCzKXqZf98xW9Np2FhHyZlVNDlDTk+k6s4Uc4Q6F7VPY0WobJ5HkN8G9wOiFoZw/FCkWrAajStoNnZ96u7dLVdmsHr24haJbAJpv3u9DZ0Knz1xZev34AY8anqH98LXHH0nnqNLbiO7ML1dFzJRmbDlzfLq4kfOGuvb9imuUPAZFilYdFvo0XcUHmD1tqC1/GH/Y6kIcrhcbjyAuiEVSVUj6HA3SBkPRgztMsMQbds4yqx5dZJunLARU9Bgl99QgrO/HPZNM1Q/MDN1ntIwuAY2WEZ4IS3Pmo+msyUlmzIWVDyYcVk2twWj4JExfoM9COg2ZP7NSQJPg8AcE4n5CDNkvgGmr8kRkGB4zD9LNEHK59w80zLmUCPi48V44IqDzkKV5UR2EI5ZnD7XxFVWQn64g4sV27wQ0xErRwIE67iUw9+8BhHZAT4Py4ev/ruJyhbP139+IOB64f7YXULrj0nfXtXTcyirGGQ/DNukOxNOGFq1/AdcxHBSysoAHLZOQ2upEUgyR8fTx/JODw72+tIKkmtkNQcL/V2YVc175/4pvHL0+hd04KPNjoY9HtivZTaFFWqVpV5xgwQyzjssPiQ4Io3gF4uN6NMND5XJyY0w3x9MpxCxgrbZJ1FGYP7DcXA8nicrRZLcnzIdq/Eu0HbXMj4V3e5Yn708yVMkZIErCyEa3Vap0MFn2iX6aIzKC3p9dIGv/PuDPsmj881D95MiHwfV2wlfgg/2PAjkwcq/D3Dl5GXVpwH0FHiLznzRuF6CV1xvoJjzxQ+3L3EvEtRq7L5SYsASyzVvMOl9TYkyP4GUrlPWn8Xr2HAFQulcAwdqL/B9SrVnkPPvE1ris9rbjM1juEUTOVNOhiKT8Hs5rTtTXYThNmVVjY9+/AhImplhTJvWgfJ/KY2axxD7KcDgzhGrEWtRN4C/g8wgYiIWgXXaMrcrSxnfNEXFjTk/MHQi8lSfE+ZXLuGw0QbwMH/HwlkUoBzrJkUoUwAZ0MxYPRCaaZit1qMN8h9Ga9JukDM4vG5ZF9UG/D1yJFlwk/2GtMwkIXRg21Fl1kYEJY36a5qiCCmTMbyYlLLYZ3LPOZ2hpTDo9sbQ4swZi8krZfmZG6/ZFGr/OByTuT/3SkacTj4DdXRWtfKmxJlFikfKcjiU/+gtIhvfgAv4hPXt18oXN9hrDsJw7U4Hl6feZluFK60vHabuOhCxZVKrx4eMCWuq2sa/uApcJWtMycnmI1fc1u1z5FUPQ4LitXT4MpSc5eguZHRtRjU6kFY1pe3OCr2VLdOOh9is0qiM/mFDgkDPJLKtGFJX1FOnBsjyrxBnk+IZTb8GphJJxRCw8cAoSKQtc88juN+vJuDdH0PVVcfjEIW6JyMJ/j98ORLOw185QArGKJcgM7cZsz9qJ/16F66ZnQoe9FDDLxTHNRVMsJ78obDdFR6wy79X/auhD2N64q2tuO0id02KYuAGcEAYpkBI7OOMKsRq4zT9P//mJ5z7wONJiwTx7HkpLdf27SxOlI1h/vevWdx8bkG42Ix5i/+X3oj28V8M+amlzcUoOcqAVFrrYkzz8QI0N/sz8EilPvd68c9XG/cwQMJ3cy7vBgPaiG4cvM+dAs9vNq0jIYx7xpOmO9kxRGZFnGNrQQ5lnciX7g8Lmqdn+qshVAFAItKBwwjGCe3Rr5ag2g92HI0B9xyMNumWX9zJKaGib7ws7J9Mg0UWOiFDWOZvXbpD869j8mQNMRB4Ehw/g5NuQY1LJ54lFFhPFbWjSZtSEHJ3ywk1BcfGfqVWqqfxSoUxIoh9t4Fqs6x1HF2Vkxj8epmjgAnTOAH216UzqoKCI2oguhXHEn/9AFVSontDwd2p8MVfZdqG8M4FFErqC3jmy3mLSQI64QJl1ZMmH7/+vcOrtu5Nw2yhmMx++6i3SqH4MpFxsi94QIQ3eUGrbUWL6J+jagVlzLaB8M1TSbgh0PQDVhPilpRQYuIMIRJi6CodQ7PZtIiZhO8mkGdaFgr6vaSUNyIlIXO+Asxd6Gv6MAxGxgBbAyUaPh/ALBemota3pf1DstFipucYS9EsZV4SaSsUyQF6a8ek6mK+wiAa4C1Niyt9ZmmqJ+F6yi+OTq7wDpNF7Wey9G174LW0OelMy9n+eTumdFoETCHAVhxylfDiD87XCVGIzdzuaFvZYY4/ZaltWrKcJOGanNakqpRvdIiXmPC9CXqX895eaVd0+14/UCUk7Fut4XU6MNDuJKfk7AkS/AGCJ/kSPooRrN2UVErT33lmbvEhIn84FNe32d80whWwDlo7aKINT7fAmnklEJzMMIgr1RPSZc7/v56vguKAaj4ePFVzHJdDIhaUbwTM7iGx//8BhYgYsKdHtN1lJT+3pizKVr5cl3KkElepVNHsKpl2fj+mnkR0RKstCsgFUlMH4y1i1AS2UHjIBAvuCAmo0OkSVD+4q0qaxBdn195rrMGdQR1C3d8WDKNKHa4+lOPgwOqa3DIvZvLGwa19lfUZJgA/xqsI6oOJ0w/obPuhTffvcal9YvUP78hXmnXdOfXS5kgbTgJFa7X5e8wtMppDvCzQLBj8/wkmtaIcM2LZnCD9AjQtj7imn7YiUk4TCdbq2I1zWULGowwC9rB87DR3lCAvkx701yFn4m4jp6hx9ueA7uaqyLrSrT1yjTYp2HoXZOX3L1ltphwG7k8V7RczPA4RR5TbtaSP38UrjpPFkq+WrsQrLCo2EtTH2Zh8DadYDAr8jPrnvFIHuOZyO95F/zKM4xDIwo0vAi7RSO4P7vXt05VgFXsAPhbTYMDqkGt95fWJpZjoL6htQYoPSJq/WL17YsdazgNo92g2XC9cDv3q2Cm50NEic2w1Xm/vUl2+1cUtWYXkVRyEnuKhrUarf07eH2DD31wHMwR0ylaBIGoDdTvSf9R0oHms+5KkX6DSdjcHVQ+XC9GrTF6zokmZ1GvwvTzjfQYMTHDgbfKvNUHLuG0QxTL7IVM+jMpZK9y7UNWkt/qNq/ULSKfR5i25kVqHXwobo4cIyUEKprxChKxoz35gFGEnURnp5s4V2CMc8SHJuxoilw14RwwU6OJs1x+/riMgYVdot+rN8CvBNr/vGdg84KqNux6NXIQ43uTqpbVkdSIWpGp0R9i4HLx3tAi1PD72cvzotbPKqF7ZuawHWxnHtAQ/fltIUa6aziGjskOLXja7mM0omsGm6OBTVGr0CLCFVrenPZN83sBsTU58ekAXHlppQtgG6dbTH36fJHVqvA4UwBOYhLXhJ9ISb7gcBjj7WCzMv7gYsKdByuXegzZ+I497G7l/xMV2fVz054SGo74FmvGq3o/8EtQC2mQlh2KXQ96k4owSEfOLZX24Bwr47HM1AyEz3H5g6LWiRwH+Hv8s8OVLyhDvDBC7bRF1Np8IGqFmsqB74sMhPdc/kjKm8+qyXmuw523N/YkFiBKdCcQ3M6nWby54ZBkzM1q/SyFXVFFrYssPrjANYA7Ueftx1OiVia1nhGgqwTOU2qPorXFBQpBbgqddbm9nLcdyE2xdhm2uLBwGLV6VOZZt8CVaKzkvc1TzIJLq952xSY8ZJntutg2M8sKTa3aSqlL/lBms0CehPUh7AhECshYDz1Yunl9Lf2t1e2TO8bPxSaeqcq8gwDncxGugzkyMl+ZPZcoc+0DiwoMviZJc2k9K70xotZx20/ORhTo/bnpwSieEIug0ObL096cVkiNck25/CzmyfVF1IpxMDlM9yymaPzgz0ny38F17q4fwHXqIuOlBSeDB7dXIRAW5Y2OTouI00oBCjDMUkGLOCRqDSpvTnfWoF/Enp5AMXd7B1cjvCn4KZwcQZ+KIxAARKCAjDXUWaUwc4EdLwh8Mv7Oaps7Implo8M3MGWCXBG4rs5mJVx0JNtK5rt0HqzQQIdr2dCDQ3mrXjJDRRCeqXfP02EYtifG5LJxWWw4vcYjddWEtc/Z5U1Y1JpRf/LotIi8qT9OXGQWZRxJYZm79vDyUNRaYz/diVrBkCB/Lyhqpd03/SK+cP3j9QvDGl56rVIAriRZbS8cDpPyB2JodeYfEa5i/wcpD435D4taVXojSa1nWisvrTQ5DGWg3x+G2zgHg0cAXrN4YX+Ahih5c9t2U4YZb4UpEvhyzVtdI7MCH0FUZTe7OD7bx+yzDbHCtmLMZ8Xvud/sb5hJJm9+PC/m5uXZ+O12TnVP8MEGrtLsXSxhXNiMy3qsyElz66RDi65pXYd3XZb4yTD8jiHoVgRRq5ELgWPV80GsQBClmRRGgqt+m1dSxeIfxWjCMNg/MFDGScOKxyY9mMKbxK6zksuvmTdK6dFdK0WtX7z++cMerr16qRu4u84cf/vGSqww/gj/dFy1RqVFqKBEZEjpbSRR60nKYcfwgkN+ERZUcoTrPgTdq4NgD7CCe9tvWMstaEByIFaNakjNIr3VtTLNhZi7aEqi7Z0Mw7DYGacMRQZIxdKfcXL41YL2smCWebNhaWqzZx7M2nVYshNE1DoBW0kthCngO/NMlO3aALixkyE9RabXGvVuRXKLwKPF3RStdcFQrYi5gIf76dc9SzadVW+tzYzlw/HIxdYPotZyQNSaoz4NKcPqSKqi1m8pan2E+ts3Bq63Y8I1kMnc6m3fut0+rkkHTIHjkWkRYtzURGu9PSZqDfimnY2oEhF3MhnAqi4kfKUz4RhMhbnnMO90QV0F/etaBWaKE7COalRN6YFaE9q4ljKWKcUms61OMA1SMkYGsNBd82w1sjAlmb9bFToUbLmRIZmxfVmP+jtKPkGjalh5JqlEZdrzE64L3D5lY3QCrg7zchw4PQjAGcARWDWd66yW+hbrT5vCDref1TNSFLjmRe2+WYHczg+kZh80EvyXX7lwRzsrX1A1CSiIqLWyF7UCqjgSD6ecjhpHUhNSBVHr49SP3+xI/j6ozNVAJvPEvXvfY97ap7nhKaw13LAM76fL/4qo9eilFdubNPf+5+KUzSXUdAszXvV1jcMM9KXO9RCs2K/V+mggi3LJRZY5cEPHQYPXgKOphb0tOAhI8OI2g6zo0TTl4s+yjvpm47131t1+lmBTYuWCyGmRWEx6P/plGa9AYYkO28Z5QExddspUEdAgohwqIHWhwy4VRGXXCjzgkFe35giseGMWMplMkrm9ORdQFbAZd3tCOWwW6ZIYbfSg5NPFSkelo5GuIVeC16+2w5rGY+znYhbk0H4L+UUqvVFaBNFanXjLNz/du+lC0/ryNSiHj1P/eGngeucng3BFYIN9+749KaO7/hbNINl6g+T4Bk+QCXio1Otb5GqnRa3KBjYjpiDYSJltp4XLTxdQMPKovKmiMvjQAQNggW3LwOnB+I1EWzWK0Kqjs7LJMUQ50VenG/TW0Sypl1b88wjFgCCHyQSSl8XAhspUCiDVpTjZmsbQYTerPiYUUG6QAyaGb/W9foZmTcjk2BDnRc7asY72PLoj8w8cgqvxoXGx9uEjuUHrV4RZmdL77nlaBP8HXFELoalnqYqKRxNQ8SOsryvI0VBqBMzSYDee/2rJFaRF6HY9gTkdJ29goeSCXt8IqKqKGe9lMKLq29c/4hj8WPXPPVzTEB9Ug8EbyeX7QnL06XDNX4NJsEiQBAXK4fvLi2PLm32MRvp4ybV1bPaYBq6S4k8BekcIi6BFQHoLGdmoKwltLq2YIJt/R/M2eOrcXt7dcPQjOhZUC95JoEN5FLPkRS5PekQRTkyY54BEgDrMLsYkmrfdmc7heChdgJIvaivX1mOuQ7NlKICbDVjb8MHwfFMJjePiBOG28H2BZcK7Iy8Mi0qsh+/N4lSKLfSXcHWwe3H9G+SJbtDJ2c2xeuXyxtNL60m4WrK8gX0rTidgSfaL13ppZUVaSFLNl6lS4WyqCwFllUTj66+VuqiWuf/5sEis00hLGjtVGDHd8yLwH1a5mAOPQxNQtXMkxYTpMYvuaoTrtuAG3b5BSKzfIJqui53EpxndcHnZT8RSPiT3zNE40FmlTFArKn0Gru1eaje0UdRatnRWlqQuM74HvozwOKwbbr2DrFXwAOJ9OE+qVrTNIzFr58AyE0bhO1kjk6pQtcf4XNAHpaQeAEdFLFy0djdGcLZixCvpf/dlQSvLrCy857G6W9AH04mJdkh2vTTiWItDKrH3Z/q0LzaMKWf/4F96dYMZMh318+/4Vf0ElDeqE4ouavW8Oi717KzXUaU3POzTm6KLIFB21SFK/71RbQwRl8XrwNeG2J2o9Ypm9KkeX6xpdVRDBUWtjNFYXrwRUauZMKG1/uVx67tnfxW4Xtx4E8A1gNdW4XLuZ/LXnwTXPEWtGAe3L94z5OeYqPXNBbNPDVTPwtVLUnbKkskNwVoQ5iyTWredXj02HNHDTLcaZtsyoV8D9THVeo9a0Q4GsiYUwx/T45CZTwwz1/VEf4oLcMEDiWHnD54Ky1jAyUAobKZyheKEiW1OHoVSip8xUqmQ5LQpx1LjG4pUdW7te3zmO+msMuvAZ3y8PGhfbCFjVX9wQ6wwqyY9RnhjfwyF30b9xeFQjKDWc0mtLF1VoTX3EOBRbxhxchwVAa58pylzaJRi0OYn7gt7jiHeFmyb++Kh/BXCleKUWswuXC4L9gwBRjUKb/aOpBS1di7eE6v3Xt+wi3jsevXiGc+k7y/n41Y1CNfqpI1EmtmvC17IsmT2Qg9daAa3lC8cld6YWOWocB3bD0Mt/LYKc6R7pW3wPNAFYOYr0DGwcZO0cl6gC9aGUzRY+hX7PdTYtLk4E8nZH9SivD+Az/+cuKkH+Q1BdoOLPulkyurEtCpDsyMchUA4sj54zcxMYJL2+xAc8HoO/YxD/ib9XTdUPUsABxJ+u0l85IgTkyjGw4QKy+blCrQG/h+LZ3aJ1jPSmzAjg/aKNZ7do4mTDSligeRJOfkiHzFYiRz6a6aBSzob7NekvMO3qbd/vqDY0o/BxJbAR8WqttaSA53ce2ExBUWtj17fv3yucL1t1zNBCV1j2lsul5NfF72g+T+iGSTjcEuv70Mh6MYuIqxAP+MbQWdP0zZtj5fWvSNpx7fgt4IusE6a8FMp/aP0Jq0scEpgWABJFEsA4wZelDNoWUx0TaVC3FBsWrXT4hMR9Aff563SLxDaAmfGHCAG0FSGJWPUZgV5S8azbSLxGshXqbZc/JQ+BHb4yixaOf2UYAIwm8W63G3zdm0jcX4pt2szRrasHa2BTqkORK3kTeUFrFF4ETosQ2e2KGpNQWnNYW60MHv99OJyiqgEVhO/LAyeGsBxrgaOyFfEOsYLyjX5ojzzOiJqBZlTzL5NZ+3T9mW83PLN1WMh0UpR6xOoH5FrpRK6ghN7ANeZC+ZtXaSYEcsMEoVOjBHTraFFhCsoak370fwi+J+VSW9ugH5bha0iar0ZpwZ4pdhzQi1HiEC2wxxw3ML7o6nrA93sY20w+rM8k+YZ6NhoMLeYXLTEwKLdsPqDm+0LK7Uz8/XteixBIzYJohs4h90izIMHkJ7TdnQ4cFK4NENjvmDeahweewPp3nVecvMMYI0l1R+cN9idNykfSa9u4Jy2Z7RqazIY3XYj2qaZrEsEt88gao1OizARzDgUcsA+kn4aKgi3c7DdwN+trOQPP33XGP3ulBcxGrjz205vgsu86awmqbWSg/U93t0ALUJFrU+h/vHqG92nbDsp+BsGiRIWHGlSlWx0whk7KycoTCBO4YvfcwB+BK5Cizi3u+lIBbwiOEFG7dxdNFWZrRWTkAwmTMmQqJUdxri2cHuRBxthKgdDaIrY5t5pmxtMWi2sVsCtAKepD1UGouEUsDtnF/6FCkQtPVxfXQe8Gw6mYOjfaMGt/1rCzIfd4YhTLdWRD3T2bNMUqkEZa7xPwHbmcx05aY40N0bi1a2iVoKVJqjWaa/vcEYsRs6xEUWt7IHR4EpDeG6nGlVMlA71Vr3AYgrfEMu5/gKN+8l7sumsgGN1Hmbavg2fER5+A6LWBO42XufuTZDS8w1FrU+j/vWDgevljT2IBRWvHGN/dHNoOfmotIhsljTdK0Qhpu9++hkfTwdpEXzaPqn1IFADaOXEd2+e1gkWsY5skLu7dLI0qpGFzbXi4exGakVLcDD7QM5GaTrF1lPdQYVx6yixKTnFeoWJdGVszZeXd4KbOkc/KO5YLPT0HtTkdLBBP2TGq3sq0kJ89Z1SuSh0wbi4ysFYFJemGUQJu7WPRzD1GQNLXjW8SZcdZS5y7WN5lEpPhs0riFqRLg9XDIyIo8Ro6OG9bkF5g++5lqfH9Tk4ZVFme0PGFI/rGYyY+DofBmwZrJ8q/hACCbI7m+mnOSZWTaschD/g6uHAfaiTxABCRa3604BA2oSoFQMXJLXudSjPnn33t788mfr+pblLLr1JqRGEa723/KnXxYWpGA2utBqiyz2d4rZmAP5JjqTBIzD/xCEvJqKZreiGcXKNRmYm2tSDr7GZOdUhF7v32t7kyc7nPZBfKMW1D3pwUWSsdrrD7FVjwi0yHCKrVRr1MWiWE0RJWutJQxm7RxI/l1oauIovNNlW+kRr53TYACmQQ+aYw/x5XfsQyz1PvLppzkKwQtSairK8CWbEptR8XNAUBa6Gw1TL4WbakNaqaD3SYXFqkNttWWdOT5U2oT8ZX1DabIEfyjSh0U7UmtiLWpP+zVZFrYbL/+LptFbWj98aCd1dr1UK0hAza3f5s18FXS0qXClqzZdn9vy9XFr3YA3PmM4ltXLUa+xdWGamtCsD43YBjehi7rdwnCERyXNl2nOM1uOBvxir4feFklxxWGFIs0JPVhmMyOJaM+hyaP+ZgTXp3VaIFSlN72gXxvRu4AWwSLPCErEgA6bjmLGgAK9W+P4bUr40SOVw6ADLyGcdWfvgc3+07hVwYrgFYkX33qvTiYnf7Qa746Tx+o4mvZHWnBzQPcrQIqLAVbbJfVxLSzEcFXeWnYdLRqm8wsZK1WEFB7EnGwCgPxmDTBLT3u2b246DofZe1CpZCc0EbcCVy783jHjx8se/PKX6x3eKovfbdpK8plLJLHKQKjD/OT2rFNGFIjmSUjNYpoz38uNJR1KOmNqsk40V5rk0YtIhcLvAeghoIUYkQYOgZ71GmKaOh4q7YwvGaZJiDrCi0OaC3g17f/CB3CQZlm2NKZyl17iUa615hGYahlLyXcX5CWUpKVAZrCZJNJRXeSF3z6Bjt3mwTpHpDw6bYDAmlZRJ3gc0O5wkZ5uRRa3m39XtG9sk4/UdCUZKeljBB53Lm2FO4Yp/HCz+Df6JUVfuuGXoCJ+iGjbgSLoSB8tOwcVM4d6RtIJKYIQHUau6iBmsQnnzt6cxYtrXP/9u4HqJAMthIwDXgXPzcwFuhx+uIlkp4yJY67Zg9q1e3wfg+ka2NyeTWgtyQSVYDW/dERbRONhg8dV0JAV33p7m4lnwHJMK1iNwlamMRfrdxrQ5ef9pbhTwFd2tX1LOAONbQKsmRiDLJdQB3NVStbzinU7Ixc0GmFMC8qNwJaHeTk1Gi7iEOKOUkh8Ste4f7PDTIC8mzE5PZmljeyprn3fimzZFr44gamVjpfTGJYEKPzMTfiJT8fNXOmLCxza3N3IKPthdQ3+jTOZnpqEjp6unluMscJUXtFKt+x3wIiYNM2EyjqQSo7ETtb7Zi1q//f6JgRWFoBzUm/dv5pAkcNa0S24ttTo/3zjdOOB6hhahrbWfm1lpeE9RvrA95kh6Oz/vF0GwuvLamUp5GqistaccisMZlprOzqMldaLN2fAHBSVfNk3MmSJywgJTw28QeRnANULXZoIdM9mRbYU2J9lsefyoo4m3kxscUtDsuAloyDWAhQUVO9MaDopa9UBs16cSibDB+JosSgvp6xuxepWEqmSkPDnzlyarq8owe6VPRRFQobIbsPmHkjDCVU0iUvEPDskqHoH3v4g/LdqE2S4WORoA+wG/TXuA7U0zIGrFTyxJinAmQqfZdda/Pzrl8FB9Dxoi4IpwnhuLTXUP19gk/XHuZhbn4CrJevEmxzN3lyJqPeZIekZ5QyASG70HLzSlM/dwbQvj8HY+dgaqFs1NJSLjcKi4alHoFmEnq32+R4w2zhI40wMmn9rnLKpWuPiQbrjG/8B6AEopkKNeTMV3i8TMFcagSZYKwdXiHoax6+Mk1ziiudk0R9UZOnL4mfvn8sl0IeWfX2Hg2u3icBlnDloNypu1Q/xaEVhM7KziT04hX19VbtFpEZwwdVFmeRO9qKzTLwTPCRK/p0ObMKLWLFza7R5zrmON3D0vosKg1u4MMMa7e99anyGo9SlNmIKS1+dGG7MdYzYsw2HF68B/u/QHG8D19NaZ68tKJtm+Q2f9eEzUaoJaz5q7qEouEILOF1DhavrvDUNi6pCvXTPGrjSGZJ0imbBWNCWlvKCeb01G+Wu1YWA41MS5z1s9YBHqJpnmhtXHqjwCg4LAEWaxvIbQ0A5bbRCqiddWKGoV/2rkah7OCGtwEwhXoT/VUyf7IxkYbj3TJI2CYvBFFuc3DJ/K3LQaUWsEt+86HtMDvZrO/GLqlGVFErUyG3pIhT2XN4HOGrXD8gorR+INyFNPgTYhT9eBMF/QwlyGHSK9yaFkeQOORIOrjLdYPL7dj4Nf/v0JMA4Pb15fvRRMob/eQNmFbPGMgeusB/7zunldPEWLUM0g7gTz7Vu01uOiVo3ROJN6wzurXlm1jILcN1bf3K6AqCf3SAnw2CRaYOSPbZMpbgXhGiQKeLgF0sEMwBGOgq5gDsJ1Fw03XBSpOl/BYXajIpbsZrNZ0DMvnpv6Ep8sDVY7Oyr4TOrocJhlRxeTQ8jPze7mGNgsy4UbDLa6qvPR/2eZljNBZz0jag3J7W0ePdhZ+ehIcM3TLoIKWgptRM1q0Bq92K1GRGwDvMSnQZvA0xWrG4rh2m0YHDVGCdxaKzpiEg1OBqwYUA4DIejPv339VMGK+htmwyYq58bK4EBj+ms15mLMkqwcZQ1nFwvuGHA2nPi3P/0XMRoXx0WtVN6cFLWytwJ4xtnIFNk9VMBoW1avb9hflfPvwDcAI6PZdS/xmQJp3Vq1oiG4qjtoYZxsUO7GozCNt/FGu6cOlqQSedSzcoaMFgeKAlPh8GuGZSu2AcVKqbe9uKSEBg9WCY3CVR1JQaigkLbK6EeYtQF1uTVny8cRZzY6gFkf36VglUsHXp+ZeqUoj+RICuWN78CkkfxKwUvEYH/xKo4NIJNI8KD4KcURK0bKJdBt4NiM1MtHhyteUCbfxxOtwvanLZZ+q5XGaLDQWVdIOHHSOBVCh3KxryfCDz5WrxVVJA6nrfUMpyFpsNWMhYwZO8HP6OOi1iw1g+3bNx8pXzhKDz57DmbR5BAIDaJVz4jpAlVynDBRgObM0DpoFnRFh91JmrQC3zMnaEHMPV9Wthk2vqJm2twiRzGLCmiOr0tt0Jm6K/n5BLIM4IBCm+toMBBxnyzHoJOUBxuNqqMS8YCQFlQrsUNiYh05/rr2ObV9sdwWZkN7JyaS+RmapwKjCLQIPtmFEnfGGA026WiXVuMXgbNslapW0iI+tcpl8P4NL3HFGeSjJdplWfILXICpBHZn2rfAN2mCFyHjYLZWnTAVOHDZO5I+e9qtVdqrgZYkR/bqM3MgbvC0v/WGOE8chCuPhby0pgqXiCI4HNQaVdRaYKFXPXAkNY4nvLeSNNAB41BEreUayTQYNMEgdNNIIm9AtN3GItTk2QiNz7HhDgpRKxeueVokMwtDZ7OnomvAxl/HEmL/p2pATWpNsl1zzYNV9Co3sNuYeQW8SQkZmja4TIWTU62sNNjRuyA68lJ73KxNufhrBgEA4PpMiloNh+Os9EZFreM05uVdmVDloy1vdu90ZVSFZ85QmcCfDFf9UjL/YwyH5v8BjwnXPB1JKyVIw5YdKzOqPBC1os1S1PrmbcDrmxFVjy9qPXd7fflCY9RlPIy00FIsg2rwQvrGb2wwLTkoatWYNa9zYeQLR0Std1FEreIWYanxWSCSRs1dOgXZ3nAGD54ggpXBU1VGPmSsDTLylxK1qlrR+1KZKEWtkg8Sp4n3VDkKR43T9OtgcN9EZ9QBDD0OVSdnM/eimuNGaAFGiJe+EW9Sc3VmacarQ0tyjcthi0lMU8x8dJIn1j6yO55B46ab3QWfaXIEzk+Y7kWtoLqAu8UnR3ViAq5F1IpfOKiEKHmdP6UUB0qb4LwKS5086hHc1/Z+2PkmlDdtJrWWEKNB/ule1IrhnzOeb3EqlM6qIeh/fwqi1nP1w7fPzEyIB2LI0SYZHIu6eB9v3qYz/UNwzXOASc3gveb+4reIWgtIjYWUfG98IkxdOpIKWNOiBfWZ6dKFSSNbGR3RhjWVsbYgPYNmQAyRWECPyjzBPJzlwETahUZthpMkwHV07cMdTJ0n6GS1CaqEHveZFtVKKqFCADut5sBULGbhdTjmgwu+Pli1ar5LrGfFzBSPLYKZ3LCh/FMnpkNrnyQH29jwuq1GX9y+i0bUGiWoleUYUWsP82CGoOuPG9GJqSiiVhGgB8hKn1DBL6QUNiMnYhJLHgGuC1lYLMrTcWFe4GhSzb4FruTyw/cOeoqt2d18HZfWgDs42itLRG/LtD0pAa8QuXTed2YImmFAWWh7w3nbaNrbcnlDWkSoInh9h+GKptQKXlvpNi8cJ9YNJegD3KwQNEU1i1gYDmhG+A5yqImXhoqViE9Jo2NpduksEZfs07w0kmbJpXbUqEkPJnBwrGtb61GcbU4GphC16tqHJRsVhCzSn4z+yV7hltbGMrpipPO4R37bQgIn85qwnO3HxqBdeiLC0weFvZjq4mTDCZF40CyaTGp1o4la1T9KRK3JEr2cJA4luqh1QRdHtNZotIjotIkqjmhDzqdRX9LfVB8j/DOEP3r4mO9NsNQKilp5bcWo+O7tQ1Hrtz88PRLT4ePwt88Vr+yvAJ802C64uIWPy3Ui/uEBXDVVOS+B8He8pZ8TtUZyd+lwaqNAUwUMHUmNqHXnF9HdiVpRKmMt4RcR1/wdnIjnBKylJ1J6mKl3A0dFBAG2Mok6urUvh2aD2FCbcySSQmLhUCSZUtQa8IswREW0+doiLhssfHyL3F0yXns4ANCjglGtm4V4Y77LA65z+hybzxIFWXD7IpPoVKvBWTQ1Q7JqiiRqNd8zGYc2Ra2LfPSIhXxRGYfkMCkv4jOh1UhhVSwL1gSpKV8WrpRbFYW4027bk0xA1FqukCpMUSvi5IJe309I1Hq+XtMDxuAMVKw3GBFPG8PqoP3xNjlcID3OyAXjLKCV9kJOevszdsvHaBFA62mv78Ku9ndX+x6te9+0NKQ3GOn46ByJUWMibS6JUkN6yr9XuKrFc6B8zm8x02p7rqgCcEKtw0PiA6iiijycMTdDCx5n3Ba1WkFihVnCyNrIxg7GnSUWH6C14nC2OjEyGC3zYDox0RjiajNcuwVod9Bj4SjTNnmr9Kjo15p4U5mXs6rCNnUrMlaKWAOfE3r4xnCqTX4wIhNoKKM6Ie+8qFXhyu957FMPBuOKaKJW804X6aQhetXGKHpnjd5hh9A1xqr8DDFphb/fYifM+LjGELKbLNy9KaQyFaQPGFqEWPP3K0xq3QYy0EmMePWERK1RdHTkIuoFlp85tx1chAax3uWtN+sDroGPZAl7kOCQN0e8vg1Yz/pFBOFqvJhsFgPRVYWjwps2/RSqjcxA+9zuVb/XisbxHXWnqXGB5t98pk+6Lm+QzGrrMyZiQWVRZeJ3bvXQXA96k+71obYrcvEy/M7E7Bty2F+0OROivkZnBwtSPFF9YTozzbG8MixfXt6q6C0LtDtxYQS/4/6Su598mwAO6go2+XdiUYEYjVRkR1J1mXGTv0bUSqjei1qrDWmtn73K0mAbbLAyc/oCuZRmu8gdmDjVFnyYt4949i2boFb85Uh86rfqF2FilZ+YqDVKf6UlooLt4pLi8i1VRjaakVPZwXWhhgjsZd7t25+Pilo1qTXgxHSuu7KEL+zDoJBQ3QlzOkt0zDTWIqMKQ5W9oPAMxVeV3IIVSAEcOTHlAmpRANIajBZXImptlumOW6bl4fWmmvJvtxd35Dc40mEtLXX3tHvGu6GInixtrqXsv0MMJJc+aSuadCUyLQZUuWt28/+A3YCvjK3rQBMhvbhCtvloPe5st1sQOmwaU+wNZeoMokvDN60Sv0ZThmUTAqp0LRzNkdThOK5nzRIbE1ClmIjyTsebGASoqFU12p+1CA8UmndJQhIIoi8B1/w1fgPx0aR3d3FXqONDsM8fjkXlzarJLJTl24/7GA2V3jxFMv+Z/vrDd99cmOKpXhqsj3PouMH5qErPJGBilMEEHLyI446k2+3tqRFTIVRBLyaW+QMqNx3j4BkDcZfT2bCYRTXlzpR9Lrto4hQpl1Y5qq5wgSyK//xsMBiQ37DJLihj7aWxE1JiBUv/1fRMC22Ku09xV8IN8nCbU6IiDuWD0ar4QeyeQOVhf2M3X9X4lcQTLtcQCzBdi/Qkz1d7cNdojfR8IG5NXRCg8Uzj/uRG7aw7N4opWETEQ3RH0ngWh/VclyoaI2pNfO4GK2qXMhQDeoNFGq08+LNX2DI3L6F89rjgi6i1HxC1Qkgfm9hMan3Pd1etXV7+/YenJmqNGs4cgB1nTreFG7AplxPZIQKqZLlj2gZrT50woY4Etc5xJj3D5TfaHNNHgyjuCG7T4PLfdcapaQnvFHwDk8aQNNzozG4lsRINXzUDM1A6G3A2S9tAfqFgYiDB/sjAiTleQf3BNQhDXJHAi/d7MJPgmZQwlzMpvvBgmzOuqG7PQma6TGIl41WiO1YikxMcGUeZWLeMsyAF7XZ7rhFXliZb9cZ4pshccenEAU7BGsXrG4gH4ZDfM3LbqwkNFIhHlN4I1YfLUW5azXzp9+iue3sYISIn9LAel/qd4EpRxKq7dvFeedhAJwKiVhD7a6MSf/U6YUIJLeIrWd4ctkX87pvdiJgH4ku4kFx+vPRgmnmltag1HH9+CZLlMVHr+UtrQUu9XeSSyjIwltr11nnHXc+AVfSueqjLhTSqeOkrJAeI13alucnzaKhOTHo5NG6ImyssZqBE9uEPzsZtmb2PJJk7A1IMBee1LiSnp7wbiFmXKQD9axTBQrZicaEBHLZQDqUFk1iRIYV2AWZUi8xF8OHEiYlbH7WLKKorTMY8M5WKQosg3D2PTkwcKEew0s/ei1oXNYAVBRChs/6eVa4IXlFdRnT8TrSJ+6TWRb/hYFjYg0k89IPNXYwGr625LmzAl5ikfgzGaHxtl9aQMeJ3z/f9VRbIuJLPx1NMc5gGw+vhUoJa2USPiloBviPFprm7pO7mSmrwHZo98dIKUWsGnHGlRRz1UVDJW3I6Us4bKk9/b4JVY2S08BcALIgV4AXA9tfCtRjAYRI726RQDBoVSS2lITEysJSjcNqJiRHkJEPkJcocPQtgZVSHBnBYrH3zB7sQyYR1DycWOvqjmM2CYzC/W8KcathjzwwlvgsjA9d8a4L/YV3e5CPTIihq5QmVvIgvU7mc8Jx+P9oE8+RIi4DyiQL0HtIUg2bf6kg6sGB18iZIjHjx6uu7s4YYE3/7OxrsjjSBn4zg3I4x8mw2QduyOheQ3lC+cHh7cyHLG5XenJSgC29XZ6Pk8HceAlxErct2C4S6GlxPQFw/6sRk0s9Tk+GmqDHmKOpnRhoEqM/h0VVyJxrcdjB/16EJ97yARocxNM5O1mzUF4dRKmITmaRPAc1RiwrjDYq4G1Ly9x57XRAq9JHB5t/zuBPlVAq7QARwLPc5Angmg+iKm7IGtUYUtZJ5xfWwxRgNfs8RAcAGJKtkihWMqPULFHobjt58JoXD5pPlM9MiVG5SqabwW2070Fcas2/jSFpj8snN5UeeCvei1m9efQWMwwiAffF8J33TS+zbW8jBGHbYlji5t4et+XeMw5PmLh0Ba+C1FK5hOwBXiFqxaJ2D5jnLrZp4vx29Qp4yTrNtOgmq+pyv7/2l1Xg3KL+BDRYKgb0Jd2FO1AhbeYDrLn/l7FN5qlP5RK0DN8cUyU+c8eQ2eKradm2aQzl6PxTSmuem6lNSjfP0c5sAaThcWE4Jvb4IGsXGHNqjilrrSdX8DMTqXM4UkQAgyxsjau2KqDXxZUqXOpTCYsHbx0X+89MiGFwyiiXHOAc7swZ4hoYXIVgtjyBqTS8vKMjeddbnL7/eS2t4B6ucRK3txVukZ7y9Wy7vsLvB8uZIY9Wk1tMR6LyQkosfWD5K8MyYIGdRekNHUhpHDVdXH6BlsU86MRmVC+I50VzV6OOqyOspb3a/nCPLWy4m2x/6JI1iqwO9UNoeJLAAAMVA89MTA2Pbb1lhwO4eySA6O1WqqQ7gikE4NCb3vNDNM8joqFaysHbNJjhQ4udGE5smPJRT4wi0CJTSKlrrlAdehRMrF2keFY0czCqKoWIVolaa15vg4S9VdJtoxKYx8K0/44TYaO8pas3nWu3tx9v2GtH5mHqbEkfSXCaZvpPOesEyLKavchx8GLCvXuoW1pyJ1czx8khQ60U0UWsh4BfhoEx3lZgoA1dMnSQEnfa6uRVIft1WkmPU5DG4Go5vcjLkmkAbyEqnukYmGvYHNxT9+HWWZvo2Acbomo0xYooX0Zqrlu/tdPIhuAYct0GLHK4w6uTsRp7pHOuPZmOzBpmYl+rKqKsBHJpQ1aCoNbrXN50qjKhVFmvR4Kr05yYgY26tO0fSL1bssOIgzsySzwXXgKgV5Acs+pODhppEsBLkRSBGo05RK17dvSPp8ycRJ/cZZ8SvX4SID4SsmX8fkd6offCp1tqhAagd0rTWHRd2g4pWwHUJMkE7GSMz/3qTmFCxbmSsqSNMgVQPl8Dy1ZW2OZNe7x5YwexNuJP06r6C+Tc+76HrhY5cM165Xb6Cocy0fYvZovIo2EtDz5S8VZwhko1anE5MWNKCKZHkI4+xG+j6CypVjJGvQKzy5HjFbgoVI8ryRns6kD3GhbsFCa94faMiwVWlRSNeIPei1i/aXXUPm+jGQEvsf064FinhQN7h/O62k4qNVICe0NYKR1K9tL41IcPm2vryyYtaf+0N9vu/v3x+32HJTDxkcWgqik5OW6tLtAbNXbiPoADdAJp+EdYEZPd3YE81G9Yy4AcTNmLaB70K3/ZKlhS0MFkn7aNMA+IV7X3dZR4bRt3lCtY+bHOQmC6ymmVeHvi3Ghn58MGBZ4qoNcMILN51cZxds3GfMZSxk7FanEYR6lEhXMXu7LyoNfhoSzZO4nD6zkSgRxe1DneiVr3WfdHSfYp092Ht811ai0UJQZ9C4YGBcGxUAUANL0KIEd2S499cvNfljdTzr0PU+ut3Oi9fhHF50JEUIN6B9bRdBOUyodYqCpi24TMVmOXoWzQElglvsRLrvbnrqIGZYcYH9TMq8/T9Xh0GCqJOJZk5NJo6SEjyrBjN8QVrEsSBBtnEuB97BjgxNTPe/FYTrUzGq+KQzzRcRRGrNTncEqEPBsKnGmSKZbsOtrT4AhPAweCO7k5ImzovvZFLvhG1NilqDZj5Rhe1Dvco/cJwNc9jjHOXC7PPlKuMM1i8PMVht8DMm/JDUWszR4cFNSTdv7t/mBHTL0bEr16+EOJ/uMKUQ+PMfwauafoaBf0iBLqmtwoxghSCFJYbPLpRVFHLeNs7k9zYCmSK32tT0bPo9lmh6QPtfEFvECem1AnfbOCVcN0Uhaclkh0S1/AaDZnxCq4DjNA6KmM1Ga/JoO2xRbVaK5ZYFMWsjdSRujzzlEMFPybWGeYIGJNqsWScOmEqxtGvFwWwiyc7ELViVRuVFqHrG7CY6MhiRK2PWeiv3TJ2xZ+DFiGi1j4I7PDH9ODbDuJSxdAiRNQKApu/DYha/wpR61N05v9c9eNrspyOlF5ao4haC0oKkDS3/bgGJTo5QTI66xzERfGLSLBqq/jODEBlrMmdVlQYCMY2jcChucuCYMU/EUJe14PwcYoBNzBJZGFgBixdzmS8TpHxOhmI3AupkkjklQeLqA/P3ZWaJIqodVE07jDcDNuWtMBjcHWk4w9yfVn7GOa1WTWdoUWgrL0jqWe3oota+ffVvMYktdKz+3ELC1gkTCIPIZv/7bQIcVHG57Prp9sQQ4sj6Z4WoaLW3s2ducQZc5fvvmoSU4SR07ffPH/+/NmzZ6BOHBW1Fk7QIljSPH0iLnBr1Xe/bcxdOkwsH6O1JhDbF5thddbPowMNJ7bKWH1Gre7wKmbfDmm+YxyBaMGAE2mesqmSJQo7rYMUA8I1CbaEshtkud7XjFcxqOCQmMxf+kQs73gixs6U5aCEnQAETylq/WCcmOJDCAEsRw7rBzjNBq7k7Wd4bNCWsIHAyLGUHBmqw1+vDGMbotY8De30FBxVgl7BSK1Ev+7HuLSyiCGFKxV73dpnSGol6RNkmCrc6O8KVoZim8rOLgJoxdkflENxYiJUtbW+/LpErZ+G2B+/f/3qu29ffvMsDFemyZHMf9aKqYBS727RjbF0XDNWUStOwWJauobNLfjBa/y5NQALmWQfG1THRaej2QTDLEwpn9fw9otXuvyk+bPqXZKH4arHZ4xqMiAPo7eKFzYyLUBSoPRGfSKQ8dpcLJrMkOq1qd0Z48G75ekuiF089gg9HDNL/NSwk4FzftjiMElBe30w4vHZZEbFpnUrqqi1Tg6yiycPqjkjao0CV+2sfIuFIDzcRVQ9BlzNXJj6nMYQ8qH8bxW1Kokstk7RNWSCQ1HNJLVyeVMWi6DxjQlBN/zgP9jy5sTU6d/f//DquxcPvb5R27tAZz0LV8s0qTqKnPqxrxrXNOzJLgrMLhkOq6WW67FcGwYrZWhFi6tcKenjT8zlNN1CrVv1FCMt0CSpIxcOnviDxiBQ95yQP3hIxmKDUVQfLfLiL6EsX0JYerL4RNjosE3AEe42DCXTB9sWb8kF0XnUiuJJrgPeq1WivryVcRiNIlK/2PRyWJUCjcmb8srJWqCztlIRRa1c3qy5NvJTtE27UiemaIFRReq0EyYJI6eX1sfrriRmMI+9msA94jfCNU/P9MrATWN5CDH0LqBKHtNc4aN27cFJ4oE/54tv/2jLmzNzp28OTZii+aaxfLSmPROJYG2r8EaJTg4S88G3mVDNwhK/BlodZuMrdNjUmH0OECVzXjU2qp/hkYhDUrbKymTcWbbNPEseFbpAyh6EJ8omoSo5Uw0jA1Do6F854k2ajfclZ5ssRTox+b58QDDWX8I4VqsF2fmL2rQwN8bkhlihtEfUvV+Ejdh1kPz1mWcz0MPfs4szwzqDn1YZh9EdSfHmop0xaUp4EY9YSkOkZA9ojed/E1Y54qMngEdvLNh15Sr7pFa21lEVSZ9zNfveMw5f/bEvrYf2Og8mTJf7oNZIZfhMe2+XtlL96UiK3uSUGjkiR7UsWgxHbmHtDUjkYWeMT1JyHCHk6ZHl6ILSZzLhtIDZnNO5vZwzGS5ErEixOFvGzRMUA/LiRbPDO6ul7IZ9yYOTAAfl7dnKzqGCOiOvnknAoYUWLaAH5XIVGpPnVxmaNWFRK2NkQ6wIOJK6YwzK1liUyqaV4+CkdYoXEfqek/I9yziYWI3uSEoxGcfBGXKYHrsMyT/DJD+M+H6TIyll1/1hHb8WJBIHglqFcdgHVy2VvqMtkZJ6lHH4tXgcfrb6t+muAVHrqc56yCsiTWsXNXdRsr/8C+Ta9Rk+/5GnmNwPdZV+5EJ7LTvGOK6lSb8zN1QM3HOpRQFYJXNKEzgQMjbtdQDpoD94cOikQVPJSUMtnNjmNIgunPHKmRO6IdpoUchttE+l1k4iXq9F1IordqnUkFiNODwwx+rEpMSKZLAopO3hBN3nhjAvvoqnlzfhkFh+uJG+uKIjqfqmRRS1bmq00682Hr2z6rpV8thzNYx0NW/200Wt+AXQz4Rx3OjV/d2IqVyhqBUf7IW79x9/2vMisLv5s7VWHIZfmVHTPVgLp1M0OrsKaFk1gG6HYSxvlrfoWbFuV0StKhA1cOV/IHjNZAc7GoaZd3g09W3aEF4RrMK/hfKZW9R3i9HAhj5g5w/eUpmsen0zGavH02wXq1WhRSSqA0e6+YGM1/1RPC9sVHRMRzxSiwCr6MjFELk1pUkpA6tmSQD2Vn2O92PkFrVGKqTVS+cGFk4gcYSWNydjODxI2FN0ssmqpjUKXNlZJSO2C6w+gdZKEpUazeWaxgDm0+DK3Rtp1ghO6WFkT1FreS9qRZft4+g/QF4TeRH3RvUvv3pR6yfU99JbDbNJljfnFq2CVIVrCMAoQSuF2vPeGhsz8OOl5RxQsqDRqVZ0wexrH3jvWQy9wbRHBkWzyWQ9LYlnC063pdR4rv7gHCuZSa0qCmwgB4ypPs9SRWa8tlIS8XqMqeiSC5n/D/zYEgg9bZBRD6s2EbXWLVfHYYyEvII/eKVq/ME181XhWqeEfOyR9yFJ+6uEilqjcPl3yxt8vQUSk0ToZrMR3b6NqBUmHDgIPxotghja51w1cA6WlFwVp/9qpJofTJnPVQtxST42eCt0VvMUZfOTH3zxUYNajaj1j0piOhPLIRLYe3pwFHMXjmdMMw0fjwWrch0cwJAUW42kdYBxmzJaUfqB4thbGwKcU4TjqDso6cED2cTSclBGGNC5zjCVUmIFM8y1eAzu0XECp1kaKsXpkt9KKf3vKFORrXgl/t4r7PE2Qs6nfdtELc3uZaxxpOhwGJme4zovGoY9rcGqi6iVyhvN2YmiaTXbH4u6dsbtUYiL3hoJrqJJ2vQZjWxa66OgNbi9Mf7g5eZGvrn4J8JVRa3cE/TSFLUO90GtRoCuolb13d0HVP3wJwTrX/61B6s4kp5e3mhLxQUTCBHDYPVKC1RbRa3bjjcFzwYGwbZYNxwszkUBnFz8mg2qiV/MRkJlybgFVVceIrhAo1MZa70Nm+5lR0ZOWnW6e47tAfRr6JYSQOB4XKKeQo3HgJ0KzqD7kNd3dH2Y7E0ftPk7E06R8L3lpi7SZ+8YHsIJuOXh8wypN7L2ofgnVo9Ki9CNkwXCVw+OpiLENS0pgts3D8JNrJJpyF2p6C7yccrw7DGbjpEtluU48LeIWq/wWy+OWv7F27v0GuEAK8GqDoT7uKgzv/+nn35WUaui9Y8kav0V9bdnBq4yED7bWaFRFycmEypjvJiCgJ7PgSd3Al5cg9e5Ey2HDF+sMZhlfg1ZCUxA0R/390Bby/iD0xApK8rHjomGS+nBdue9IHT++ArHakvGPafYCTa7ax9drWj0MzIoCopa9ZLrTDMy7txUqnUvTT84Xfv0PPXqxiNV1BrF65u1E7X2pDVvsHOKLr0Brpl5Y0StZRW1Plrp9kZaa3+jwWKfLmq9Fo+tlJ9OjyFqleyMhIpa0WVz8KzFdQSi1vtV65+HFxFurq8Vruyty5OXVq5R6fRH6Q2LJ1GTfr4rHo+XuP7CUacWr+EX4B6QiYathOtd+XUTOYROcQFRa0oQp8U/RJl5LU4Z63DdK9wJg9Bj/kYaKtt1owKYk5J/vQCu2OdSpwc9KQsjHnViUpRTJpd8mLcqG2TozuV2/Q4jJ6t9A/dv2fv4VikBwQAfKgbIp2kR4Y3TGOZzLVxaVTMfVXrDYJEauAil6n4c/HjdtYyjKtmPMXKxDuvoo8+YrplZH3NJqEmVVNSKCohaPcjkfnoQhfin4kU8aK7f/XU/EhYN+qk7K8FqK1p1QEr5+U0hCGjEjqO1wst7kZu1KD07rjvT/toq/Y+9K+FP4z6ibRLbtROnTcshYFewgFjYBWNzs+E0CAGK7OT7f5m+N/NntSICEXxIrZlf26Rp8WKLYa535LIChXjLj78IPzeV1BpNalvxDfH4EoKyeGZf+4CeeFuxzClYsUrbGzu1UzfN/HpWcgZIhGHQ5HnDLEWfGX1usinaDnGxelAUNOweKP/LwzBmbi6nvANgEfo3aoJOUmsWI3rxL8AisjRBF63v0eMfb3LiapWp03kkv9sN5CAhDNGLgCodvoEdKpJubDRc2TB1ZsleP6pI+vf/U1LroYZXm3Tdk60bx2TxgAuPjySg2WG64qVUJMX1ZtWpZqlv5ijDZreAAvHBXK4WKcHAdKVumgqtsChv6YM7wDcEF+g+R9QCuaSLJNcSvKGqahpkO4dNvNAxV557Fj2CRfIAca4EcnWQswh55Pf4rYaedM0BRRGLTFhHgFGZBEkj/KA16lNjgv5wuvJt0SPWF1Lr7fHmQKjPhtSaeOxwkU4joezRMzJuuLmI4xRJYViUQ/2ExkeT7ltCVQhtNOgCeGkESTfUm29yH2zin6+eabqe3VwW0nvH1rAPDuuUI7iednh7xdgqDja4YeYTsab2pCmJe9SvlTBXq9McWYmiWTpTNNmDbuWaAVY0Z6Mlxtw1zM3tsWAf6bdK82iVLFyXS74gfA2M4l6JCpobi3Jx0Vig3lJTU7vOPujEaYVXHRpBmYXxY16Mps4hiqT8TyM74XtEMV0IqZVxiOkaYh0kgEVgOXs8TmvYeqO0AhcBFhCxl0cBI8zxRogKjcSgCyV3H7c14CLc3C0uAp8Gpzd/p4qkxqj1+cv/TRuNz5SuooyorXB6Xyfc6kUOmRviF8TuW3rXUZZcy4cWIS9w8erM9hSBpGlzT61h3njwVM7GpTYqmWXipKJlbhvfgNvKkoosufpg1VzNZAElgHxued8uR7U2naVYQ4lU5IOi1ZxSb6IVDMHE/AUzfKFnH8uAFXeefbAOwzP07EOclWyp8tJBpIxhyF6DqpBopCsqQ2o9yE9ObD+qwPk9PqlVnKzwTiRy1eBoYIQ2DcSfUTIaC5AuHQtogh6SWqsJYOGgAx4ltXLD9O9vDcR0d9NEFRiKDoOAs7O2trUPZg6El34F5ozDyyvFXVrUsgbI4fe362GSUmtJ1VfZRBQ6CCiS1+WUG4hSPrJVd7M77yEKp08OcrzY5AHsGQH1BnQDQQZIPIoQB53U/IzCLpYoVKS2Au8myYNpEg8FV41k8gA3GMUq7hH094HCzwT0D/hVQzipyCMXUHTb0S+knVrJobhLF81JkybSgCweUJJMLuN9qvdjhU6tRPk8HqlVVlwGUEUnz0iHcHhkNYyb9ZBe2xhaK24DYO0IqRXiOQ58SyGs++4sJLW++j+Wizg0Xf9u0hWT647SqiKHzNCoyKZlLDVa2gUXaDMBcAsFdi+WHRuopnSoOhxNV305HdShvD+UVjhPG5lYcyP2vWuNzC55MqJXKgvdeh1X7YYyBaKXON5my7Nuuy8UmuiDGaFog0cp08CofXIdxkXR3oUYymKSPgII0uoYRVkpLzq47oxToWv6DliEHm9Q1JMD4fmiLh9mgq4DApMVWMzh0Di15h6Z1Er9tAQUfhdyWjoyXZHqm6EGN/QVWCDsfbXf5t/l6iRqzW9kbN2AmF5+68kaqa6yaNqlFiGWqc7mExwKn+n+CX+BImm7u0JlfQtEHg0ogrp/c3ZOqUOHFFZyRRG36qBNxwcag2Muhx/Sz4dTC+fMPfcQQ4FrojJeqAMHy7i6Rs5idLT6/WIxmvjwWj3DF4VlHmwYOYQPJn0sxOxZbvGbwP6K2EhWkrzb7ntmCk0ErjkJrFR02lKGEKK4nI0LVwX5HQpHaI8iqddr9+xpDhxfOLczEw9KVz5riQlhBhuNRMhpfTxSKxvU0gDvZR1aWB6ZrsVfwSp2p93rNzd9C15AywbXwfoYltl6bXz1/qMMrSEu4vn/v1zE4bMrlFzv3QsXCmJccav1rUMrb54FDXU2TU4zvDBg6hAL1fLM7vHaItJphit6lyaqZU7mVtRKNxMCg/YJpyWbGZdVJy94JBGun01oC4mngxCSD4QqedmXAsvmXUOaAeXs0C5Vrz7FfFV8BFhAETu0uqWqQ8BRVA7DZW5eMimG0UpIfU7kN3gvqdX3QF1Q4+KL/OGKpFmSWo0S09MgtdJbo7rMskM4fmhle7FMwDsZHujEZruNO6TWnNpowKj1fUi9efHTt7xh2kpX3Qyn789XjBYea6uGOlaoEJNYtfYBGxgD/srl/mAyBSatAQguUgF4BnhXGWS8FjpVBxVqqlerVBdq4J8HuqE+sSR2VjkOgEn+bG/RDRcAFE2JflI5cKGxUjqt1mvP54Dke/pgeryKk3nLozIMz4Qqn0IlJiS1US+9/9TUdDgxZ3h4yROpIKQ+Tr5EX2XsArElYyXDaiW/BxZB2xysg9cq7XKwIimcaAFXrsBFg0atjxyG1Er041K/tfR9HgOLAHHiIugk21fXBRs2fUJqRYSk1phVuH73QRZMIfXmmyO17j3kMOb3UdKJ16dyWlQ4jar1zFYjGEFSa6neQZ80cXCvWM04webpe0Ea61U7PQ5FuDUwx4nBWvGtLm2KbwNgi1mkwqK0ix9KKjjF9QXdAKzuRKSSgDwg7ZyyiSRMdmgZeSnapMhxU1rVo64cF25eXmrXMuPzCtqsbT3XPDR8s1ZzmFVPZAySQLUPUQ7YDsZzM7sdVZsIf5motLl46KxQ1A9RJA2TmQlhSK0dwiIel3oTJbViY1A8ah0cUoqwb6AcJQ4JdBsLtLIqVArzawek1rM7sIgfXnyLPLkd1RXpug+EqM2wHWkqRdmIgZS9nM8LOH52hiS1JlNKY10pjTW/Hk0hxnCFC5HkDYPrHhg1ozMsZxXEJ8tPd2B1ezZprCo5eA+NhVWq250kWB1ZplTjUFdTDJtHkpiIsYE/u8KD56JibInOG8VdBuK3ysUuXk417eqEBHrS8f68LEqJCTqeOSbIsSry/OLQM5uuVpOS6sRkq4A8UgS1YMh1Zht9K21u4dEgtdZRkhRWe1i6qh0QbzeVRya1cscUklphgbPOyu3m6HQVMEwVyYovOSfWkduNsZMDLqLqktRKbRfgIkJYxMtTsv65GT67uZkLsu9+LabUraXpprQKB72PbM3lhpmV5YkHMzF2nBDXpLEK0HaOj3OEema8S/OU7OY8yO1NzsG+qusYmW6NP6l7+vhFSg0OPgjSYdHKUjYtYrghfuV48Ho08AqX6NLF43UMUL7nEGJB1TTzTDqGrigUgZ6Z3xPmWZGH61157MMBLyuqZyC1zlQ+2CG/nTQUKNdQfXWjMn47Mpgpnb7KqYGSWg8c9jRdedeqoPcEqfXREYeIEbIVBjwBd/FHwSIYG1JrI4PR9GqMaYhyEQqLkKkVa8OJD5fhj6pIakzQv13E4a505WYY+de/hurvFhKxIIHq5CGUNGf+WZ9a+NDshKVoCaVV1RsMnEEoNMW4NKY9kScjj8enk7nNMrdmcwkUmv4Ai6Mk1JqIbzD64IzoHpraDaitTim34BmFwGKgG7S03gLyJY8oDHERX5SJ8GWnCnE33WeIVFtxgR1kGWeIPAWHM16LSEZt1tnMGlZBiKgY+8JSx0Gf1Vwc240QRg1nfZx946Td0TRdW2/zyyhMQzFMEL8pk8JwcAepnXADpfWJ6EUYUisngKygl49NVx6uKX6Z6hbSvlPakFoRhtRaWXkktb6P+Pd/m6TW/elKK/U+QEvp8/dn6CC3G2L1Wca+hPauPN4wpXG9OcMVYzDMlTtTJ6qjoK6HDvS186CKVjPJ8eX8BmfdtBRlLF3cPNb4F5gDDTEc6ZqCFuW8IPrgTeZESsNcQlb0nUyP7VliTQxTfiF02G3thtBuEUsdOtyVUj2ojoND0+6R/6KkVnaY9XpOFFviSmOd9w19thZJVy7E0EWA1Nrg0eFtVp1aubw2ao1idfeWnq5TXzlCKnNRM+yHGt+zn8yUD4RFRLOV+lWzkvjCPE5p1Yqn82QOW4kSvaqKnF2OhEXwVRdgFsdHqx7GrtYEZklBSGrliqmaiIHUiusNjzchMOLbJLU+lK7v37UxT06YWKGF1TbRlXF7uyGXDiDeCgjKUwEORvF+yhWlewXrRAkHT2Z8ujW2m1RgeKtCTJkKGR0kfUKhpwea7O3SxolumCzNfxAhqZtNA6dM6G11n0AFK3s2rr7NPKtSSo1GdDJ7Diar1WpGGmsc/11mz0vtZbfPPshIkgpEogKDMpxaBc3PsA3lYEgDJ661vV64c5I3rylti4k6G4mDS5KurFHJYxlDan2U4Miqx5tbUqtgz45MV56Q8TVLTiUkDahH5wqpVXO1yg0TSK3tOb1LQ72IZ69+OU2t96brh/dtq7JEnejDNP78qr0tKcEUlSDSv1WQmuTjw4yhZqqJg9i2brQmIKJiWqQG97iAojy2pxgg8R1LAQb0z46zQqtIffCgU+uRTcqriJ59IniMLrUbVpUqDcUh7oIypx6vOiEyth88pXs5jknDCg0p3DWfKa9cJZlGMl3nlvj1FomZ157DsaAPfYkagRVy95FndlMgtULcQp1aQ43DFEPyEb1AiQ/67aJawdu/PrsmYFkhW3zP2FE13pp12l9K10Wikol1HtOgysDsXamsWKxBYFJQzsemKzmtv2fdmX95cw5Sa4KH1pxyWoGQWi45UlxiaFVSq0nXV98qqXXvZljTtW9Xlo0hTyBz7Ib6Kgq+na4FhBq1plEooQNdhxSTZOt9xHNWJxcs7jwFeGuABw2IUSCuLkFX8ZRFgNOUTlMwwoCvzLjVJr7BrKGFqaeaiYK1pa8yfimse5qpnfKgqtbfrcUSecCHFlg1ulUMrSSgySspAywrMS6LsK5drIH7tfH909d7kzxSn5maVFwqMWGrxbdr2Xc4O3gO/0FT5vDiuoFK3jUkQ9WsgWTNgO9ZFUnjfyWwUiff5bH95HJSWutY+7tKaj0aFiEWKEs6CPbgLFqLDTmpRoxaR52BkFojsIhnr3768TS17ri7Il0v/RgsDSBk4nSxUz07m7cLGFW36OkKi+DxpjYF3bEy0N3LvZAg+cw72IoyWQh8HSWIn6DPN1QDU7YJqzYBIAlUcYxrNa/FdS4dc8zSCccbAhkytIUlBR1ZrRum7YdGubE++B1DohslLpjlOGHiocnI2Yd3WtybirjTAqIBfCrFvy2Lr5ZnrjKarPJK1TRnC7FNhkVS1l3glXlmdrxWG0QHNMUtEXchDOQYvbFsMARLL/eY2AjCInTZhWRdLnhYOhYWsaBRq9y8PMgJwEZjpMeb0Kg1wWS9MscbU1mffXvywYc3w5qupepyGVBzDnXi6uZe3SbhtGI1Y2EdjG2h1Dl7F3eMB1qvFivLqQ0G3wviuvO8hqwcoa+K2hP1/OkQUxSJJocQ/Tb30MwNW/kz6AtVuyEOZrpwdnZ5vDLolJqcDulrxUxlG5zHhaA00eWU9LPyYPDMY7klsIigxK/sNKkBWFxjn9b1+Mwy7QBAl8fb3aH+pJ03WohRg6ALF/svX+QmxrbMz8IQO+ZACVZZ/VG4clFE8og2GsMcyROy1v4Ure94MARmpifMfDmvGsN1AppGMQrDvvv4YaObBje5V6fK+kC69pGuQVUIhx35A1QxmEjCtgQWAaKdB3WFRmcq4L09ZY6VympmyihwRsQM1xApchvFbkvD6INn0SXTZ67Qp+WH7qHHMOBIUHBa6DBEFtuR680uv1UfSkxZEuRYWilRXJ82k5ECGeqSK/s0DuVeOuaQzINk61pogwNuiPB2K+zad4h9a4E1V1j8KtStWWEib7LBF1LscfAfmMTgzNl5lEVTLiS1UrqCBCI0s4ijTW/4XR10cOxK40seMlNRUivyFkpX3f5cFEk3KCYYVJ0q615GDtPVK1VBOORNMsBpxi7gGjuPHGFVmh+2qAV/gA3togPEj7+HeMawPKrck3FDnOivv2ZF2ci/q79g2WJFDPdxcGyKjQ4Nxgj55bBM6xpsmCBlWiT4CUpMlr52l8OrEYCa0UE2v9G8x/e3HT408lxD4aPDDZjt8MJDK4tzjGh1oyqD1NeZydtlc74rREU81awHwH2gGNO/cZhD109AxnF6YzSKxwYbdG33ETg4uQ2pFcsuWlhiBDl6aFVJn/y640B+v9+dJhrLZZTUqkatUCT9GHFqffbytGHak65hdY0xXd2yrNWBUvLSdHuiVCdDtb4vSQPDBW7NI4kVKXO7RMyaGOyEIMehVdbBlimP2+cXAiuCOFC5kODvtkS+YqzoBr5W5CYWQ5BTuXm9h64Wgp9S7E8rjawyaCj1SSjS9kPDZRE7YkqnYbrtYCymCDlbb5GNYq0M3+6ukBHd83BlvlBXHwQra3i9OSJfpU7zzMVTzldmuEZJrZhfwuvNMQZV/Mmt4YLggXnjNTNDPdkYG40qlgLTFO4Bb+AmRzs5iR9enobWQ6orV02B2n0BvblEA5ls37wnbAJNKaIg7XHLqTRQBNcVoGOTAPjuFE4z4jDThOwUxbmmXJncVtYoc0UrHbD29XL2V1BYR5NUl4MObTS0SsXjxhx5jIXrvexS1nLBJlnjtFcbxpmsqrE3q9ndzQlmO8EVWNGMJWjBHMfuuEP3iF9JpM1W6xjixRPrQUlSu1uwZrksvlU4LFO3WGERR6Yrv5pwg5rNMvXcpnP8amFIrbG6S1ME9dk6csdUxCflIjEYAzPXdnBOC/h70ShjrVmtNMeYWf/4IF2wSdcTqfWQdH3/fl5YJaqb9XoZ4huocsTJU1aXfTCtWqHZjNYRGB13xQ7xlsZ6v/o1REUzcFuVOrNEveCG6X6RcFPpcMhd4DMfYDE0gAEHKnM+tHjl9/SkQLM4wy6NPjh8pnTWE5B91P2cs2cNOblTmdygIYZrudioAQdyjpBkQjFUZ+KBYNNP9UcwVZS8HhbWoyNP28qhEl2/ZmUV1TQh2NIxM6+CUseTWotKam3Tp0yNWiNOrUJqFaPWsLKeSK0HYobRjVxbQ2SpSLzqZFFOVJrdPrYA13Ckw3En7Q1ySw51+WXFawOhJJ7ixqE4ShMlzZMYvraPe4oIn8WDiB7pjtUU98jWrEzDR+RZo9EAQFHoM6q5gvEy58yvlV269WCt5lRiguK2X+tQoI/pymvoXsluPpa76QpEh9Vy/UJAkQAxSbLqauoQ+8eYyx3z9ux2VCgWnudeEEzhXJn4akjEskutb5JaeUw23NwjSa2Abl6sO6nC/KyA+UmlXUJSKww9Z1b7Grr8UVjEixOp9cF4+Uwg/ojepE5N5lDmtdHAcGFDuh4FFs6qZN6ISTK6xozPqwch7Vtc0c1fVW6iBps3YP8WYn2KxNk7BGq6utliqIVEj1eoALLk8Z9mq9MWsPQKVIw8OPpMlEqyfYoITIAjuMLtsa4xChWQqOhQH4EnWsQFTq3yduVGdUCm4oRcmwyXhPp+ltDaJMrCBGqywH7ZjRN/Za2tRBzyelNdKqn1iEwNmTfxBUprCzv+1KwjpNZcSGp1aSfXPsPxJiS1gnnz+oQ4PMR/Tgh06ErmveawEfAoZiBoCNxdrNYVGABXqQ6GGYUdxIOKj4tOX0ljlCbdFKFQ9c8HqdXiupSLQfEptnZjG8I5MrmqwPJNZEz5HFrXuMOO6I2gW72Ij5o+MVeSsMoutVQ3NCnP7I0JRsVJRUQO8dwMnrrXLsdKkoUzybhyqtBxt7iG6YfZox3iJwcJKOyvXQqh7ogjNXjJhi+TZ2pYdF8sW831pmxIrYBxqyDp0elapG9nteK0wOioZTqCXDKfKkNqtdLX56ist6TWZydS64HO6UJPBwLszfV4MMKEUZb7wYYnkaMy8/m7uQNpFZHsBP17PXRa/WuhnokOYGRzZLxLuxvv0gvCBqcsct6eY6mBLjRjOQDJjdmnlLkRIPlN0ME7BB1cBEOQX8guTd8+mGGJH0C354FhF4j1DD4ycSDvbQOLYNxTWZXz4wAssfFPo0gF8DdWd8/xJvp6lRn3J6MACJAj2t/9Tk/yJ1Ch2fGXy9RcbovU6gZ88pGwCIOLwB6gGrNb8/4YDVYjPN64YqQxgv9m+/zDhwip9Zt1qDrCjFktrXipvhqThdhQUyEpsFXyp+Af3r/sgk0MKphsfrg1tWGxoRQaQ/JkhN6nHjw6yxg+uW0drLRW7cc2oKX0ppB5Kuq51LjlTJvy/wAVgAmbXbigRNJE3ZBUNUK/1Qyg6PysiLjLsi5KTEJj3ZGuDrSOPa/WCbJhuorLXcp+cMcUKpISJpmqiPzqZ05X5ZYCZ1avcOf0ZSRgjCIpbTQMqXVxPCwCISMMxL5hxYvuy4nhHHSrSEpg/zDTxIkwdGqVeH4itR4cP2PXxMAo8f68b6ObDExHbJxK0MxOPSybQN0kswVLHKKTZlbviryctC8cVRklxVYcGmb0LnXFuzQYlppcvu7tginYzbbVizHbmK6Sra4Q4Bhd6iWhBhZhqp4Y2Ok5HtzuUUxVQp7Z80FNFf4M77z4d3lKlRmSbHj22V4jm+WUNe56q5xMuiZdBbpsm1fsN2olKdbqgkc4Gcli5gtEkVaKWP/MUGG/TLoqzp5TMlxjoVmOoeN4AjrfMD4i62GzdXP+podj9CKgIqnW1gYc0eG43LpRG42bG5laQWp9fVox/TX3dAYlmG/6vSS0DIWDqNNSmStiwBI9TKorAgLFgpU+UFN8VEW0FHmj1dVSVcKUkFrx+WUfrGD+PemqxBtb7yn5ohpw0MBJMBVhJGsz4CjWsNHhg0l+YWW3FGTh+TR2DLJ6Q9FuLOcAFtVTu7zoEiwUNhfkcBcsv4a8ioH/dGGtLFZA0uvu7QcUIWGjqAcs6F8g1NQ1KOdQ+jqQdPsS3nOG1AoMOPrgxdGwCG3f+ckoox3rKqk1UW1sEIcIN9cB5FBIre8iSkw/nvrgv3TL+eWHMwbPrx8+vL8a88+ZOycpsMxYSOqMViCttLs1WEjh65P3lXwVoJSx8nMsybmUsFk8yNsJuoH8cN3MUsh3J55CsA3QU+o2K2VCKlhZdZWs8voI491Ip948Ht1AK97r4yLcHuN5PcCffItEWhRW9XS+gK3ZemhfX9/0ZX2N+ssn3dXqVtkzv0mDdHQMWlvjy47T9TkYi7bEXqNW/HbHaISR7sXDBIyOXxIv3VGFJlI4h37ufHWrCa6DqeEGXhQnneOpN2huQG6eQsHlsmXHxFU5YtRKojKG1o+gyZ0z9NZ6Ejn86/lq6ivWw8QxFUTjm4NrSHNqgD/s+DSLaWaIiMXq74IC+mB5pi+F5InAf3hKS8sWdfJUiMIe/xkhtaop8xTMUa2OlIvYaDekQhorSaoTPHwRXwe4MAnhPU1JGh8MgXpuKQaouREqEM4QBFFNQSzq460BlBgBVhh7H3XcSa1KQ2H15Rmy9M747YgQ6Y6hl2rh8vomrf7pKvAl07VIAIdMlxBvGuU+746JRq2gyY0w9rC3OR4fnMcPL457qpAeLTRYjeodUqt0aJc3UVLr85ffuEPVkfHjc01XLJxkBzAveFNkHa6wkaPOqEPfkqu0PysDp4f6qlK/yVafyCdGYZyaDVFrqInUAbvugeONslrx422hJYWFKtfBZIMPS7qcQkQU1pSkKn02qmgDb6ZHhYqWnyzlRIi8Af7tdDKZDDLDhqoAp1p90liNBBQrLCOpFubI81ppFMFN4em/wTmvdT1Xcx/ziu10tdj6Y3cMop1D49e8GrV+sXRlqEGfWkbSKuFzHW8Uy0+vrMBsmI5vhKlIVQZif54mPDgRIbWWSWqtN7vtc3GTC2ER37JR6yfm64tn3xm94Xdcsd9Qj1TMhW7NcRvE9dNJwwOWlxtAwnlx3MQ4QvWJtsjbwVsZmbzOZaABjD54r4kGw+E2CWMOM4wdtpgjO9Z9pnCWzc7amVbK3MCQCmCpwhlwyaim2Og2HV0jD5j7tE9uihJTobWplvpMMW/silb3+oJQjGWA3n+5AI0mH1S8vhGNCr1CGHc9YgnBgogbia78hvkyyRoVMhU9DOISY5hhc5+psmppVaNWQXUdKZymBoD4CqVcbLvtrTKJxhapdViC6c35h5DU+ndY3pzA/MfHz69/+G5TYOU7cN72pnWsCmC0mdgUWKXCQgLGnpHuRl5bMY5lH03B2QCJKjdKVGMoamt7GTusrKSm4pUY/6oLqlpyg4VVsnP/S1MbSbMZcEv8dCSG/KhBuwwJQ4wvq7kRJo8NsRMLpdMUWOHUNJJ8KHZTdVcI5AT7EYqBC1YWv6EyVt79q7nclI2Mqhb5aD/gQ6FGpgJdjX3pdGV51QWcFljAJhCfVlmNXkSmIq545gFHpmuR+LMGSK3pdtqSTWVZgJOG1FpmsvbVqJV9sF5aT8n6Sfn604sftMASk/gBFMTLbpP5WjWoCQObGE267ZtLf5KLsxpyqRMv47Raa05iQLkTSfEW1HXLcFn2HW8ceu1gxWTLaooXXVXm97zduEHucrsWzZFpkr+ANTLuRb+BSEslUzxT18TUMh5WSWMNKNtNRIe0tww8VCBX0w4Yb78jW7HVmk6azRVNsVAr4bHjjNvG3KemW6rbSPJdc0dlQ9o/LoqkTKevEejWiTkZ0qhmSGWYT0Qmuu6IuQ9SKytr/hOadekwlnWnBY1Yv0SyTdm8MSGLCKn1Bp+o97ducidS66eTc358ZVbEUmHfc4Jtyp07HGHZHJMKO073CFrKEkGsDqujHOmR/MHlod1fU7WUXemq9DrlpTszlXYhHzYn4mf2boiCmt2kVh3OuWbgVIzv5I7/Bmms1CalGD4Rb22R7VaJ4C61uqmIRtOPRZUcXIVi1CYV1Ms4yTg1SFoYKIa2xGoF4igiQ43sgoVqfX+tdFVLOjB1CJsA0w9UWC2Un0RqheeNlNajZ2u5mq1l7sAFGkI4txOUy78dkdR6CVIrSmuo9X3qgz/fxolxQ1TiHx/OwOMcBUvuJRnS3CxRTZOX795c25UGKxtJnkg29LKoNUUkD0F8O0VhNF3luOLBzBmXoTLUIqS0VqkOul+6QVfEhOTz04tWFrAITrErgWJE9cE9D3Q8N45fukiPB6iDz0EiQllMt7H4zlTj4g6L3wq8tFS6EGttlTIH15U2sfNroqJDm1jVJwcio4VReJBYY3I/+npzdCXD75h9P/mouJKarDiGeoNGGHzaUl2Y+Eez/Ui9KeJ6k3cHPVwBC7AnWQcGyy+k1iAog9R6/e6PP4g4DOPVidT6eTriX15xhGWcyzH7ug2AUkesrUOuYgAqbM0Hi9Ez4x9ZLEhUBG+E+AH5GPt2nkE24D2PUCWRC0SeGxsNHXj3oRPwQkopZVEPRP0pvqQXhqhFRNLVOH9QmzQOfFOHst2yDEsDbYx9cINdO3CthtSq4eFEO0WBBZNhCe4guEiXpP+EeuGmtvvWJJNYx0NRlK8V5loisAkqKakjh/tXd0xbpNZs/nijVuN5IwJbLYhITyqEnBt8sJTWCKk1VGJ6/vpUWj9b/ONF2BCjJcYZ9g1g2pUc98LyrcnAzwR7+XH//KpXwxSJAZA9oYHmx4c1Lz1ONnedQRSiQGZql2oRaIMReeSH8GH3UVMtS4XTUjHqjSJdMTrzYATgr77uTmarbDe3UqiCrrS3VwQ5+xMOrZRHDCLPZLBTttSN6y1H2FT68mZ+JR2xWMSqR6zvzHJo3gVY8fXTVXU1gBzSEZbK3X91x1R20U6TSDsMSa1Hp6t803ZSaSh4gQztCtZ8Y3oTQPK1ZBcipFb1VT4hDj9rgf3x5fPvNyund4A5ISlhjJqTuTUCm6hMuLQfA4GHSqMoPkHgLCrwiSr4yfvOIGFGWWInTv6s9JRS5gyRfP/hx6Kyb4dP5EoWLGfojaPkbUMxQmAFzz4QIVnoKqorO6igCGCxAKf4zLCab6BTRDMuSMypNz1OsKD/+J4qhRMmQvt1jmu6RP26Eco0ZCHO0VGtidwRxxuSWjsktfIP8fjKWrwQS69aC2DPFNUxUVpvz/SuC/BZ++YOqfXZq9cnxOFnjn/9whusWTnpzqmVwqY1WKLChjAVF01osgVoRCpW5l6XXRrJU8sSyq64yal3RiRdWR3Ven3c41l3IaX1Qsrcg3xYXfR4Pex0E8ULxS3n6PB6v6poyoiT0kMyEC4edRK4B41jyC4uBOUYfSZfEtrEiqJ3FjakXTrYXhoBV6Cmp5z2hBHwaOlqUBNYzEFsokIlYMShsAiugzek1k+DRQBxCHkrN5MEbpzC/BFSa5lGkCS1FubqJne+ud78dErWzx//RIH94fu/G9jE+48fPpzhCIu7ZDXqnbuEZViqdXWdtkmk0UWtWpIX6DcnZxCmKxMhDDGQ8UGDqcGP+TfJ8jWtayyPhW0fHxb/4kt7UEUKiEPiwRcOr4qn2BEWHoXmtXyBiwueg2kKcAD9gqhTQZW6L3/ePOONTDEdo4JWMfS2+tTlFwMDojnojXVxnCLpZ4ZNiDhMhsZXkfr5IKlVKehKaj0eFqGk1vzCLYFn3oZqiGtIrQnFReBUUCGp9T1K6+3x5tUJxfSF4t+vX3wf8mCxc0JHnJxSNshQLAwVtlNy/B7PPSxHb8XqeDEC9EmayJ6ndBgF//FS4gg8WDTUOLX+pvwNgRbb+6DFlllOiU3WcJn/Da9T45r9UAySDiz6CIRqZyI8zJfqwei+2VrpP3Jeyq5R963umMhk6MTBp8eYoD92uipgkE4mtMUgzkkK277KqkatQ+KOCTnMfgosIk9BqzXRD6APYh6iU6vqpqlRK9E0XuH6XCCHm2x9dVJi+lLBHbHCEhlYOX38eA6CemnoAlymLY+RyBoOvMu23GOo/VkUs0MSkFUcRugwTXMGccAOVc8bnGxp8UoHQfaztv+AvjghhFKUadqwFLWoRGcPkTYVUlItmzasLPwi6I/glXbWlOF5l1kIh1RkeW598bsowTjaIkPK8zeUZlNgHjOUWUrFOpfEN+mI5Vt0v59cbliXoZXQs+NJrcQH848hUXLG4FCg21kudWjVritAZZ1arbmQWs9uDOTwJM3/pePfPz3/7hY18QaKw2ML4APRdg4FKBNEKADvAPOqIWynZKRkDqbGpKS2xp6gdRkK1MUsiVZsye/n+JLMG6o47efDSgPNR0AcpsMubiGWN2pQtSddk1LWmxUKk2v7xhA4876DERti41VVxYvW1YSUpCEljFikn0q6ChWWiUKmjiqI74VFUC6ClZWQw08hteZpngI3OYgw0/mrhJ1VNbTR4AeiVPNArcCaMiytJ22XLx+UcdKjji6JgSJ7N28lAeLnIiFiew3ModeHBZZVqQrgAYEfJ0aXm2s1Jq+p5oOtMhOyDmZpBXqomVSDqj3XG959VkkYkbfoZB4nIt9lRWZlZfu8I10ptyb2eFNXP5wM3i2qMdxjtJrvhmPogTVZCeIcr1WWPMTyP5F01SWxrNXrsUGGxm7uPlhEvVSKAR8sJEVpqI9UJAV0s1jNePPrc3jnj6oGy2/aLbhC0qhVsfxhnCrrV4l//uM1gMQhagIbeVDRhR11y9TB+j4Hpo6IP08I7UNPLLLauJ2nSarrIa/UTLzLNa27FFflfOBygLSVgr6ftWNJbtZAIKDymeiLW/uvPgaK4QGIXwk4bIZKTAARW4Yyvyf0puPUxXSdRyMtzaYkPY1Q41S8J8El1o3Aqbub1EqeHDoEGb4/BRaxAJjfbrVb4B9SLiLSarHXcnr9M3xUUFpDePBJiemrxY8Km1AqLJdOZ20i/3URGG4C3VwFdEZYkDdHgE1ghSROUiUceuhY1xoDXlAA3mAixpBCvaFRq20bUuuedFU+7LhLah4WvHmukUVf/EEirQNKasEu5ciODZWPYG9Vk9c+mK62BTGaZZYfbhNI1ieWrhJEEpPQz4UvR9h7rjdiUMUZJGsajWPTtUjSpIt1BYRFVp2c3m7CU0HDhcZhn2i4iCLp859OyfoV4z+/vAp3Tm8ENjEfo9CVwzObKohTohDCTeMmaDlFcmHFzKgGQQcCDRCtsTmDsKdcEoy0kw/LuMuHBTXVXVP0C6z05r7qmIrUZIL5J9hAR9L1ohxrWsYkXWJnUbdssPASLGDmzvkkw8Am+AdK1VHKJW6FltaKkFqD441aTWmlU2tu4ENAxAPpsXFXkxqn7Nr4UsRdwnXw85ONxteOn6OwiXeIG1DrKqOtn5YLJZgUdaCb8EvHRZUSDQG0JsYtGj+2QGrt4DIvBjJIVuhF7FZcYyguopZCziFZ66zKQmpdbQ4we3WUROm464lusZZHw2gZOj5+PVUU35GuenNK2Q7IDXjmkw5DYEMs1qogLmITpsS6jJyQWolhMrebY9O1SHhJY7jCiCMwNzwm6viAZHXG/Rs1at2gmE6k1keIf71+8ez726POHx8/zHtYGYmC+GZAKhPzlLHSV9e9ZD2Qw9yvZLxUVrhbwo8cAsbBWwTBT1gVydCa2t0FC6MNgRf79hQvRf4voIHohJV1L5GWV5+xDWXkBWp5XkL2TIuKnwbNSwHNGvd7xAL4D0HrLLr2J9P87gxVEEczo7gto5aY04QlBT0mpFY93iCOOd4YUmsDiMOzed/OYE2u05CSWqkfDEtgIA4/0qDKmKA/e3Fi3jxCcOf08tkdKiyYOkANyKLBvSVgmJ2TXwNlpcgKWyRULlaaxagvEhfeDjRZMgqLeIgPq+1sktRUNLS07gi9MPaYaCAoEk5RmBy6P6ZrfHPGyS8yFKrpibmP0Qv/MyIDwb1wcwiFtuL/RrqywKrAKamwlDhlDIGK6NTl0rpWRdLj0nVhpGDdTNPHVCPMmyhFq1Gm1F3v6oa9V1haT6TWR4x/vGJ5ZdzcQGziD8AmPJhHLQP8rHKhs9giGK5a2An2pom4uemIEtISeSNy03kS7GrjsWc/ILntNKHB38O2eeAWKfoAUquBRexunhVP0XQ8GNLixgBKqjEdgGG/wIyZrpdQMxVFcaMXzldGkBVivuP46N5XCXxKn+jMeu8aiCfvRD1TilEehlGvgHgTi3EZ/ykW6EjXIsabeHXQm795k4bDbxCSWkXEi6JYY8IilNRqxtaXp9L6aEGtiZemI76h/xXOahhhBvWRKGe5RhyGzLqJPS6ku0lDKn2LkrZYqJs4P/7ZoDNxHhBx2giFd20AH8vc7AYhqXVfuvKFPMGEqymRTYNcMjEEOji78ACg2JpqN7GER9P19ubaFebOU90w7WLIwOtPQB2IDkL+OhKVj2L++HQlrzgf5GJJv1AQUmtUXoSkVmwZQWqNKJJ+B5rcSZH0kePfWBGfhS0xfzpXHGGrS66cIrawOUjzkAAZg3Oz6Jsi9JOPK2EwGlhqrI7YTb1J0akV0EY3jtOB6Iur6jBi32oKKd3tgUg7SywvRLyc+ODSdDWZxvTgm3VjduHqnDaxHvEXRi/c0HFEN82D4oQPTi3SO/90zjaHUmEVhdWpMzrcFEOXmYfWT6TeLOrJAiYgbzYST9FQvGuJ74cZhtb3NKhiG2wEhE/44MePf/1D5ddCKixQE2StuuVwSSjSiTBd6GEbDDV/UnVUx9fcPbNk8XgO4q4S6DYf1vZEUIk8tvhSVFAf0hfXv5F+eYXRmcRp0EIhRj1BSqK3nop2U35BccQ2hZiIaJYBNhJCCvCF1MqV8hO6sj4cRj80vtZ80n1CIxCXz08wakWAG1x3egV2U8Oy3gNCUivwpl77+t0HRTEpqfUEOXwi8c8fIQ4TocJSHcYeqL5p9AQHm7Eu7jcYIJeUGzSoNzTHa/zc5y1LFUHvqk2EW13x7vCSGD5pgr6kOGJ4vHlQqg2CpEqkVRVUNZYNxdYaC25MYqkubCepjij1lDmrblwWnwwDD4D5849OvDkiXcNYrNfL9XoR/pNj01UAaGA5ONDi6OLabo43RgSoIfa/6fk7c7wxKKaTrfLTif+8Bhc2VBAHNvRNX2GJiNAWFjedThMp0bKnXOvqcV7SdZmx2mf9rqHWIdOiEap/q6bDGmWZSoXYOe2UMjUvDPXUUizJBPoq04A9NKqlTe6dSMGUs6g/Llhx4/blZT89NvLDhucn16XaDE0BO4L44n8nV6PNq+Ees9Sqyscn6UWAdEVGZLoHLNuWVzcdqkBqhV4EZ1YloD//6cdTH/yk4j+vCZsIC+zZnJ46lZFW2FBBfMhc8X11ZSYVVprhdafWgsukKpZhBUu0goaZHFnfrBU00QLMXEu1obP2rqaslNEX9+3mgD7rJNKiKHdiU0NqRehfHZrpNNbrdRXicN5GOk2vRjSowq8wIwo+LrX1f+CGc3+WIRSd+El6EXmARYs0avXGPItlhre4CCG1QsDW7rXnZ+Z4I3GqrE8wfv7p+fdmhOXKibaw3AqxO9Ifp673y/RgmF+3UvW1SDhw1QQNYgBOydTB2jdEK0jWER9M6xmxooPiNvTWgA9GxdtPhlUUE1XPPOy9gjzZPuDD5mLATd2RmhCWAXbNsPcA5CqgVvUl/WlxVOLjPeyoPByMl1woF+OPzrp5vDC/8SI2devhagzLoDEN5qOWhAAxwbuhF9poMODT+sMJH/wk42cwdcIVMckX2wrirtzRO/wCbuF/qlD5mzti6PSzrrUBJG5pI2q2TqbA+ShwAPNniwRYoD4nDyDDGiJtLcbKytsRz49qqMXXRmD7DBlh13mgbHnaL/T79LFrtXpEXvFXiBdJwPnW05Wk1jhIrfjxpT20HCPXkFp1+Z8A5LsLTqviIgws4sVpw/RU41+vqSAe4hKhIH6DxdKQ/tgRfdMGktNJn5/d9Ka5OBXE43E6TcVSMF4PbynUXxNl0JTXQ2/a7AR52mi4oLhvZCZ275h4vKnxK6FbqzQuyN2juRVoN3S7Ugv0LTVT2Ry72bcowY2KM768xiH5Gu+G+qzVt9q1PwVO6+OFUNB/+70YZLpX52/adsmlvDfbJqObti6T1Hr+UTUOTXz36pe/neLJBpk6BkiMAouW6KY9dmYkVVVvl4cNuaH32qCl02JcSKPQuuzQnZUFtkv9cCmwJpOaFHGihAMFu7EhOgBPYXtCpN2oRS1EiSllq+vH9mt0j0W9cAyo8epwQAf4QqGFTlrORohvubJmGYo4JKk1TVIr/qxopR8htfJQd3kXFvH85WnD9F/2zoS5jSIKwhxxHJOYJCCtrPtYyatjJdk6V4tOW5clFJP//2fonhmN1gabKwbsnVcFBVQhqoTHb+a97q//56VlE5mMuhMvJnUh/i7L0DqpJHbGUBLNsaGtrIsUBTJp3G0i1WK1W+HHQeh3YynKImhqZYIj26Nw7KQeh4QLXkTNI0905GZLrMKGkooD6/u3b10BDI4RkxbF7Zz8Yd6QGZ6HTxBqjrAfV0LTi851Fauu/hR6Y1ebWmVsaPOmv2rcZX0fmUfr/78EQfzsQBC/bQBIDG6+TuKVBHE40eMEEseStLOJWFiGsaa8BXcpXh9rGibUIARd5K2Woi5eRo/LIvRBFHsanD0/WhLyKW5pY8q18zgpYtZsFWl3zzXBw2/Cui1iNJ7VpvVL114XAebGeAZdYaIKPMg9Uyt88Hlv0YAsQt+DsbwxYv5nUR/eHhNHHNjqLDyEFPOMYuQUIIhHkNls23EYvlUs7LIMmlNH5GDQDwvFwlQE7pSiRDiJ1vrY8kYqftN92OTQGCndQaFtW+ewnz8sqWCJBotq90B+gup/4zOKWexunpkw4kuXMrUW4NNAKi4zBu+bWpG+C1PrmTa1sr42AVXPpt4jdp1AYiWbQIbnDg12xOnhIRYWAyi3h0wdwMWHTraIETEZp+vxMO51V0hS5fqTcyoKB5nUWn844fUOXzwuUpErzpIDJrEm8nt1bmseA7soVkTNS58zDEcVPuA5eOWeqnQ8AO8oLkytiC5IJ3Mit+GgBnednjS1Uh98tieSGlPrs6o3J0G+6WVjt/BiwybN6656wzr8K+gSQRD3Uth7RvE4opKBD8ea53kg7QtTK47NJgdexKOyCI0ylYk1kNpkC1y9cOiMa3eeXfkRK4B+wNJ+vuQFWhRfrWE/rsKAvrSQ/tWxPcT8yVgkbWqV+ODV7hKlSUzG1Prs6oeTV7wRs3Z4wt5+bqz6jJJUkjUlm9hscue1LWx3sWaLxxVihJ+znAvF4nXAXbIXQjnoDOMQFz1yVrVxpoaNICLslvj3SgWlb7eG2LbyKKceQqEGJFSz8Tr7TPysT1vZrPhTgQLhbHnmra52CfxP8mG2UaZWwr59ZGh6K21qlb31lTG1Pr96/+bd64PyH3zTzIrIAQiJA7+e5cOn1oFlcka4N3lOEKRaI2ZGUN/AlEZMHR+fMWnBAzXANyR+U8xfLAicwqZJOH9M2VhT8Yc/Il2Fk9aNPhc/6xOWnjBdlDhhitThzJ+koCm9p3gZVRDNIFjfenvz6thIDp9nfTjVI2KcWNqpdglMKizM/d07j58Kxoo7Qi9bxV/YTsU1VkjRiWdxm4AxxcWS5mFZRJ36YOZvnOeYv8EwaH5MCavCWQK2OCRpUXnx+59BhXGeksU8pRLFMA+WdEkiKXCzkI0k8GitIiObJjw928cLFoN8O3OpTa0yV9nAvp9tfX/wwmYaNCvPu0L477jaqUOCOBEuIh5KyRpE8rrcwQA2NMJYl8IJLYM4VPxOa0Uy+rACHpTMqVRQzSyOa3eA7o1DLRvs7/tp41z0zCDHMMc1y1JBrWDJ5rH9rsHU6gTcGq4LxuU1nDfbK7G90UGtb8yq9VnXGyWbyKilzg7G1hkXd0o2IZc6OQiJU8DDAF2WLZFvyoss/gDKzx1OOsAoEbf02+O6D8WClr/GqB53ydFUkSkxLtn0DAa4ngy2SNJi3jk7rEiUvUckbUOe6CUwZ2rhiD8XWsSTVZZVxCih5FbqIFz1kWCUs4LLGx9eSEzwB1uFTcvIe/CJuQY/+xIE8UNoHW7E3doNX0E6FtYSW3do6wEk9tposGiK0quG47q22t0FYiaFsy6Y7CpL+ADimAeLOTJxEcj28J0xH78WH7/F5Qjb3ZUERVDxpD/j/if0uf15NiSmJysN+wZjIwKSYRcJRiBWtjSJiYLSMcj89hYTxKuDqfU7E6PxIur7j6+DAPFGBk4dHlgNm5Br93EThg44nvNJK8tRUWF/XAd4OiXEWavX1YA3yBNN4aQJce86KvTBfg4gpmn75maYHLkbuGkdcg8Wq1XXqylihfTTalusAFXUAfxePhfK4RNWdsnlDY2KkJgNErDJaV2EEqSVx1i/2XDeBE2tJkbjxdSHU+j+g7Gwl1vi1/h/3tGeDiGbyAMaMqgNyzSTF+Vl2JmCKo7g9Ym2wh5KqJiqWNHGItbmJ4EkRQqPMrXi8gtkYhYP4VbvRoiRRfLd/kM0eS2P9Y9XyydBVwy54FDKokWuMnKDbrz5bue1K4wTFJ1VGapcxhxtxfImYGo1GegvqJDj/OpOh50P+nDqWGVBENe2DlB+Yh62OjHqfYUVtpBdj6Ypr7tYddlg86z9mxVFghPkwcxpF0RSATOVflhBYgItBjHDUYiG6SThjTgIdhGUcdpiGSfg4sf0uZGYnuK4UsMULTenMC7CmU83lVuWplaZko/Z0wSP1rvLG3MPfmF1erzfwcpY2M+ZRQ1acUkQ13v3NXgOkE1kIJvwf2Hcaxa+OSLDB4iFxQs2TissL7MkdaNNpicJvK0qPgcjAVOrZLsofCFa9S/Y9EdSAT8tqs6EWUELt2Hkc4uEw0RDbWmVx7WEEdM6MlldZbrppEvFoXWI7UVqwrS/aChZxN56c2xMrS+uvlcEcR0Le0a9eHMsVRNaNkHfZD9he8L+Jnav0SWhp8IKm+B4V9Ue3IIm7UYZblfYtHLS1KpMdinZYJOkQcCeh7wWqJG1n1Z/Qoq+uWUJds4wt9YsSsZoZFsUAeMeApuEy7V4QBdBU+vqTJtaeQ82cXIvtH48eaV1/4IgTmtdxCJBXMGcFEQkCZ7D2WAycws4hTKQEGetuwLNiTdi0RbJWwObBWIot8BVLU6r0wS3TZtatY2VvvNWAb3XbcJRMN/yCUu9P4FtsNNCs9gq4L/xPwtq/VdLd1Y4o6LOeQ2WqNoM5NlAOhlfsE5z2p9nroiLOERUmUfrS60P1CWeobRsYmsTSKxiYbUjK0cg8WBQJUEcZ5EpWH7uPC6worbXZ+9Mpap7hFNUhHgANUFO+N34dHZY/IM6djxL0MfJQvBAOuzaEGWgJn0AiMEHi8oMvLAe1SyL+V4o5Bnhlb/owNTqHFjfnAzLEPSFYIQcNEzvjIjpBdd7hmDdIYivOrFzCGbuEsSdcYX3MRuvW6RCkudUJJOFl9kVZk4equMh4hFuLixpCXchF4atNRifrkIz2G7b1z1nExV+2ir8tPPVSpz8NGjhkPSH3NQqVUxcgkX9XhtpBjQu5soa9s3ljS9NrZk7ptZvjfPmpRfgMJAlah3x56uMjQut5d6hiRCHeQ04DLgxPW5TL+iwWVqRPJIdt3h+2qhJ9QZrmgu2VpG7/kAUneI9xXm0S+BZj/H6shf00w48tBBX9OYQk13UbynqIjgQztuL7SB9ntus9fKGPjm3zPcstjdc3uzU8ubIqJhCUD9C+a9fsJQlrjrUD1pukNVVhnAGN9dEIn1TsSDkJW1i2Rpfw72TsBGeDLC4NLVesLWCE55X6bAPcCJS8foUHxQtbNCl64KFGhuKTzBEUmLTuAPL0Xx8z9TqCILamKbWhUpqVZ3VmFpDUt+fvv5GqSZ2Zw3sdERo3UjpiPXSAEG/se4OXpDZiJk6NMMWALmFPngC6/p1blmilr9YIp4P/G6iJh4sEfeYhxEWCx9cq5PD2SzSLDO7shTyW7CAu2DEVMSjtTbIrOxYsyxMrShLjhIQeV3HYodIUu1p/ea1aa2hqQ9vTl/vZROXWLhDlihCNSzNN+WDCb/Up7E0RAzMxvELhE1kW1avgjThyggIJyUtBslbh7w+Sk5LxSLlbImaYtdxHHjj+Qlhf7QKXITItRYxe/lZJVe+QyRFZ0XYF2I0iDncZ96c/mCWN2GqD1I2oc3rV5cQEs8om6CUXBPEXQsXNKCb7DxlE3LmtFyv10umKAu0S3Tda1MY8TDZhaWSnOsCnLYvLm9Cvb2RyxuM8kqjmAeKbHXazOE71ylkZX/TwhWnM5dafpQKaj01hzVsJZw6miB+BYL4YBKTER1aTi4I4jPKJiZgnq1J5MMh42REeNdxjUOA97WkOD1OYpLpGtMxgBUodVyfZUAV60tGvxa5sIZPDpB2wrSEjlvaLqgP5YQeq1axa5XXYBPUGtL68eRAEG9QhApd4k1TP2HFws/Bvm8cwQoBNtlkqyhiYQuiJKMvmruugw9cjz1+XFlQ91cgDOa/vv+EsB9XajcLbiVmd1cTpAmp/XfQ1Jqy540rubxRHnTzZg1rKYK4joW9vSTxf1RWVlg1cqJsoj6BtiHFLDl0RjZWZcssIW+/6tXgUNcu1gdo4UiTA6xibQxygQhJPt031nk8ATl2vWLxgB6W35wH4yECxaEOvQGQ9DsjYgpxfXj7nTque8Bptw9/jaMI4toLO0pOq5CxYkjs80JcVFDNAlkRia5HEtPexvq7tPA8XHI00kYvzHEVx3WpiKRjAQWY5GV2tqN1Eb4jTK3bTDAEHfpgcw8Od72laiLQYS/P7NRwJFMdNOAUvhBrNllk5l59BKeceHVG+XKNtqb2AACoVJ4Wm/sNVv89Tez9Th3oNkNiUp6jAmFYfu4GjOD5pN70fV/j7mQmCkytc5ha8UTRptbXp+a0hr3QYI8OBHHUVhLEHTGi1F5YLv9qsGCm200wXjjVld01ghawsj3YWOlilR32XtYr/a+MUY+UN8WSITGhokVM2rIAwmpTq4bJWlzeCFNrV5hadWf99ru35h5sCg32+Nu7VtjL1aTdtNb+/kKsvJYWZBO4mPWvnRKssMUlX1+bZr6z220Jh8mLVNj74LQY/jFYfjZ4M2jMxVDTIg7H9QJLMR/Om9uzQTrpYF+jUe0wSK3dMUytyEq5lZ1VbW/efmXKlCKIf6OtsJIgTpqTlMLtf+kLRlDVg1+1nkQondBIFIH8n0K0z1hYWutkgxWls15lRmw9kmuFnfidVaZWzupgasU0ACHoGAjTtHgwtTo0tWpZhChjajV1VzWhrbAo/qScwVo3BsxACGzUtBKundEUw8p5Jz+OAhEhM2wshhXCxtr1FIkpcFwZEgtT6yTObKxiMdSJN9p6g+1N1r3uD+Y0tZb3plYUTa2+w6TWzK02tbKMqdXUvQZ7yiesrAZZ09tBbQpBHCsQC8tVYKLbxWXZ2aBPcK2zhO2cDXYhYRPsr4eKC14E7TjRkHPTdFArdBE0/tpdmFpHjq9xEU4ZlRvh1bpqSBXTXnJ4Ykytpu7XD+9gXQ/OnOaJ9BA53VwHBn6inB5UE7bNtcwSjYKhjmsEpNUSi9V8AVsdb8Sam1aFBx2H1VlDrhhybto+qPUiil9vfTwelKnVcfa/C32SdwjyaFwpXQTr1Xfm0Wrqd506x6/1nbhBK+ygBtKSRYJ4IBa25SJTZ7Dy4uc5P1uEq/qXiyidOh5YwgSIk+Yk4d/y1YoLH1hOoSYx7YNaKTlcOyTVEeORW/tBU6srJYdbotsbOzUOPnptEqpMPVDvfzh9HWywZyu7lp8lRTxL+bBnyPXO6yLItR2hbAIS9ajv0KDugU2KJ2yVWXREu6Th5ek54EWEvLdmRUCVDGqFyUlk4O4neSqo1RmDdFXtLM60qZVBrWZ5Y+rxDvstvLD6CXv7abcAdRjE/z1+TfJNW5heEms4qY9EyCSQEFlASzlz2g06Hq7Ano2nbGoGXARssWGeMWVlRQsw9y7Lwz6AV1SHOfugXUtM3elNFwFVnz9pEhNCb8w92NQfOXWO1Y1YyhLP5l1BEOdtTdswGS0Kbf+kA/ZBT6Y2F7NrgCJifbuLsvG4Zdad5YvAnTBbb7IoSd1YW+epvu1VcV+RX6dSHKIoD7ZXyM1GqYCqb01Qq6k/Ue8/UjahrbDY1mcWyH51tGxCmtd9f3wetyGRqJ2XS2RNXCDYpTWaVTurOVBM3Uk8gu2sECyG2nqTZcHU+kth3E5c7Ra14UgGVKEkkXTtlyPxxNmnW46DWRLucmrGwab+pFNHySa4g2XcLwZLnGOqx5aKhXWoS+yAGjwl1hsdlsChcfJGkJhg3nQ2BaoVw/tkVabW/YQpP0nAUjzs4YS6QVMrsZPdOeOy2VlZMLW+NfJgU3/+CftKdNiMssJeZeaTdhIWL/WEtRT81oKmyZ53a9McZBM/01qXXVvNZDLZG7dE5k0hzLQImSfH7U20VQEbbdHHAppxugFTK2Z0wzSCxFAHXoQxtZr6S/X+LQjid2QTcwKJLW2FVatCtzfEwt/u8wUraf7FJW56UBgXLthZQ5x5o4mkAOTw3YAlV7tn+ZKucwhBTwpT6+2hsyKhyoiYTP3VenOin7CNBmdOA483OUEQzwW8sM1hnJbNeqWMjA6RM4mCWYetNezHtcDH+2aEdSq/IdAmDxnoQiMm58EZ0Vo1kdSYWk39LYL4Kx0LKwjiZ13AvwSkWlthndamVU6mu1tojCNulD+d6LFosqFHHKrWeoFc5XZnkVl4sPsqIqmGfY8iMLUqIqlprab+qZD45Eh1WMWaWCXS06Te7yvZRJnU6kmn28eC1i+Is1oshvrRKo8rFV9LYWqFdKR+3rOCkzrXRRJujKZWLYvgaTW6CFP/qMGe6cJS5/OnbSKWzLXW8kKsgIk+Neteo9Ho1nsb7HRCHaJx2LVeAPXailTnV5lVqumscQ0J3En8FpNa+Y1qUyuXrSap1dQ/OrCnx9/qCzFHxFu7Vpd808ArDK1iCHi1PWH8Y5TKiNDub7IsEXnDNJJZrUMCB24kQSKpK0LQkdQKYOwhRgOmVtNaTf3TGTF3sJpvSvN6l1lUrbVS0ekYfj7EtnY10orCqBNaKFOWVURQ68XSgeSQPsSe+t2mlzfIQrhBCPrtlV7eoI7Mo9XUF6gf39ILq2QT2OZ/OhsAl9jLWYc5p6CBjZP1fqLjxc57jk9Vfxi1h3tTa2HZspqgHHY6yPdzfE7ndBpnbgTU+mSVEabWfVDriZEcmvpiJ/YdZRNBvukEnhILi9d7sbDDfG3i1eLD3Kb4s8hYDttxXYqAKgS13qT73gTvhp4ytaqsa9+hnQn8w2BSKyZMhu1i6svV9x+51VFDYnTYxrbbB0FczIidQx6/m4vUqyLHedRSgVWhGTvtTa2UdtHT2gXkEM58uvs1PgffFnI4O6szCk8aeyDp0XdvvjJlStYXDsFSDTazg1MHOidphQ3c9CI3aYxX+u1KWfhQwnVcYWplbnXMQ6xQDE7hnPhS9PveqkzTCXRW0VpVZzVBraZYX7zBvoYXVqsmbimbAB1GXohROcU3dXPD2uCs0a1G/CLyWwvh6K8K9l0C3KU88xaXWzuV5L6mbAVg3zlkV60uP3/+fKU3rTitprWaeoKiU0fJJjINwdXcDrw4Y9MOUGtxO2aD9ToAUUSsdeGiFApzukpqLWxy57E+KK7xWQVEUk25YpifMLXOM+Kb2wdUHRswv6knqzdKNpFhkTYB5X8eJvS1gg6pNrJ2e9PJLpOx2+MlQ2HDcVxL2N4sx207s5tXI2NISYJE0vUaSa12AyAmoeXfH1eT1GrqCYsE8YNsAjHOmTlXFZZssNoLC9nELD2BUycPCiJCTF80vl+mexGa4YO5XLNtqDGJt9JEUkb6jZtTYtOuPul7MEhMH83yxtTT1oePRwHZBE5sY9vJo5kogrjywtIadh73Fisv1lwXRWjd8uUeV5paf/6p4CfTnfmAIQdlOTAPmlpTNLXyGqxlEe/MYTX19PXm9PhI802J2dwm0GBzkm+qmCaEwyAW1ht0qTFeRwlUeIkeHZ3UWgRII5LqDgaTdsU6EEmdg6l1d0lchJ4wHX8092BTT1uaIH4UjIVtIFOHB5ZWWB5YTRAHHQYAbMZ3bOCqe4kU/z3j8GINSpXdHfTBcsUJvWNqZVLrQDlv9hfhV++M4tDUv1U/nh4pK+xuJzpshmAT9FRXNliVpQbYRL2zIJltvBEj4pckm8hmdWv9qbAZtYHfH3jtURliEb28IUB4dK5MrZRFqBD0Y3NaTf17xQaLAxuQTWRAbGJncVt3ljpW71zGwt6IWNifXpBsIssi8Ka0KVeQEmR7+AJ6IgRdd9aWMLUOdoIXoQOqjOTQ1L9d3+sILBT5pp93dhoA8Y1c6uzHLOtNLpJeZRrz2rXDVNPSCwHCKNg3iaQX5evarpEZpJAatD7AXcv+Zu33pjUktWrWN3vr10cG9m3q3y6qJt6RIK6tsA3KEofNMacrxMPoOIkI4jiQ1zytMFTnhcgmZFArQHK+hRUNaN/S1KqJpPwKxk1kHSxkUuueSHry0SS1mvpv6sPbgGyiwS3sysPOsQzZhLbCiusxAhK9ge3Fkk7hhcgmlCwiWk4CH9z10rMRNUx69eyL5Q02WRgHE/atZBGGSPore2fe1bYRRfEmZUkICSkF2XjDG5YX2QbZlixhyRjLOzbk+3+Z3jcaj5V0T2jB8G5Pe9rTJJg/hjfLvb/LejJ9SxBfkWuiQEdYFYWVBHFReFXr2umZZcxFFHaLb4nPVVPrHO6tlN2tpVtDK+KLKENZ4CJsWA5v8XqjQq2HfGhlPaGUbUKyJujSCfwE7AujUdgwleL3Ul3HsXPNKfBr22ybgC1CPN4Up1bdHo0S1YEoapVJQlFQRdfB/ZF45FK+iJ/3f+HkDeupdUTGf1WCtQIrDBUdQ0+LRmHJ2eN6vTRK6xLwGM9x7NtOVqJ8vCFb5Vxv5hJOABKO525M07oIOQjH4RURSeVkpdHKyRvWc9DRh/31EbYRwiZG/TMqXqebl0jdsA/oCaW2U0N/Sg8g27pckby5xIV3DKWYfUreaKGfS/xcItZ3BYt1Er+CVKj1Zw61sp6Ljj4cRGphacJmRjUQxE3TDJvWpG3CLFu5RIDp28qeIxm6baaJtTHiEh9du7EnV0Eh1tSJ9a3M0gaAGhWEWqOsb/gidvd5tLKejz6/29gmGuRkj48KRBCXkU9lm8g2ezkbjoIUdpCnl1vWT3euXm8QaoX3ox+TYV9NhVrJHlwtLBBWwmhd2yI41Mp6bvr1W9vE/aJwhtK6sVvWw+UaFq9Ps8nUCLaJlOXePWBMbdVyHecv0AN0Xm45y0ZQxZ7eFXx0TZOh1rmGUGsGuwvlYYJ22MzPen4CQXxnE4WlZF2hOquIoVqW20WsV7JN5GqJTh/Gf/Mc+LXtiMKKj0iw71M3i89fSIhQq6seb0TgNwy1IlSozPw/I9TKo5X1LPVuP0oQv1oRsajkGQQDlBviNQ6QAmWFWq98egm+6TZMWHxEEWq9MJOpwtLp1ivRUCttG1wdTXOJBR0FMqQw1Mq+CNaz1fHHA1WClblCFHaJAUu2RPksqWC7zUHV6XTwYmkg2l183llY2SYnOOdmtpRKOJN+PYnJKh9vZAl6mJMjW4SK3uzusy+C9Zz16eOeHLAyqSN2xH7ZlaYf5fqh145OIeSbUhb2+domJJEUHxI1VNVEpwPYty+sH+vJij2xL5paZQm6XK073NTKeub6/GF/dyfcE4so7H0j6IJHXA6TdcpTOzWyAzTIBO1U0pjnxQn2OdomVFGrOLXCxTRZUKhVd11xHNdCXoSpecMzhFpXiN6oDvRdDrWytkCf3h3uS75p+KgTdEJEtmGsi/4FbcxLwnDb76dbPficiCD+XJcrWN/XpwZwrOHHPbFCXsS6qFXHN3KmQq2Z0Bax//GY98GsrdCv2BFjvgrhCIsJOwKQ2DLUs4eshUVXca3jjBK1gZ6/frgUV8TPKA17rkKtd3fTSq47GhE3TZckJlU0AjN0e9KINLW+gS+CH29Y2yNBEH+z6V2PBx0iiMta2KykLSC3cnKTS9ttNNpl53myTTyn8Lq0ReBDGbj07fbts9mw+W2oFcmbvhNkGptQ69u9Q860srZLxwe7b1QUFh0dq9Wk37LKbqREXGTrTG+YdoIABPG5sE08q+U6hj/47u7ULNnOYmLPmvR5VVOrAVgrzPwoav1yv4o0te5wUStr6/Q5eoRF49o9suu5oaWpO1VRC+uCPdaL2cTSPtHc02cThV0nby7y8zKZHwrd6k0zZD3KplYo6/UoJwe0nGpqRQc6m/lZ2ygUr8sBK6M68VE3dxK1TegQZWGBZOiAVjzUz0PbxNPXwoqNMNki3Ga9Hzidas/SyBahazLUirthH/vgCdmDGw3lYtrjUCtrW/XhAK11EdvEVUgQL68TZ5JyP9WRYglGTrXnmYog/pQjdj1aixitubaDt+OBbwoiqfJFGGhHh+NQFrVueBG8WllbqyOUYEX5po04XlqxqzRMgttD8lVH8wA4LRQSNZwPiW+af/LlWsSnmGsnZ32EWlMD3DCJHzHyB4xhZEVTq6y6lauVQ62sbde796hdj9bCNnDllBTRdY0UtU04ccBPK4DDXD4Va0J9UVqteXykSTwo5Cx9OjUisDiM2WS9P7kKbRGqBH2f/cGsrdfxxz0VhaVWJ4lfKxuiokMNWLgNZgCcohY2WR6Db/oUzn9Vo4EnJWpqbRcSxGLViIWxQbGWRag1yIhvRi7XHQ61sl6GPh9GorAZisJmOtWhZs5VaZ0sXi9brTayst2hXgTftPg0y3U8zhevH67zOkKtq0m1l52Gh9bQIExNrVoz1onDFiG8/HK57rEvgvVS9OnDwW5cldYhD7oUuESMqq8I4oBN3ACX2K61Kvo0r7Kw/9eqVY83F2PTRxtXoW3D7azjpCptESHsuzLDFVMD34R6vAHsm59aWS9Ix+/jJBWFvV06eBvBmVUSxDXJX8PrSKod4MEHtbB3d9f/o21CEUnxelMupTqB066LGkxV1GqQx8PCfXC8oVjf0FsOtbJemj59fL+3ruigK6fbjFOrJwkg/o1twj+JtTsd5L+z0zGFTP+fKOw5RG1yRQCQTa2UbjvwB1fK8olYNmBSBSZCrctbOA5V8mbvPYdaWS9PR7gkjgxY6tSp1dGpU5ZWIWUWota2QteOYfqOL+iW+P9arvhiF3OtgqBQoV3LIdSqiKS6IJI2S3VbhVplUesB74NZL1PHh3s7oW1iGcfh7/4qSFTrJRDEI1FY3ZybGlxOwCVSDHxKJ9j/nHAahlpxIXzqIl9jJxIJcFf1KfmDFSaZJms1ETRWXzaOwx3k5PiplfVS9ekXIoirpE5mGRBZ28qK8LocsPRvVrLXSve7XXigzEskdfL/8XIFggbujHPTalW77dpZa1jxsvRBoi0/QJoHy0x0tB584MnKesk6+oUI4mu+KVwTXxoUdZHkI22Nc5rPDW/WHzXinZRFRLOiSp8+/mA9p3+IKyazkpqgggA1tS6FWteuK/iDTQ9wKRS1RkOtb7molfXidfTucG2bwIClS5sJjMRNwZpQXgRavFYJoy7RTsFIfH5Bton/bLmKx5vzMrqTuyhqneECLJz2ikhqlRBOX14Jbpr08nOolfU69IlsE5Es7Gq16OYqxP6Ub7AkIpYBcNoNgiCdNC6oFva/Wa7jMRyHD9dFo9d3MiN75oUpuQ2RdKpbM9tpUEouQiTlUCvrtYgI4vFQIgvbCBIpFFgIhJPiJZI1tzmrtp1u+kbUwl6EjzqPXSdH1LQ5cuZVtG2lB6KodUMkpXM0hVrjmKzKHwxeBL+0sl6R3h2sl6uM6kwSKbJNRAjiehjVuUGrsdNvefMiBizVwj42Nw1uDIRaQWIi44YuWd/y0GqWvWGsG1CdnCpqxesNh1pZr0vH5Jp4o2wTuMLp1GaVzVOnsk1YN1VnRNh8ffyotbDnm1CrkYx1nUmhNvApdR55Ajb834VayRfBq5X16nT8Xh1hFUEcRuKyLJ6B5G60Mkh1sVGNlbJjvLYUH225YvmjZXaul1JonaVGWr8MSYMVBYb8b0Ot0A6HWlmvUseHxJqIRGGvgnbsxDMFajBqmygnz+BPcPoDHS6nC2JN/OCIlb+1CLrxONurLRaLBKb33BWReY0k4n0Uam18HWrdYX8w67Xq119QghUliC86/VwJB8iIL1H4/pvAr7WBdej5bv6abBM/vFzzRXoccgkSTBlbamqN1MmZFGoFBBmhVigjXUwcamW9ah19lLZ/RRC/Gtk3vjFXtbCSIO76JzW0uzk5b/7w8HD3gzvi8IoJoVY/1smsRrWeDl+EAqri8Wbs6pVYIf7lyz0dWtfLde8jP7WyXrWoomNH2SbgmogHffBNsWjKG9sE7Uy9Uq4mnPdZY34qnMTnpO9nfU+ph8pOtG3QGUXMQCZvyCDhJUWodbVhfe/sH7LlkMX6/OEgeucEILEDqr+lm2SxV1lY8hlVgF/rCB9x8U7ZJr7LFnF3nXetm1QbfOMZ8MFGpM7SdXW5WKOsb07esFhywZIvUbkm7mFLbFfrIIirKKyshdUqYQlWbuib4+8iiIvRWoSf0ST0ot2tpeBXNlwZkZcvvSetdNchy+E61PqGO9BZrI0+/7K3dk2AsY2phl7GWMnCGlW2iRAgbiEf3nbAZvOmeSKI/0vbhAi1Xl9PvQEwqZ1aqxRpFdA0ekPyKYAe0OONYn2/ectFrSxWREeohZVRnSU96txfLQvwHhLTV+5TxXLCHEzW7dFk1K43y3QE/ee1sKqp9fJ0arVQeuMQsULsuKWLShW10tdXoVYASXm1slh/eoTFfIWWQTt9U8mWXZwsox5eKlrtFhL9XFLPX17LWth/SmK6RKtykwjkXVgyrGy0qRWRAizW7gg3XlBDHVqZ7cJi/RFBfJfma9Q20a0nAQ79iiBuws1QOSssb0f2yRSG34tNE+tfTlb8jdV6d2FaqUUm45ydaHNM1s1Vluu6Xq86upJEUrkNfrvPoVYW68+SOsLnFCWIz0BzMowIQdyEbQK+ROBhYDLW/74WVr3ewBYxLiPj0+1QqFUVtaqm1pNc14lfyaJW0g6HWlmsv7JN7IorYgVMXGUSsRMdoVNDLlcZhTX9UjVYLNo32fHD39fCiujNNX6d0auNrkb9G/LyGypJQBNbhFqvViLUqmwRh/x4w2L9hX5F77qCw9wiqQPj/03SV1FYaZswdX94Bme+nUtqLiV1in/yqHNOyhfXodZaokBJPV3YIiCJTcs2B7HuJK6IpNDb/Y9sD2ax/m7BHmLARlrrbmnBNjXXNQ25XNdrbJhuT4JE+sQ4vaZHnfGfLtfi9d3dpWnV26Ogk+5ZgjOjIgT4cxFqbQeZ1a0KtUK73P3IYv0Tgvj+7iYKe3t/K2xOvuCbRmthXQzY9sjppIegOeXhSoROv1VesL6pBD0ZQwS9UO35ZbpiCjvQhTHCB0misCBUeSOzCbXyFROL9Q8XrDzCqigsFizV1QjimdrE6poFb1KnQPdRJlU80pL9eq0Sj/T6rjj16YmGQq1NhFojXmQRagU+OKMeb0i7HGplsf7NgFW1sIIgjh0xwWGitbCaZkxd4ps6GeRkm+4pliut16gwV7GKL6dAyEwW8Ta6KAWRVF1ZmUb2pN4PGrBFXKlQ684uo5hYrH+jz7hyUrWwNPmWTlfMRsPc2CbE+0sSfNMCdbLjgndM43QtIsWMsTw1D2T+dgKhVisrnmw2RFIv2UKolaK2ivXN/mAW69/rmFxOUhlAHe5XQb9e0cgmUQ67MGQ2VW/mOovAwR2S7p4TKu1BCLdL+bGpeyh4TCwWTm1Isdny+uwLE9O07JdShQyFWjPLZTzUz/tMYmKxvi8LS3gYeeV0exufJKqtEo3Ib9vMZ7F0LX1Wnw1KFcv3NVLW95rJ4WDWyp2l0+lUa2iFfe3KFuFVBjEbozXC+t7BZOXFymJ9nz7TnZMCiIseZ7ue1EzXlaAWEq3eLCho7UKnkOja1VQsl8vFztK1PrguBeTPUzdALEabWolA7g3SdMMUfbzZOXj3E4vF+gFf4t6OOsIS33QkCOKSNaH4poQYjaVttGB1+7Zdq9Vsu0//YWPotnoV2Uq54UV4aEd3FjSyN4dWbqhisX68BGvDmggJ4u3UoKmFJVgqC6sjqtMs3dRT6ZrdJ9m1ajrWGpxUPB+/AJLbZwMZWj9Ji5X+rAgvgmNyLNZj1DgTQVxN2C+3GQTLk1k9jMIq2wSWLxVNzuqxs1QqdRbLtQZDysiZZiSCR8dWuimmUCuiN+vJilArl96wWI+ho+NDaZuQAzYT0IL1sRI3PmJdeIp937OsJsmyLM9fo8Ujvgjd68ExsQxZ3xxqZbEeXSCIY75GamFXi0Is6YdzE9oA2PA+E8qFTGPdJafJ/z01vWF10vg61PrzAfuDWaxH1Cf0OL9Rxeu4IVp27DoGLNn11XKlEWtERANXLtcwKJu1SqiTy0RCrW/Q1MqOQxbrkfUBB9hIFBbzsZMa+pimxDHEX3+lrCYwFAin10bCyx+H5IXwez60sliPrk8f3m/4pler29sFnWA9GqnKtf+tFOSJds3NHkI5X4VauUbjt/buZjdtIIoCsLAHbOMAxl7EpcpIUSUqVdSIQkxaQQstCFWRY+X9XyZnfjAsouywkXK+LAiwHo1nOPdeoktBpU6qSVDtYfBEPEc7Qz0W9u0tFh+aRkyT9fh2ccj+mniw5fHQSnQpg7BbTa2TmSqFPTzertYINunr3zeYvXfy9ff0f1XUWphDq/ACppiILigKPXEaWgeFWrBT/Kijc0vnbO9g1YXCjNGQs7Nm306Hsx+JLmyA3L/pIA7YYMuywBEWM3VUB3FDrVPDzn7Uh1b5UlZjNBzBOjmiWkQ+amFP/U2z4vDw5xM6iKuw/w+YgHlFTHGd/1Mzb3Z4dlZbK2+YiGrm63aJ1RH2pZwdHr+rIP8vm5Awrziy5uM5zqxqE56lwEGtRPWLe3bwusR61WNhR9/uN+PP03xt5DnKXRH5X45+PplcxPE5OGDlDVG9BkMTm5DHWtgs3Y+Wd/fzzXa7Wm03iPrfLRd4CFaLOZNwTDHxhomodthghVNdEqvww27/8GWh611R+Ypq9f2uUEWy+EammssbJqKGhF1xSk2A/Z2mgFSa95qsOpKyqJWoKeg1UU2tkxJPxJjM+myU6j+b5K+KWoc8tRI1J+lV/U1tMeyJ3WyNVttjUStRs/o3ni3VsaSRnmm1sLVyjAZR86LQzHG2pP0742LkDQ+tRFchDoTz3u7aZjyY6Hokfi/otIVwkSY2HMd1hWh3ukGPsQiiK5MMb7oelqxrYal6WKs+1yrRFYr6SRz7oeb7fhwn/Yjl5x/SK137lyDdxA/XAAAAAElFTkSuQmCC;fontSize=20;" parent="1" vertex="1">
          <mxGeometry x="80" y="417.51" width="78.57" height="82.49" as="geometry" />
        </mxCell>
        <mxCell id="_3xDCkGt-uZ2KmA9hD5z-12" style="edgeStyle=orthogonalEdgeStyle;rounded=0;orthogonalLoop=1;jettySize=auto;html=1;entryX=0;entryY=0.5;entryDx=0;entryDy=0;strokeWidth=3;fillColor=#e1d5e7;strokeColor=#9673a6;" parent="1" source="_3xDCkGt-uZ2KmA9hD5z-5" target="_3xDCkGt-uZ2KmA9hD5z-8" edge="1">
          <mxGeometry relative="1" as="geometry">
            <mxPoint x="505" y="320" as="targetPoint" />
          </mxGeometry>
        </mxCell>
        <mxCell id="_3xDCkGt-uZ2KmA9hD5z-13" value="&lt;font style=&quot;font-size: 20px;&quot;&gt;&lt;b&gt;DP 1.4&lt;/b&gt;&lt;/font&gt;" style="edgeLabel;html=1;align=center;verticalAlign=middle;resizable=0;points=[];" parent="_3xDCkGt-uZ2KmA9hD5z-12" vertex="1" connectable="0">
          <mxGeometry x="0.0386" y="1" relative="1" as="geometry">
            <mxPoint as="offset" />
          </mxGeometry>
        </mxCell>
        <mxCell id="_3xDCkGt-uZ2KmA9hD5z-7" value="&lt;b&gt;DESK&lt;/b&gt;" style="rounded=0;whiteSpace=wrap;html=1;" parent="1" vertex="1">
          <mxGeometry x="335" y="500" width="550" height="20" as="geometry" />
        </mxCell>
        <mxCell id="EVmiSjmFIiezxg2oS5IS-4" style="edgeStyle=orthogonalEdgeStyle;rounded=0;orthogonalLoop=1;jettySize=auto;html=1;strokeWidth=3;fillColor=#e1d5e7;strokeColor=#9673a6;startArrow=classic;startFill=1;endArrow=none;endFill=0;entryX=0.5;entryY=0;entryDx=0;entryDy=0;exitX=1.009;exitY=0.55;exitDx=0;exitDy=0;exitPerimeter=0;" parent="1" source="_3xDCkGt-uZ2KmA9hD5z-8" target="EVmiSjmFIiezxg2oS5IS-3" edge="1">
          <mxGeometry relative="1" as="geometry">
            <mxPoint x="790" y="190.07999999999998" as="sourcePoint" />
            <mxPoint x="1125" y="520" as="targetPoint" />
          </mxGeometry>
        </mxCell>
        <mxCell id="EVmiSjmFIiezxg2oS5IS-6" value="&lt;b&gt;&lt;font style=&quot;font-size: 20px;&quot;&gt;HDMI 2.1&lt;/font&gt;&lt;/b&gt;" style="edgeLabel;html=1;align=center;verticalAlign=middle;resizable=0;points=[];" parent="EVmiSjmFIiezxg2oS5IS-4" vertex="1" connectable="0">
          <mxGeometry x="0.1832" y="-2" relative="1" as="geometry">
            <mxPoint as="offset" />
          </mxGeometry>
        </mxCell>
        <mxCell id="_3xDCkGt-uZ2KmA9hD5z-8" value="&lt;font style=&quot;font-size: 30px;&quot;&gt;27&quot; 1440p&lt;br&gt;165hz Monitor&lt;/font&gt;" style="rounded=0;whiteSpace=wrap;html=1;" parent="1" vertex="1">
          <mxGeometry x="440" y="100" width="320" height="160" as="geometry" />
        </mxCell>
        <mxCell id="_3xDCkGt-uZ2KmA9hD5z-16" value="" style="group" parent="1" vertex="1" connectable="0">
          <mxGeometry x="180" y="280" width="100" height="60" as="geometry" />
        </mxCell>
        <mxCell id="_3xDCkGt-uZ2KmA9hD5z-5" value="" style="verticalLabelPosition=bottom;verticalAlign=top;html=1;shape=mxgraph.basic.diag_snip_rect;dx=6;whiteSpace=wrap;" parent="_3xDCkGt-uZ2KmA9hD5z-16" vertex="1">
          <mxGeometry width="100" height="60" as="geometry" />
        </mxCell>
        <mxCell id="_3xDCkGt-uZ2KmA9hD5z-15" value="DOCK" style="text;strokeColor=none;fillColor=none;html=1;fontSize=24;fontStyle=1;verticalAlign=middle;align=center;" parent="_3xDCkGt-uZ2KmA9hD5z-16" vertex="1">
          <mxGeometry y="10" width="100" height="40" as="geometry" />
        </mxCell>
        <mxCell id="EVmiSjmFIiezxg2oS5IS-3" value="&lt;b style=&quot;font-size: 16px;&quot;&gt;GAMINNG&lt;br&gt;PC&lt;/b&gt;" style="rounded=0;whiteSpace=wrap;html=1;" parent="1" vertex="1">
          <mxGeometry x="950" y="520" width="90" height="160" as="geometry" />
        </mxCell>
        <mxCell id="EVmiSjmFIiezxg2oS5IS-9" value="&lt;b&gt;Logitech Pro&lt;/b&gt;" style="sketch=0;aspect=fixed;pointerEvents=1;shadow=0;dashed=0;html=1;labelPosition=center;verticalLabelPosition=bottom;verticalAlign=top;align=center;shape=mxgraph.mscae.enterprise.mouse" parent="1" vertex="1">
          <mxGeometry x="840" y="359" width="30" height="50" as="geometry" />
        </mxCell>
        <mxCell id="EVmiSjmFIiezxg2oS5IS-10" value="&#39;" style="group" parent="1" vertex="1" connectable="0">
          <mxGeometry x="385" y="340" width="200" height="66" as="geometry" />
        </mxCell>
        <mxCell id="EVmiSjmFIiezxg2oS5IS-11" value="" style="verticalLabelPosition=bottom;verticalAlign=top;html=1;shape=mxgraph.basic.diag_snip_rect;dx=6;whiteSpace=wrap;" parent="EVmiSjmFIiezxg2oS5IS-10" vertex="1">
          <mxGeometry width="200" height="66" as="geometry" />
        </mxCell>
        <mxCell id="EVmiSjmFIiezxg2oS5IS-12" value="&lt;font style=&quot;font-size: 19px;&quot;&gt;USB&lt;br&gt;Peripheral Switcher&lt;/font&gt;" style="text;strokeColor=none;fillColor=none;html=1;fontSize=24;fontStyle=1;verticalAlign=middle;align=center;" parent="EVmiSjmFIiezxg2oS5IS-10" vertex="1">
          <mxGeometry y="11" width="200" height="44" as="geometry" />
        </mxCell>
        <mxCell id="EVmiSjmFIiezxg2oS5IS-15" value="&lt;b&gt;moonlander&lt;/b&gt;" style="sketch=0;aspect=fixed;pointerEvents=1;shadow=0;dashed=0;html=1;labelPosition=center;verticalLabelPosition=bottom;verticalAlign=top;align=center;shape=mxgraph.mscae.enterprise.keyboard;" parent="1" vertex="1">
          <mxGeometry x="480" y="420" width="83.33" height="50" as="geometry" />
        </mxCell>
        <mxCell id="EVmiSjmFIiezxg2oS5IS-16" style="edgeStyle=orthogonalEdgeStyle;rounded=0;orthogonalLoop=1;jettySize=auto;html=1;strokeWidth=3;fillColor=#d5e8d4;strokeColor=#82b366;" parent="1" source="EVmiSjmFIiezxg2oS5IS-15" edge="1">
          <mxGeometry relative="1" as="geometry">
            <mxPoint x="230" y="340" as="targetPoint" />
          </mxGeometry>
        </mxCell>
        <mxCell id="EVmiSjmFIiezxg2oS5IS-18" style="edgeStyle=orthogonalEdgeStyle;rounded=0;orthogonalLoop=1;jettySize=auto;html=1;exitX=1;exitY=0.75;exitDx=0;exitDy=0;entryX=0.25;entryY=0;entryDx=0;entryDy=0;strokeWidth=3;fillColor=#d5e8d4;strokeColor=#82b366;" parent="1" target="EVmiSjmFIiezxg2oS5IS-3" edge="1">
          <mxGeometry relative="1" as="geometry">
            <mxPoint x="585" y="347" as="sourcePoint" />
            <mxPoint x="972.5" y="483" as="targetPoint" />
          </mxGeometry>
        </mxCell>
        <mxCell id="EVmiSjmFIiezxg2oS5IS-23" value="&lt;b&gt;COMPUTER B&lt;/b&gt;" style="edgeLabel;html=1;align=center;verticalAlign=middle;resizable=0;points=[];" parent="EVmiSjmFIiezxg2oS5IS-18" vertex="1" connectable="0">
          <mxGeometry x="-0.847" y="-1" relative="1" as="geometry">
            <mxPoint x="33" as="offset" />
          </mxGeometry>
        </mxCell>
        <mxCell id="EVmiSjmFIiezxg2oS5IS-19" value="&lt;b&gt;annie pro&lt;/b&gt;" style="sketch=0;aspect=fixed;pointerEvents=1;shadow=0;dashed=0;html=1;labelPosition=center;verticalLabelPosition=bottom;verticalAlign=top;align=center;shape=mxgraph.mscae.enterprise.keyboard;" parent="1" vertex="1">
          <mxGeometry x="620" y="417.51" width="83.33" height="50" as="geometry" />
        </mxCell>
        <mxCell id="EVmiSjmFIiezxg2oS5IS-21" style="edgeStyle=orthogonalEdgeStyle;rounded=0;orthogonalLoop=1;jettySize=auto;html=1;entryX=0.058;entryY=-0.016;entryDx=0;entryDy=0;entryPerimeter=0;strokeWidth=3;fillColor=#d5e8d4;strokeColor=#82b366;startArrow=classic;startFill=1;endArrow=none;endFill=0;" parent="1" target="EVmiSjmFIiezxg2oS5IS-3" edge="1">
          <mxGeometry relative="1" as="geometry">
            <mxPoint x="740" y="445" as="sourcePoint" />
          </mxGeometry>
        </mxCell>
        <mxCell id="m90xQPu4XsftAY0NILOl-15" value="&lt;b style=&quot;border-color: var(--border-color);&quot;&gt;RF Dongle&lt;/b&gt;" style="edgeLabel;html=1;align=center;verticalAlign=middle;resizable=0;points=[];" vertex="1" connectable="0" parent="EVmiSjmFIiezxg2oS5IS-21">
          <mxGeometry x="-0.2675" relative="1" as="geometry">
            <mxPoint as="offset" />
          </mxGeometry>
        </mxCell>
        <mxCell id="EVmiSjmFIiezxg2oS5IS-24" style="edgeStyle=orthogonalEdgeStyle;rounded=0;orthogonalLoop=1;jettySize=auto;html=1;entryX=0.745;entryY=1.033;entryDx=0;entryDy=0;entryPerimeter=0;fillColor=#d5e8d4;strokeColor=#82b366;strokeWidth=3;" parent="1" source="EVmiSjmFIiezxg2oS5IS-12" target="_3xDCkGt-uZ2KmA9hD5z-5" edge="1">
          <mxGeometry relative="1" as="geometry">
            <mxPoint x="270" y="340" as="targetPoint" />
          </mxGeometry>
        </mxCell>
        <mxCell id="EVmiSjmFIiezxg2oS5IS-25" value="&lt;b&gt;COMPUTER A&lt;/b&gt;" style="edgeLabel;html=1;align=center;verticalAlign=middle;resizable=0;points=[];" parent="EVmiSjmFIiezxg2oS5IS-24" vertex="1" connectable="0">
          <mxGeometry x="-0.5398" y="2" relative="1" as="geometry">
            <mxPoint x="-17" y="-2" as="offset" />
          </mxGeometry>
        </mxCell>
        <mxCell id="EVmiSjmFIiezxg2oS5IS-27" style="edgeStyle=orthogonalEdgeStyle;rounded=0;orthogonalLoop=1;jettySize=auto;html=1;strokeWidth=3;fillColor=#1ba1e2;strokeColor=#006EAF;" parent="1" source="EVmiSjmFIiezxg2oS5IS-26" edge="1">
          <mxGeometry relative="1" as="geometry">
            <mxPoint x="410" y="410" as="targetPoint" />
          </mxGeometry>
        </mxCell>
        <mxCell id="EVmiSjmFIiezxg2oS5IS-26" value="&lt;b&gt;Toggle&amp;nbsp;Peripheral&amp;nbsp;&lt;br&gt;(computer A/B)&lt;/b&gt;" style="labelPosition=center;verticalLabelPosition=middle;align=center;html=1;shape=mxgraph.basic.shaded_button;dx=10;whiteSpace=wrap;" parent="1" vertex="1">
          <mxGeometry x="460" y="610" width="136.67" height="70" as="geometry" />
        </mxCell>
        <mxCell id="EVmiSjmFIiezxg2oS5IS-28" value="&#39;" style="group" parent="1" vertex="1" connectable="0">
          <mxGeometry x="180" y="560" width="200" height="66" as="geometry" />
        </mxCell>
        <mxCell id="EVmiSjmFIiezxg2oS5IS-29" value="" style="verticalLabelPosition=bottom;verticalAlign=top;html=1;shape=mxgraph.basic.diag_snip_rect;dx=6;whiteSpace=wrap;" parent="EVmiSjmFIiezxg2oS5IS-28" vertex="1">
          <mxGeometry width="200" height="66" as="geometry" />
        </mxCell>
        <mxCell id="EVmiSjmFIiezxg2oS5IS-30" value="Audio interface" style="text;strokeColor=none;fillColor=none;html=1;fontSize=24;fontStyle=1;verticalAlign=middle;align=center;" parent="EVmiSjmFIiezxg2oS5IS-28" vertex="1">
          <mxGeometry y="11" width="200" height="44" as="geometry" />
        </mxCell>
        <mxCell id="EVmiSjmFIiezxg2oS5IS-31" style="edgeStyle=orthogonalEdgeStyle;rounded=0;orthogonalLoop=1;jettySize=auto;html=1;fillColor=#d5e8d4;strokeColor=#82b366;strokeWidth=3;exitX=0.602;exitY=-0.02;exitDx=0;exitDy=0;exitPerimeter=0;" parent="1" source="EVmiSjmFIiezxg2oS5IS-29" edge="1">
          <mxGeometry relative="1" as="geometry">
            <mxPoint x="305" y="560" as="sourcePoint" />
            <mxPoint x="385" y="390" as="targetPoint" />
            <Array as="points">
              <mxPoint x="305" y="559" />
              <mxPoint x="305" y="390" />
            </Array>
          </mxGeometry>
        </mxCell>
        <mxCell id="EVmiSjmFIiezxg2oS5IS-35" style="edgeStyle=orthogonalEdgeStyle;rounded=0;orthogonalLoop=1;jettySize=auto;html=1;strokeWidth=3;fillColor=#ffe6cc;strokeColor=#d79b00;" parent="1" source="EVmiSjmFIiezxg2oS5IS-34" edge="1">
          <mxGeometry relative="1" as="geometry">
            <mxPoint x="200" y="630" as="targetPoint" />
          </mxGeometry>
        </mxCell>
        <mxCell id="EVmiSjmFIiezxg2oS5IS-36" value="&lt;b&gt;XLR&lt;/b&gt;" style="edgeLabel;html=1;align=center;verticalAlign=middle;resizable=0;points=[];" parent="EVmiSjmFIiezxg2oS5IS-35" vertex="1" connectable="0">
          <mxGeometry x="0.1453" y="2" relative="1" as="geometry">
            <mxPoint as="offset" />
          </mxGeometry>
        </mxCell>
        <mxCell id="EVmiSjmFIiezxg2oS5IS-34" value="&lt;b&gt;AT 2035&lt;/b&gt;" style="html=1;verticalLabelPosition=bottom;align=center;labelBackgroundColor=#ffffff;verticalAlign=top;strokeWidth=2;shadow=0;dashed=0;shape=mxgraph.ios7.icons.microphone;" parent="1" vertex="1">
          <mxGeometry x="240" y="686" width="25.6" height="64" as="geometry" />
        </mxCell>
        <mxCell id="EVmiSjmFIiezxg2oS5IS-43" style="edgeStyle=orthogonalEdgeStyle;rounded=0;orthogonalLoop=1;jettySize=auto;html=1;fontFamily=Helvetica;fontSize=12;fontColor=default;fillColor=#ffe6cc;strokeColor=#d79b00;strokeWidth=3;" parent="1" source="EVmiSjmFIiezxg2oS5IS-42" edge="1">
          <mxGeometry relative="1" as="geometry">
            <mxPoint x="310" y="630" as="targetPoint" />
          </mxGeometry>
        </mxCell>
        <mxCell id="EVmiSjmFIiezxg2oS5IS-44" value="&lt;b&gt;1/4&quot; cable&lt;/b&gt;" style="edgeLabel;html=1;align=center;verticalAlign=middle;resizable=0;points=[];fontSize=12;fontFamily=Helvetica;fontColor=default;" parent="EVmiSjmFIiezxg2oS5IS-43" vertex="1" connectable="0">
          <mxGeometry x="-0.0156" relative="1" as="geometry">
            <mxPoint as="offset" />
          </mxGeometry>
        </mxCell>
        <mxCell id="EVmiSjmFIiezxg2oS5IS-42" value="&lt;b&gt;theo headphones&lt;/b&gt;" style="shape=image;html=1;verticalAlign=top;verticalLabelPosition=bottom;labelBackgroundColor=#ffffff;imageAspect=0;aspect=fixed;image=https://cdn3.iconfinder.com/data/icons/mix-and-miscellaneous/93/handrawn_Mic_Headphone_music-128.png;strokeColor=default;align=center;fontFamily=Helvetica;fontSize=12;fontColor=default;fillColor=default;" parent="1" vertex="1">
          <mxGeometry x="680" y="640" width="128" height="128" as="geometry" />
        </mxCell>
        <mxCell id="m90xQPu4XsftAY0NILOl-1" value="" style="endArrow=none;html=1;rounded=0;strokeWidth=3;fillColor=#e1d5e7;strokeColor=#9673a6;" edge="1" parent="1">
          <mxGeometry width="50" height="50" relative="1" as="geometry">
            <mxPoint x="60" y="70" as="sourcePoint" />
            <mxPoint x="120" y="70" as="targetPoint" />
          </mxGeometry>
        </mxCell>
        <mxCell id="m90xQPu4XsftAY0NILOl-2" value="&lt;b&gt;&lt;font color=&quot;#9673a6&quot;&gt;VIIDEO&lt;/font&gt;&lt;/b&gt;" style="edgeLabel;html=1;align=center;verticalAlign=middle;resizable=0;points=[];" vertex="1" connectable="0" parent="m90xQPu4XsftAY0NILOl-1">
          <mxGeometry x="0.046" y="-1" relative="1" as="geometry">
            <mxPoint as="offset" />
          </mxGeometry>
        </mxCell>
        <mxCell id="m90xQPu4XsftAY0NILOl-7" value="" style="endArrow=none;html=1;rounded=0;strokeWidth=3;fillColor=#e1d5e7;strokeColor=#82B366;" edge="1" parent="1">
          <mxGeometry width="50" height="50" relative="1" as="geometry">
            <mxPoint x="60" y="100" as="sourcePoint" />
            <mxPoint x="120" y="100" as="targetPoint" />
          </mxGeometry>
        </mxCell>
        <mxCell id="m90xQPu4XsftAY0NILOl-8" value="&lt;b&gt;&lt;font color=&quot;#82b366&quot;&gt;USB&lt;/font&gt;&lt;/b&gt;" style="edgeLabel;html=1;align=center;verticalAlign=middle;resizable=0;points=[];" vertex="1" connectable="0" parent="m90xQPu4XsftAY0NILOl-7">
          <mxGeometry x="0.046" y="-1" relative="1" as="geometry">
            <mxPoint as="offset" />
          </mxGeometry>
        </mxCell>
        <mxCell id="m90xQPu4XsftAY0NILOl-13" value="" style="html=1;verticalLabelPosition=bottom;align=center;labelBackgroundColor=#ffffff;verticalAlign=top;strokeWidth=2;strokeColor=#0080F0;shadow=0;dashed=0;shape=mxgraph.ios7.icons.wifi;pointerEvents=1;rotation=-90;" vertex="1" parent="1">
          <mxGeometry x="800" y="373.5" width="29.7" height="21" as="geometry" />
        </mxCell>
        <mxCell id="m90xQPu4XsftAY0NILOl-11" style="edgeStyle=orthogonalEdgeStyle;rounded=0;orthogonalLoop=1;jettySize=auto;html=1;fillColor=#d5e8d4;strokeColor=#82b366;strokeWidth=3;entryX=0.502;entryY=-0.027;entryDx=0;entryDy=0;entryPerimeter=0;exitX=1;exitY=0.75;exitDx=0;exitDy=0;" edge="1" parent="1" source="EVmiSjmFIiezxg2oS5IS-12" target="m90xQPu4XsftAY0NILOl-13">
          <mxGeometry relative="1" as="geometry">
            <mxPoint x="781.67" y="383.25" as="targetPoint" />
            <mxPoint x="596.67" y="384.26694915254234" as="sourcePoint" />
          </mxGeometry>
        </mxCell>
        <mxCell id="m90xQPu4XsftAY0NILOl-12" value="&lt;b&gt;RF Dongle&lt;/b&gt;" style="edgeLabel;html=1;align=center;verticalAlign=middle;resizable=0;points=[];" vertex="1" connectable="0" parent="m90xQPu4XsftAY0NILOl-11">
          <mxGeometry x="0.0673" y="-1" relative="1" as="geometry">
            <mxPoint as="offset" />
          </mxGeometry>
        </mxCell>
        <mxCell id="m90xQPu4XsftAY0NILOl-14" value="" style="html=1;verticalLabelPosition=bottom;align=center;labelBackgroundColor=#ffffff;verticalAlign=top;strokeWidth=2;strokeColor=#0080F0;shadow=0;dashed=0;shape=mxgraph.ios7.icons.wifi;pointerEvents=1;rotation=90;" vertex="1" parent="1">
          <mxGeometry x="710" y="434.5" width="29.7" height="21" as="geometry" />
        </mxCell>
        <mxCell id="m90xQPu4XsftAY0NILOl-17" style="edgeStyle=orthogonalEdgeStyle;rounded=0;orthogonalLoop=1;jettySize=auto;html=1;entryX=1.017;entryY=0.95;entryDx=0;entryDy=0;entryPerimeter=0;fillColor=#d5e8d4;strokeColor=#82b366;strokeWidth=3;" edge="1" parent="1" source="m90xQPu4XsftAY0NILOl-16" target="_3xDCkGt-uZ2KmA9hD5z-15">
          <mxGeometry relative="1" as="geometry">
            <mxPoint x="310" y="330" as="targetPoint" />
            <Array as="points">
              <mxPoint x="400" y="328" />
            </Array>
          </mxGeometry>
        </mxCell>
        <mxCell id="m90xQPu4XsftAY0NILOl-18" value="&lt;b&gt;USB C&lt;/b&gt;" style="edgeLabel;html=1;align=center;verticalAlign=middle;resizable=0;points=[];" vertex="1" connectable="0" parent="m90xQPu4XsftAY0NILOl-17">
          <mxGeometry x="-0.6803" relative="1" as="geometry">
            <mxPoint as="offset" />
          </mxGeometry>
        </mxCell>
        <mxCell id="m90xQPu4XsftAY0NILOl-16" value="&lt;b&gt;OPAL C1&lt;/b&gt;" style="sketch=0;outlineConnect=0;fontColor=#232F3E;gradientColor=none;fillColor=#232F3D;strokeColor=none;dashed=0;verticalLabelPosition=bottom;verticalAlign=top;align=center;html=1;fontSize=12;fontStyle=0;aspect=fixed;pointerEvents=1;shape=mxgraph.aws4.camera2;" vertex="1" parent="1">
          <mxGeometry x="385" y="10" width="50.32" height="40" as="geometry" />
        </mxCell>
      </root>
    </mxGraphModel>
  </diagram>
</mxfile>
